<?xml version="1.0" encoding="iso-8859-1"?>
<!-- Generator: Adobe Illustrator 17.0.0, SVG Export Plug-In . SVG Version: 6.00 Build 0)  -->
<!DOCTYPE svg PUBLIC "-//W3C//DTD SVG 1.1//EN" "http://www.w3.org/Graphics/SVG/1.1/DTD/svg11.dtd">
<svg version="1.1" id="Layer_1" xmlns="http://www.w3.org/2000/svg" xmlns:xlink="http://www.w3.org/1999/xlink" x="0px" y="0px"
	 width="32px" height="32px" viewBox="0 0 32 32" style="enable-background:new 0 0 32 32;" xml:space="preserve">
<g id="g8H84R.tif_2_">
	<g>
		<g>
			<path style="fill:#FFFFFF;" d="M5.219,31.673c-0.043-0.02-0.083-0.048-0.128-0.059c-1.449-0.349-2.315-1.431-2.316-2.92
				c-0.003-6.573-0.001-7.688,0-14.261c0-2.227-0.012-4.454,0.006-6.681c0.012-1.556,1.263-2.793,2.819-2.822
				c0.682-0.013,1.365-0.003,2.047-0.004c0.346,0,0.693,0,1.059,0c0.032-0.145,0.058-0.281,0.092-0.415
				c0.192-0.755,0.83-1.276,1.607-1.307c0.263-0.01,0.527-0.007,0.79-0.002c0.69,0.014,1.185-0.291,1.522-0.889
				c0.199-0.354,0.398-0.712,0.645-1.032c0.393-0.51,0.974-0.745,1.562-0.955c0.719,0,1.438,0,2.157,0
				c0.108,0.044,0.215,0.092,0.324,0.13c0.667,0.236,1.201,0.634,1.547,1.264c0.132,0.241,0.263,0.484,0.408,0.717
				c0.3,0.48,0.734,0.741,1.304,0.761c0.203,0.007,0.407,0.002,0.611,0.002c1.204,0.001,1.809,0.509,2.017,1.725
				c1.021,0,2.049-0.011,3.076,0.003c1.018,0.014,1.818,0.458,2.388,1.3c0.316,0.467,0.472,0.991,0.472,1.556
				c0.001,8.825,0.003,12.19-0.001,21.014c-0.001,1.342-0.908,2.473-2.207,2.796c-0.08,0.02-0.156,0.051-0.234,0.076
				C19.596,31.673,12.408,31.673,5.219,31.673z M8.74,6.078c-1.025,0-1.995-0.002-2.964,0c-1.124,0.002-1.85,0.719-1.85,1.836
				c-0.001,8.709-0.001,11.959,0.001,20.668c0,1.273,0.68,1.941,1.96,1.941c6.756,0,13.513,0,20.269,0
				c1.238,0,1.924-0.694,1.924-1.945c0-4.72,0-3.981,0-8.7c0-4.001,0.002-8.002-0.001-12.003c-0.001-1.055-0.733-1.787-1.781-1.796
				c-0.359-0.003-0.719-0.002-1.078-0.002c-0.643,0-1.285,0-1.957,0c0,0.209,0.002,0.374,0,0.54
				c-0.014,1.008-0.744,1.747-1.747,1.759c-0.551,0.007-1.102,0.002-1.653,0.002c-3.103,0-6.205,0.002-9.308-0.002
				C9.477,8.375,8.751,7.648,8.74,6.575C8.739,6.422,8.74,6.269,8.74,6.078z M15.98,7.228c1.808,0,3.617,0.001,5.425-0.001
				c0.495-0.001,0.703-0.206,0.706-0.692c0.004-0.503,0.005-1.006,0-1.509c-0.005-0.463-0.217-0.664-0.689-0.674
				c-0.394-0.008-0.797,0.024-1.181-0.043c-1.025-0.18-1.704-0.819-2.133-1.742c-0.364-0.784-0.968-1.059-1.831-1.114
				c-1.26-0.081-2.109,0.31-2.622,1.507c-0.318,0.742-0.993,1.165-1.781,1.319c-0.429,0.084-0.88,0.058-1.321,0.073
				c-0.444,0.015-0.656,0.22-0.66,0.666C9.889,5.497,9.89,5.976,9.892,6.455c0.003,0.591,0.186,0.773,0.771,0.773
				C12.435,7.227,14.208,7.228,15.98,7.228z"/>
			<path style="fill:#FFFFFF;" d="M26.837,32L5.081,31.969l0.048-0.342l-0.13,0.3c-1.59-0.381-2.549-1.592-2.55-3.232L2.447,19.41
				l0.001-4.976L2.446,12.46c-0.002-1.57-0.005-3.14,0.008-4.71c0.014-1.732,1.393-3.114,3.14-3.146
				C5.872,4.599,6.151,4.598,6.43,4.598L8.442,4.6c0.012-0.057,0.026-0.114,0.04-0.17c0.227-0.893,0.995-1.516,1.91-1.552
				c0.268-0.011,0.539-0.008,0.81-0.002c0.569-0.006,0.953-0.229,1.23-0.722c0.213-0.379,0.416-0.741,0.671-1.072
				c0.444-0.576,1.088-0.841,1.71-1.063L14.923,0l2.279,0.024l0.105,0.043c0.068,0.028,0.136,0.057,0.206,0.082
				c0.781,0.276,1.36,0.753,1.724,1.415l0.055,0.101c0.11,0.202,0.221,0.405,0.344,0.6c0.245,0.393,0.585,0.592,1.038,0.609
				c0.082,0.003,0.165,0.004,0.247,0.004l0.353-0.002c1.269,0.001,2.001,0.551,2.283,1.725l1.616-0.004
				c0.399,0,0.798,0.002,1.198,0.007c1.122,0.016,2.015,0.501,2.654,1.443c0.35,0.517,0.528,1.102,0.529,1.739l0.001,5.042
				c0.001,5.481,0.001,9.044-0.003,15.972c0,1.473-1.01,2.753-2.455,3.113c-0.043,0.011-0.085,0.026-0.128,0.041L26.837,32z
				 M5.298,31.347l21.454-0.008c0.062-0.022,0.124-0.043,0.188-0.059c1.172-0.291,1.959-1.288,1.959-2.479
				c0.003-6.928,0.003-10.491,0.003-15.972l-0.001-5.042c-0.001-0.504-0.141-0.966-0.416-1.373
				c-0.519-0.766-1.214-1.144-2.122-1.157C25.966,5.251,25.57,5.25,25.173,5.25l-2.158,0.004l-0.047-0.272
				c-0.18-1.059-0.64-1.453-1.695-1.454L20.922,3.53c-0.09,0-0.18-0.001-0.27-0.004c-0.669-0.024-1.211-0.34-1.57-0.915
				c-0.128-0.205-0.246-0.418-0.362-0.632l-0.055-0.1c-0.288-0.526-0.736-0.89-1.369-1.114c-0.081-0.029-0.161-0.062-0.24-0.095
				l-0.04-0.017H14.98c-0.533,0.192-1.034,0.406-1.36,0.828c-0.225,0.293-0.417,0.634-0.603,0.964
				c-0.41,0.73-1.002,1.085-1.776,1.085c-0.358-0.006-0.567-0.009-0.823,0.001C9.784,3.556,9.273,3.973,9.115,4.592
				c-0.022,0.086-0.04,0.173-0.059,0.263L8.968,5.254L6.43,5.251c-0.275,0-0.549,0.002-0.824,0.007
				C4.215,5.283,3.118,6.38,3.107,7.755c-0.012,1.568-0.01,3.136-0.008,4.704l0.002,1.975L3.1,19.411l0.001,9.284
				c0.001,1.338,0.754,2.286,2.066,2.602C5.22,31.31,5.263,31.329,5.298,31.347z M16.021,30.85L5.886,30.849
				c-1.453,0-2.286-0.827-2.286-2.268L3.599,7.914c0-1.291,0.874-2.16,2.176-2.163L6.87,5.75l2.196,0.001v0.82
				C9.076,7.468,9.66,8.049,10.554,8.05l6.981,0.002l2.327,0l0.954,0.002c0.232,0,0.463-0.001,0.695-0.004
				c0.828-0.01,1.414-0.601,1.425-1.437l0.001-0.349l-0.001-0.513l3.364,0.002c1.238,0.011,2.104,0.883,2.105,2.122l0.001,20.704
				c-0.001,1.422-0.842,2.271-2.251,2.271L16.021,30.85z M6.87,6.403L5.776,6.404c-0.94,0.002-1.524,0.58-1.524,1.51l0.001,20.667
				c0,1.087,0.534,1.615,1.633,1.615l10.135,0.001l10.134-0.001c1.059,0,1.597-0.545,1.598-1.618L27.751,7.875
				c-0.001-0.871-0.587-1.462-1.457-1.47l-0.568-0.002l-0.507,0l-1.629,0c0,0.075,0,0.147-0.001,0.219
				c-0.016,1.19-0.886,2.066-2.07,2.08c-0.234,0.003-0.469,0.004-0.703,0.004l-0.954-0.002l-4.654,0l-4.654-0.002
				c-1.247-0.002-2.127-0.875-2.14-2.125l0-0.174L6.87,6.403z M18.877,7.555l-8.214,0c-0.766,0-1.094-0.328-1.097-1.098
				c-0.002-0.48-0.004-0.96,0.001-1.441c0.006-0.617,0.352-0.969,0.975-0.99c0.123-0.004,0.246-0.005,0.37-0.006
				c0.317-0.003,0.617-0.005,0.9-0.061c0.528-0.104,1.225-0.383,1.544-1.127c0.542-1.267,1.476-1.798,2.943-1.704
				c0.72,0.046,1.61,0.236,2.105,1.303c0.417,0.898,1.036,1.408,1.893,1.558c0.195,0.034,0.399,0.039,0.589,0.039l0.383-0.003
				l0.161,0.002c0.825,0.018,1.004,0.552,1.009,0.997c0.005,0.505,0.004,1.01,0.001,1.514c-0.005,0.665-0.362,1.016-1.033,1.017
				L18.877,7.555z M12.435,6.901L21.404,6.9c0.314,0,0.378-0.062,0.381-0.368c0.003-0.501,0.004-1.002-0.001-1.503
				c-0.003-0.266-0.052-0.344-0.37-0.351l-0.147-0.002l-0.383,0.003c-0.209,0-0.456-0.006-0.702-0.049
				c-1.068-0.187-1.866-0.835-2.372-1.926c-0.284-0.613-0.721-0.872-1.555-0.926c-1.17-0.077-1.869,0.3-2.301,1.31
				c-0.336,0.785-1.053,1.322-2.018,1.511c-0.342,0.067-0.687,0.07-1.02,0.073c-0.118,0.001-0.236,0.002-0.353,0.006
				c-0.275,0.009-0.342,0.077-0.345,0.343c-0.004,0.477-0.003,0.955-0.001,1.432c0.002,0.41,0.039,0.448,0.444,0.448H12.435z"/>
		</g>
		<g>
			<path style="fill:#FFFFFF;" d="M19.179,12.979c-1.592,0-3.184,0.008-4.775-0.01c-0.193-0.002-0.451-0.087-0.559-0.226
				c-0.106-0.135-0.144-0.445-0.057-0.578c0.107-0.166,0.37-0.316,0.57-0.322c1.1-0.031,2.202-0.016,3.303-0.016
				c2.082,0,4.165,0,6.247,0.001c0.413,0,0.647,0.156,0.71,0.461c0.078,0.38-0.208,0.686-0.663,0.687
				C22.362,12.981,20.771,12.978,19.179,12.979z"/>
		</g>
		<g>
			<path style="fill:#FFFFFF;" d="M19.166,17.579c-1.592,0-3.183-0.003-4.775,0.002c-0.323,0.001-0.567-0.106-0.667-0.426
				c-0.121-0.386,0.178-0.723,0.647-0.725c1.52-0.005,3.04-0.003,4.56-0.003c1.675,0,3.351,0.003,5.026-0.001
				c0.291-0.001,0.559,0.084,0.615,0.377c0.037,0.191-0.029,0.454-0.148,0.607c-0.093,0.119-0.339,0.16-0.518,0.161
				C22.326,17.584,20.746,17.579,19.166,17.579z"/>
		</g>
		<g>
			<path style="fill:#FFFFFF;" d="M19.129,22.181c-1.58,0-3.16-0.003-4.74,0.002c-0.341,0.001-0.588-0.122-0.675-0.463
				c-0.096-0.375,0.204-0.689,0.656-0.69c1.424-0.003,2.849-0.001,4.273-0.001c1.771,0,3.543,0.003,5.314-0.001
				c0.311-0.001,0.578,0.103,0.627,0.411c0.03,0.19-0.063,0.443-0.187,0.597c-0.088,0.109-0.323,0.137-0.492,0.138
				c-1.592,0.01-3.184,0.006-4.775,0.006C19.129,22.18,19.129,22.181,19.129,22.181z"/>
		</g>
		<g>
			<path style="fill:#FFFFFF;" d="M9.075,12.783c0.663-0.67,1.253-1.264,1.839-1.861c0.223-0.228,0.472-0.331,0.771-0.164
				c0.329,0.183,0.402,0.602,0.123,0.89c-0.758,0.781-1.53,1.549-2.308,2.311c-0.25,0.245-0.547,0.241-0.804-0.002
				c-0.399-0.378-0.789-0.768-1.165-1.169c-0.224-0.239-0.207-0.559,0-0.779c0.217-0.23,0.555-0.256,0.804-0.023
				C8.587,12.222,8.806,12.491,9.075,12.783z"/>
		</g>
		<g>
			<path style="fill:#FFFFFF;" d="M9.087,17.377c0.617-0.625,1.171-1.187,1.725-1.749c0.067-0.068,0.132-0.14,0.206-0.2
				c0.255-0.206,0.56-0.199,0.78,0.014c0.219,0.211,0.26,0.547,0.037,0.776c-0.775,0.798-1.562,1.585-2.358,2.362
				c-0.226,0.221-0.516,0.218-0.748,0.003c-0.412-0.382-0.809-0.781-1.194-1.191c-0.235-0.25-0.21-0.586,0.02-0.804
				c0.228-0.217,0.552-0.222,0.806,0.019C8.603,16.836,8.82,17.091,9.087,17.377z"/>
		</g>
		<g>
			<path style="fill:#FFFFFF;" d="M9.073,21.965c0.646-0.647,1.227-1.247,1.834-1.821c0.142-0.134,0.38-0.259,0.555-0.237
				c0.172,0.021,0.41,0.208,0.456,0.369c0.05,0.177-0.023,0.465-0.151,0.605c-0.532,0.582-1.106,1.127-1.664,1.685
				c-0.195,0.195-0.382,0.397-0.585,0.582c-0.275,0.251-0.564,0.257-0.832,0.003c-0.39-0.371-0.772-0.751-1.142-1.142
				c-0.237-0.25-0.224-0.581-0.002-0.806c0.222-0.225,0.555-0.241,0.805-0.006C8.592,21.424,8.808,21.682,9.073,21.965z"/>
		</g>
		<g>
			<path style="fill:#FFFFFF;" d="M16.864,4.115c-0.029,0.472-0.452,0.844-0.922,0.811c-0.473-0.034-0.837-0.457-0.8-0.931
				c0.036-0.46,0.438-0.812,0.902-0.792C16.516,3.224,16.893,3.643,16.864,4.115z"/>
		</g>
	</g>
</g>
</svg>
