<?xml version="1.0" encoding="utf-8"?>
<!-- Generator: Adobe Illustrator 19.0.0, SVG Export Plug-In . SVG Version: 6.00 Build 0)  -->
<svg version="1.1" id="Layer_1" xmlns="http://www.w3.org/2000/svg" xmlns:xlink="http://www.w3.org/1999/xlink" x="0px" y="0px"
	 viewBox="0 0 170 170" style="enable-background:new 0 0 170 170;" xml:space="preserve">
<style type="text/css">
	.st0{fill:#FFFFFF;stroke:#B3B4B5;stroke-width:8;stroke-miterlimit:10;}
	.st1{fill:none;stroke:#B3B4B5;stroke-width:8;stroke-miterlimit:10;}
	.st2{fill:none;stroke:#B3B4B5;stroke-width:6;stroke-miterlimit:10;}
</style>
<g>
	<path class="st0" d="M145.8,123.7v15.5c0,3.9-3.1,7-7,7l0,0"/>
	<path class="st1" d="M18.7,61V37c0-2.2,1.8-4,4-4h38.2c0.6,0,1.1,0.2,1.5,0.6l11.8,12.7c0.4,0.4,0.9,0.6,1.5,0.6H85"/>
	<path class="st1" d="M138.8,146.2"/>
	<polyline class="st1" points="85.8,60.8 85.8,22 132.4,22 161,49.7 161,123.5 131.7,123.5 	"/>
	<polyline class="st2" points="132.4,22 132.4,51.1 161,51.1 	"/>
	<path class="st1" d="M138.8,146.2c-3.9,0-7-3.1-7-7V65c0-2.2-1.8-4-4-4H85H12.7c-2.2,0-4,1.8-4,4v77.2c0,2.2,1.8,4,4,4H138.8"/>
	<path class="st2" d="M45.1,70.7v14.8c0,3.9,3.2,7.1,7.1,7.1l0,0c3.9,0,7.1-3.2,7.1-7.1V61c0-6.6-5.3-11.9-11.9-11.9h-1.2
		c-6.6,0-11.9,5.3-11.9,11.9l0,0"/>
</g>
</svg>
