<?xml version="1.0" encoding="iso-8859-1"?>
<!-- Generator: Adobe Illustrator 19.0.0, SVG Export Plug-In . SVG Version: 6.00 Build 0)  -->
<svg version="1.1" id="Layer_1" xmlns="http://www.w3.org/2000/svg" xmlns:xlink="http://www.w3.org/1999/xlink" x="0px" y="0px"
	 viewBox="0 0 200 200" style="enable-background:new 0 0 200 200;" xml:space="preserve">
<g>
	<path style="fill:none;stroke:#5B5C62;stroke-width:8;stroke-linecap:square;stroke-miterlimit:10;" d="M161.87,157.553
		c7.615-11.609,12.058-25.485,12.058-40.406c0-40.75-33.035-73.785-73.785-73.785s-73.785,33.035-73.785,73.785
		c0,14.921,4.443,28.797,12.058,40.406H161.87z"/>
	<path style="fill:#5B5C62;stroke:#5B5C62;stroke-width:4;stroke-linejoin:bevel;stroke-miterlimit:10;" d="M114.197,117.147
		c0,7.762-6.292,14.054-14.054,14.054s-14.054-6.292-14.054-14.054s14.054-46.555,14.054-46.555S114.197,109.385,114.197,117.147z"
		/>
	<line style="fill:none;stroke:#5B5C62;stroke-width:6;stroke-miterlimit:10;" x1="100.143" y1="43.362" x2="100.143" y2="60.295"/>
	<line style="fill:none;stroke:#5B5C62;stroke-width:6;stroke-miterlimit:10;" x1="151.695" y1="64.716" x2="139.722" y2="76.689"/>
	
		<line style="fill:none;stroke:#5B5C62;stroke-width:6;stroke-miterlimit:10;" x1="173.049" y1="116.268" x2="156.116" y2="116.268"/>
	<line style="fill:none;stroke:#5B5C62;stroke-width:6;stroke-miterlimit:10;" x1="127.92" y1="48.861" x2="124.517" y2="57.12"/>
	<line style="fill:none;stroke:#5B5C62;stroke-width:6;stroke-miterlimit:10;" x1="167.577" y1="88.556" x2="159.315" y2="91.952"/>
	<line style="fill:none;stroke:#5B5C62;stroke-width:6;stroke-miterlimit:10;" x1="48.59" y1="64.716" x2="60.564" y2="76.689"/>
	<line style="fill:none;stroke:#5B5C62;stroke-width:6;stroke-miterlimit:10;" x1="27.237" y1="116.268" x2="44.169" y2="116.268"/>
	<line style="fill:none;stroke:#5B5C62;stroke-width:6;stroke-miterlimit:10;" x1="72.365" y1="48.861" x2="75.769" y2="57.12"/>
	<line style="fill:none;stroke:#5B5C62;stroke-width:6;stroke-miterlimit:10;" x1="32.709" y1="88.556" x2="40.971" y2="91.952"/>
	<circle style="fill:#FFFFFF;" cx="100.143" cy="116.268" r="6.149"/>
</g>
</svg>
