<?xml version="1.0" encoding="iso-8859-1"?>
<!-- Generator: Adobe Illustrator 17.0.0, SVG Export Plug-In . SVG Version: 6.00 Build 0)  -->
<!DOCTYPE svg PUBLIC "-//W3C//DTD SVG 1.1//EN" "http://www.w3.org/Graphics/SVG/1.1/DTD/svg11.dtd">
<svg version="1.1" id="Layer_1" xmlns="http://www.w3.org/2000/svg" xmlns:xlink="http://www.w3.org/1999/xlink" x="0px" y="0px"
	 width="48px" height="48px" viewBox="0 0 48 48" style="enable-background:new 0 0 48 48;" xml:space="preserve">
<g id="AGg5ur_3_">
	<g>
		<path style="fill:#B3B4B5;" d="M41.927,44.5c-11.896,0-23.794,0-35.69,0c-0.046-0.027-0.088-0.062-0.137-0.079
			c-1.924-0.696-2.993-2.189-2.994-4.19c-0.001-2.059,0.001-4.118-0.003-6.178c0-0.155-0.038-0.31-0.059-0.465
			c0-0.107,0-0.214,0-0.321c0.021-0.143,0.059-0.287,0.059-0.43c0.004-3.045,0.004-6.09,0-9.136c0-0.129-0.038-0.256-0.059-0.385
			c0-0.107,0-0.214,0-0.321c0.021-0.143,0.059-0.287,0.059-0.43c0.004-3.045,0.004-6.089,0-9.134c0-0.155-0.038-0.311-0.059-0.466
			c0-0.08,0-0.161,0-0.241c0.106-0.165,0.19-0.349,0.32-0.494c2.434-2.727,4.878-5.444,7.303-8.179
			c0.344-0.388,0.714-0.549,1.237-0.548c8.115,0.012,16.231,0.008,24.347,0.008c0.109,0,0.232-0.031,0.324,0.007
			c0.267,0.11,0.593,0.188,0.772,0.385c2.548,2.823,5.076,5.663,7.609,8.5c0,9.709,0,19.418,0,29.127
			c-0.336,0.556-0.628,1.143-1.019,1.658C43.437,43.847,42.686,44.193,41.927,44.5z M4.865,23.996c0,2.875,0,5.702,0,8.557
			c0.19,0,0.353,0,0.514,0c3.711,0,7.421-0.001,11.132,0.001c0.723,0,1.04,0.33,1.036,1.037c-0.007,1.23-0.01,2.46-0.003,3.69
			c0.008,1.378,0.774,2.135,2.187,2.139c2.878,0.009,5.756,0.009,8.636-0.001c1.5-0.005,2.229-0.729,2.243-2.203
			c0.011-1.176,0.003-2.353,0.004-3.53c0.001-0.868,0.266-1.132,1.139-1.132c3.684,0,7.366,0,11.05,0c0.159,0,0.32,0,0.5,0
			c0-2.87,0-5.698,0-8.551c-3.652,0-7.285,0-10.961,0c0,0.998,0.002,1.971,0,2.944c-0.005,2.163-1.771,3.899-3.975,3.902
			c-2.865,0.004-5.73,0.004-8.595,0c-1.907-0.003-3.592-1.347-3.883-3.202c-0.129-0.824-0.056-1.679-0.07-2.52
			c-0.006-0.369-0.001-0.739-0.001-1.128C12.139,23.996,8.517,23.996,4.865,23.996z M32.341,13.722c0,1.049,0.006,2.051-0.001,3.052
			c-0.015,2.08-1.749,3.803-3.866,3.841c-0.627,0.012-1.255,0.004-1.882,0.004c-2.359-0.003-4.72,0.03-7.078-0.022
			c-1.758-0.039-3.347-1.412-3.605-3.113c-0.135-0.891-0.07-1.811-0.09-2.719c-0.007-0.342-0.001-0.684-0.001-1.029
			c-3.693,0-7.324,0-10.953,0c0,2.861,0,5.688,0,8.545c0.271,0,0.514,0,0.757,0c3.628-0.001,7.255-0.002,10.883-0.001
			c0.724,0,1.046,0.329,1.042,1.032c-0.007,1.19-0.006,2.379-0.005,3.57c0.001,1.536,0.738,2.264,2.305,2.267
			c2.824,0.004,5.646,0.004,8.47,0c1.541-0.002,2.291-0.734,2.297-2.236c0.005-1.19,0-2.379,0.001-3.57
			c0.001-0.781,0.288-1.061,1.085-1.061c3.723-0.001,7.447-0.001,11.169-0.002c0.144,0,0.287,0,0.424,0c0-2.885,0-5.711,0-8.558
			C39.64,13.722,36.018,13.722,32.341,13.722z M5.883,12.009c0.265,0,0.415,0,0.564,0c3.355,0,6.709-0.001,10.064,0.001
			c0.724,0,1.039,0.326,1.036,1.037c-0.005,1.216-0.005,2.433-0.005,3.649c0,1.471,0.768,2.221,2.265,2.221
			c2.85-0.001,5.7-0.002,8.55-0.001c1.497,0,2.253-0.744,2.255-2.227c0.002-1.19-0.002-2.379,0.003-3.569
			c0.003-0.845,0.269-1.109,1.12-1.11c3.355-0.002,6.709-0.001,10.064-0.003c0.128,0,0.256-0.013,0.427-0.021
			c-0.059-0.085-0.085-0.13-0.118-0.167c-1.893-2.123-3.783-4.25-5.693-6.359c-0.135-0.149-0.421-0.237-0.637-0.238
			c-7.786-0.012-15.573-0.009-23.359-0.017c-0.328,0-0.557,0.087-0.774,0.333c-1.384,1.567-2.78,3.123-4.171,4.683
			C6.966,10.792,6.459,11.363,5.883,12.009z M43.323,34.278c-3.688,0-7.322,0-10.98,0c0,1.021,0.005,2.009-0.001,2.997
			c-0.014,2.089-1.786,3.835-3.914,3.842c-2.906,0.009-5.812,0.01-8.718-0.009c-0.415-0.003-0.847-0.078-1.238-0.212
			c-1.625-0.558-2.656-2.029-2.655-3.717c0.001-0.959,0-1.919,0-2.906c-3.677,0-7.311,0-10.964,0
			c-0.006,0.143-0.016,0.262-0.016,0.38c-0.001,1.939-0.004,3.878,0.001,5.817c0.003,1.514,0.925,2.427,2.471,2.427
			c11.2,0.004,22.401,0.004,33.602,0c1.458,0,2.396-0.93,2.412-2.369c0.008-0.762,0.002-1.525,0.002-2.286
			C43.323,36.932,43.323,35.622,43.323,34.278z"/>
	</g>
</g>
</svg>
