<?xml version="1.0" encoding="utf-8"?>
<!-- Generator: Adobe Illustrator 19.0.0, SVG Export Plug-In . SVG Version: 6.00 Build 0)  -->
<svg version="1.1" id="Layer_1" xmlns="http://www.w3.org/2000/svg" xmlns:xlink="http://www.w3.org/1999/xlink" x="0px" y="0px"
	 viewBox="0 0 170 170" style="enable-background:new 0 0 170 170;" xml:space="preserve">
<style type="text/css">
	.st0{fill:#B3B4B5;}
</style>
<g>
	<path class="st0" d="M161.7,111.5c0,1-1.5,3-4.5,6c-3,3-5,4.5-6,4.5c-0.5,0-1.4-0.5-2.6-1.5c-1.2-1-2.3-2-3.3-3
		c-1-1-2.2-2.2-3.5-3.6c-1.3-1.4-2.1-2.2-2.2-2.4l-8.8,8.8l20.1,20.1c1.7,1.7,2.6,3.8,2.6,6.2c0,2.6-1.2,5-3.6,7.4
		c-2.4,2.4-4.8,3.6-7.4,3.6c-2.4,0-4.5-0.9-6.2-2.6L75,93.7c-10.7,8-21.8,11.9-33.3,11.9c-9.9,0-18-3.1-24.2-9.3
		C11.3,90.1,8.2,82,8.2,72.1c0-9.7,2.9-19.2,8.7-28.5c5.8-9.3,13.3-16.8,22.6-22.6c9.3-5.8,18.8-8.7,28.5-8.7c9.9,0,18,3.1,24.2,9.3
		c6.2,6.2,9.3,14.3,9.3,24.2c0,11.5-4,22.6-11.9,33.3l32.4,32.4l8.8-8.8c-0.2-0.2-1-0.9-2.4-2.2c-1.4-1.3-2.6-2.5-3.6-3.5
		c-1-1-2-2.1-3-3.3c-1-1.2-1.5-2.1-1.5-2.6c0-1,1.5-3,4.5-6c3-3,5-4.5,6-4.5c0.8,0,1.5,0.3,2.1,0.9c0.4,0.4,1.8,1.7,4.2,4.1
		c2.4,2.3,4.9,4.8,7.5,7.2c2.6,2.5,5.2,5.1,7.9,7.8c2.7,2.7,4.9,5.1,6.7,7.1C160.8,109.8,161.7,111,161.7,111.5z M79,59.7
		c3.4-3.4,5.1-7.5,5.1-12.4c0-4.9-1.7-9-5.1-12.4c-3.4-3.4-7.5-5.1-12.4-5.1c-4.9,0-9,1.7-12.4,5.1c-3.4,3.4-5.1,7.5-5.1,12.4
		c0,2.6,0.6,5.1,1.7,7.6c-2.5-1.2-5-1.7-7.6-1.7c-4.9,0-9,1.7-12.4,5.1c-3.4,3.4-5.1,7.5-5.1,12.4c0,4.9,1.7,9,5.1,12.4
		c3.4,3.4,7.5,5.1,12.4,5.1c4.9,0,9-1.7,12.4-5.1c3.4-3.4,5.1-7.5,5.1-12.4c0-2.6-0.6-5.1-1.7-7.6c2.5,1.2,5,1.7,7.6,1.7
		C71.4,64.8,75.6,63.1,79,59.7z"/>
</g>
</svg>
