<?xml version="1.0" encoding="utf-8"?>
<!-- Generator: Adobe Illustrator 19.0.0, SVG Export Plug-In . SVG Version: 6.00 Build 0)  -->
<svg version="1.1" id="Layer_1" xmlns="http://www.w3.org/2000/svg" xmlns:xlink="http://www.w3.org/1999/xlink" x="0px" y="0px"
	 viewBox="0 0 170 170" style="enable-background:new 0 0 170 170;" xml:space="preserve">
<style type="text/css">
	.st0{fill:#5A5B61;}
</style>
<g>
	<path class="st0" d="M162.6,22.2v33.6H5.6V22.2H162.6z M162.6,67v33.6H5.6V67H162.6z M162.6,111.9v33.6H5.6v-33.6H162.6z
		 M16.9,44.6h89.7V33.4H16.9V44.6z M16.9,89.4h89.7V78.2H16.9V89.4z M16.9,134.3h89.7v-11.2H16.9V134.3z M151.8,44.9
		c1.6-1.6,2.5-3.6,2.5-6c0-2.3-0.8-4.3-2.5-6c-1.6-1.6-3.6-2.5-6-2.5s-4.3,0.8-6,2.5c-1.6,1.6-2.5,3.6-2.5,6c0,2.3,0.8,4.3,2.5,6
		c1.6,1.6,3.6,2.5,6,2.5S150.1,46.6,151.8,44.9z M151.8,89.8c1.6-1.6,2.5-3.6,2.5-6c0-2.3-0.8-4.3-2.5-6c-1.6-1.6-3.6-2.5-6-2.5
		s-4.3,0.8-6,2.5c-1.6,1.6-2.5,3.6-2.5,6c0,2.3,0.8,4.3,2.5,6c1.6,1.6,3.6,2.5,6,2.5S150.1,91.4,151.8,89.8z M151.8,134.7
		c1.6-1.6,2.5-3.6,2.5-6c0-2.3-0.8-4.3-2.5-6c-1.6-1.6-3.6-2.5-6-2.5s-4.3,0.8-6,2.5c-1.6,1.6-2.5,3.6-2.5,6c0,2.3,0.8,4.3,2.5,6
		c1.6,1.6,3.6,2.5,6,2.5S150.1,136.3,151.8,134.7z"/>
</g>
</svg>
