<?xml version="1.0" encoding="iso-8859-1"?>
<!-- Generator: Adobe Illustrator 17.0.0, SVG Export Plug-In . SVG Version: 6.00 Build 0)  -->
<!DOCTYPE svg PUBLIC "-//W3C//DTD SVG 1.1//EN" "http://www.w3.org/Graphics/SVG/1.1/DTD/svg11.dtd">
<svg version="1.1" id="Layer_1" xmlns="http://www.w3.org/2000/svg" xmlns:xlink="http://www.w3.org/1999/xlink" x="0px" y="0px"
	 width="32px" height="32px" viewBox="0 0 32 32" style="enable-background:new 0 0 32 32;" xml:space="preserve">
<g id="xdEhD1.tif">
	<g>
		<g>
			<path style="fill:#FFFFFF;" d="M15.983,32c-4.281-0.008-8.3-1.676-11.317-4.7C1.649,24.278-0.008,20.259,0,15.983
				C0.018,7.17,7.187,0,15.984,0C24.846,0.018,32.016,7.203,32,16.018C31.984,24.83,24.812,32,16.01,32H15.983z M15.975,2.929
				c-7.169,0-13.021,5.856-13.045,13.053c-0.012,3.462,1.346,6.736,3.824,9.22c2.477,2.483,5.754,3.857,9.229,3.868
				c7.211,0.001,13.063-5.855,13.087-13.053c0.012-3.461-1.346-6.735-3.824-9.219c-2.477-2.484-5.754-3.857-9.229-3.869H15.975z"/>
		</g>
		<path style="fill:#FFFFFF;" d="M26.658,9.98c-0.672,0.505-1.347,1.013-2.022,1.52c-2.013,1.512-4.025,3.026-6.043,4.533
			c-0.205,0.153-0.338,0.319-0.41,0.574c-0.286,1.02-1.2,1.703-2.207,1.678c-1.056-0.026-1.942-0.714-2.187-1.751
			c-0.194-0.817,0.008-1.56,0.611-2.153c0.602-0.592,1.341-0.784,2.159-0.577c0.236,0.059,0.425,0.043,0.642-0.05
			c3.029-1.3,6.06-2.593,9.091-3.889C26.439,9.802,26.591,9.697,26.658,9.98z"/>
		<path style="fill:#FFFFFF;" d="M17.027,5.895c-0.02,0.271-0.017,0.552-0.068,0.823c-0.082,0.435-0.521,0.778-0.942,0.776
			c-0.481-0.002-0.925-0.333-0.969-0.808c-0.049-0.529-0.058-1.068-0.015-1.596c0.042-0.504,0.495-0.862,0.965-0.852
			c0.502,0.01,0.884,0.336,0.966,0.852C17.007,5.352,17.007,5.621,17.027,5.895z"/>
		<path style="fill:#FFFFFF;" d="M5.876,14.976c0.265,0.017,0.535,0.013,0.797,0.057c0.475,0.079,0.835,0.52,0.821,0.967
			c-0.016,0.491-0.337,0.907-0.823,0.955c-0.507,0.05-1.025,0.061-1.533,0.021c-0.528-0.041-0.899-0.479-0.899-0.96
			c-0.001-0.508,0.334-0.899,0.87-0.984C5.359,14.992,5.617,14.993,5.876,14.976z"/>
		<path style="fill:#FFFFFF;" d="M26.124,17.024c-0.265-0.017-0.535-0.013-0.796-0.057c-0.475-0.079-0.835-0.52-0.821-0.967
			c0.016-0.491,0.337-0.907,0.824-0.955c0.507-0.05,1.025-0.061,1.533-0.021c0.528,0.041,0.899,0.479,0.899,0.96
			c0.001,0.508-0.334,0.898-0.87,0.984C26.641,17.008,26.383,17.007,26.124,17.024z"/>
		<path style="fill:#FFFFFF;" d="M22.368,6.734c-0.006,0.029-0.007,0.155-0.06,0.253c-0.258,0.478-0.5,0.969-0.806,1.416
			c-0.256,0.374-0.829,0.456-1.215,0.246c-0.427-0.233-0.66-0.755-0.455-1.203c0.225-0.493,0.504-0.967,0.809-1.415
			c0.23-0.338,0.701-0.419,1.104-0.273C22.106,5.889,22.354,6.243,22.368,6.734z"/>
		<path style="fill:#FFFFFF;" d="M7.705,12.242c-0.015-0.003-0.073-0.001-0.118-0.025c-0.533-0.29-1.088-0.548-1.586-0.888
			c-0.355-0.242-0.402-0.838-0.19-1.2c0.241-0.41,0.721-0.63,1.153-0.437c0.504,0.225,0.989,0.504,1.448,0.812
			c0.339,0.228,0.424,0.704,0.282,1.099C8.56,11.977,8.178,12.233,7.705,12.242z"/>
		<path style="fill:#FFFFFF;" d="M25.261,22.368c-0.03-0.007-0.156-0.008-0.254-0.061c-0.478-0.259-0.969-0.501-1.415-0.807
			c-0.372-0.255-0.45-0.835-0.239-1.216c0.237-0.427,0.755-0.653,1.206-0.448c0.483,0.22,0.948,0.493,1.389,0.79
			c0.354,0.238,0.445,0.711,0.292,1.126C26.108,22.109,25.751,22.355,25.261,22.368z"/>
		<path style="fill:#FFFFFF;" d="M11.227,8.748c-0.409,0.006-0.682-0.218-0.882-0.543c-0.202-0.327-0.396-0.66-0.576-0.999
			c-0.267-0.503-0.132-1.081,0.303-1.362c0.436-0.282,1.031-0.183,1.358,0.284c0.28,0.4,0.539,0.827,0.732,1.274
			C12.449,8.066,11.94,8.766,11.227,8.748z"/>
		<path style="fill:#FFFFFF;" d="M6.84,22.364c-0.583,0.003-0.923-0.227-1.076-0.617c-0.15-0.385-0.079-0.841,0.249-1.074
			c0.442-0.313,0.909-0.6,1.396-0.837c0.431-0.21,0.967-0.001,1.205,0.392c0.252,0.416,0.185,0.972-0.216,1.269
			C7.88,21.882,7.341,22.25,6.84,22.364z"/>
	</g>
</g>
</svg>
