<?xml version="1.0" encoding="iso-8859-1"?>
<!-- Generator: Adobe Illustrator 17.0.0, SVG Export Plug-In . SVG Version: 6.00 Build 0)  -->
<!DOCTYPE svg PUBLIC "-//W3C//DTD SVG 1.1//EN" "http://www.w3.org/Graphics/SVG/1.1/DTD/svg11.dtd">
<svg version="1.1" id="Layer_1" xmlns="http://www.w3.org/2000/svg" xmlns:xlink="http://www.w3.org/1999/xlink" x="0px" y="0px"
	 width="32px" height="32px" viewBox="0 0 32 32" style="enable-background:new 0 0 32 32;" xml:space="preserve">
<g id="_x38_ELw6c_1_">
	<g>
		<path style="fill:#FFFFFF;" d="M0,9.499c0.041-0.104,0.083-0.207,0.124-0.311c0.306-0.765,0.87-1.26,1.685-1.292
			C3.19,7.842,4.575,7.881,5.98,7.881c0,6.992,0,13.972,0,20.979c-0.098,0.005-0.198,0.014-0.298,0.014
			c-1.177,0.001-2.353,0.001-3.53,0.001c-1.09-0.001-1.769-0.504-2.1-1.552C0.044,27.294,0.018,27.273,0,27.249
			C0,21.332,0,15.416,0,9.499z"/>
		<path style="fill:#FFFFFF;" d="M32,27.249c-0.044,0.114-0.086,0.228-0.133,0.34c-0.316,0.743-0.875,1.233-1.676,1.264
			c-1.381,0.054-2.766,0.015-4.17,0.015c0-6.994,0-13.973,0-20.996c0.12,0,0.241,0,0.362,0c1.145,0,2.291,0.002,3.436,0.001
			c1.116-0.001,1.794,0.492,2.13,1.553C31.956,9.454,31.982,9.475,32,9.499C32,15.416,32,21.332,32,27.249z"/>
		<path style="fill:#FFFFFF;" d="M20.749,7.874c1.431,0,2.822,0,4.233,0c0,7.003,0,13.984,0,20.983c-5.989,0-11.97,0-17.967,0
			c0-6.986,0-13.959,0-20.968c1.394,0,2.792,0,4.235,0c0-0.145,0-0.254,0-0.364c0-0.719-0.008-1.437,0.001-2.155
			c0.016-1.256,0.991-2.236,2.249-2.244c1.676-0.011,3.353-0.01,5.029,0c1.215,0.007,2.201,0.992,2.218,2.208
			C20.759,6.166,20.749,6.998,20.749,7.874z M19.245,7.868c0-0.879,0.016-1.73-0.007-2.58c-0.01-0.391-0.353-0.662-0.772-0.663
			c-1.634-0.004-3.268-0.004-4.902,0c-0.509,0.001-0.809,0.308-0.813,0.821c-0.004,0.645-0.001,1.291-0.001,1.936
			c0,0.161,0,0.322,0,0.486C14.934,7.868,17.067,7.868,19.245,7.868z"/>
	</g>
</g>
</svg>
