<?xml version="1.0" encoding="iso-8859-1"?>
<!-- Generator: Adobe Illustrator 17.0.0, SVG Export Plug-In . SVG Version: 6.00 Build 0)  -->
<!DOCTYPE svg PUBLIC "-//W3C//DTD SVG 1.1//EN" "http://www.w3.org/Graphics/SVG/1.1/DTD/svg11.dtd">
<svg version="1.1" id="Layer_1" xmlns="http://www.w3.org/2000/svg" xmlns:xlink="http://www.w3.org/1999/xlink" x="0px" y="0px"
	 width="48px" height="48px" viewBox="0 0 48 48" style="enable-background:new 0 0 48 48;" xml:space="preserve">
<g id="eP0hGU_2_">
	<g>
		<path style="fill:#B4B4B4;" d="M23.989,43.596c-3.215,0-6.431,0.002-9.647-0.001c-1.181-0.001-2.305-0.231-3.318-0.869
			c-1.504-0.947-2.296-2.353-2.387-4.093c-0.145-2.766,0.144-5.495,1.07-8.125c0.462-1.314,1.127-2.524,2.157-3.49
			c1.197-1.123,2.65-1.603,4.271-1.589c0.203,0.002,0.423,0.124,0.607,0.237c0.556,0.342,1.103,0.7,1.647,1.061
			c3.421,2.277,7.766,2.281,11.198,0.008c0.5-0.331,1.016-0.641,1.505-0.99c0.455-0.325,0.945-0.36,1.472-0.304
			c2.313,0.248,3.923,1.491,5.014,3.494c0.777,1.425,1.191,2.962,1.465,4.547c0.294,1.699,0.415,3.409,0.312,5.129
			c-0.157,2.589-1.986,4.542-4.555,4.891c-0.427,0.058-0.861,0.087-1.291,0.088C30.335,43.6,27.162,43.596,23.989,43.596z"/>
		<path style="fill:#B4B4B4;" d="M32.386,18.598c-0.031,4.505-3.946,8.385-8.718,8.206c-4.443-0.166-8.112-3.92-8.081-8.446
			c0.034-4.788,4.051-8.489,8.637-8.365C28.856,10.118,32.558,14.085,32.386,18.598z"/>
		<path style="fill:#B4B4B4;" d="M15.913,23.943c-0.671,0.122-1.318,0.201-1.944,0.361c-1.462,0.376-2.652,1.203-3.66,2.311
			c-0.076,0.083-0.203,0.172-0.306,0.171c-1.19-0.005-2.384,0.018-3.57-0.056c-0.989-0.062-1.88-0.45-2.601-1.157
			c-0.522-0.511-0.798-1.158-0.816-1.869C2.966,21.657,3.02,19.61,3.65,17.638c0.162-0.509,0.46-0.992,0.779-1.426
			c0.177-0.242,0.513-0.385,0.802-0.525c0.278-0.135,0.561-0.064,0.847,0.067c1.032,0.471,2.052,0.984,3.12,1.358
			c1.516,0.531,3.068,0.441,4.603,0.004c0.132-0.037,0.263-0.073,0.396-0.105c0.016-0.004,0.037,0.014,0.083,0.033
			C13.946,19.545,14.504,21.855,15.913,23.943z"/>
		<path style="fill:#B4B4B4;" d="M32.06,23.963c1.435-2.115,1.975-4.43,1.645-6.977c0.379,0.099,0.7,0.192,1.026,0.267
			c1.73,0.399,3.411,0.223,5.036-0.473c0.695-0.298,1.383-0.619,2.048-0.98c0.558-0.302,1.035-0.185,1.494,0.159
			c0.556,0.416,0.824,1.028,1.037,1.661c0.355,1.056,0.491,2.153,0.567,3.257c0.049,0.714,0.042,1.431,0.08,2.146
			c0.117,2.193-1.185,3.267-3.012,3.641c-0.592,0.121-1.213,0.109-1.822,0.127c-0.684,0.02-1.37,0.015-2.054-0.004
			c-0.147-0.004-0.331-0.077-0.428-0.183c-1.113-1.211-2.438-2.064-4.061-2.405C33.124,24.095,32.621,24.047,32.06,23.963z"/>
		<path style="fill:#B4B4B4;" d="M31.01,9.962c0.025-3.114,2.5-5.567,5.608-5.559c3.155,0.008,5.611,2.527,5.579,5.721
			c-0.03,2.99-2.577,5.487-5.582,5.474C33.476,15.583,30.984,13.078,31.01,9.962z"/>
		<path style="fill:#B4B4B4;" d="M11.399,4.404c3.142,0.028,5.612,2.554,5.59,5.649c-0.021,2.966-2.478,5.553-5.613,5.543
			c-3.157-0.011-5.602-2.594-5.586-5.564C5.808,6.86,8.301,4.376,11.399,4.404z"/>
	</g>
</g>
</svg>
