<?xml version="1.0" encoding="iso-8859-1"?>
<!-- Generator: Adobe Illustrator 17.0.0, SVG Export Plug-In . SVG Version: 6.00 Build 0)  -->
<!DOCTYPE svg PUBLIC "-//W3C//DTD SVG 1.1//EN" "http://www.w3.org/Graphics/SVG/1.1/DTD/svg11.dtd">
<svg version="1.1" id="Layer_1" xmlns="http://www.w3.org/2000/svg" xmlns:xlink="http://www.w3.org/1999/xlink" x="0px" y="0px"
	 width="48px" height="48px" viewBox="0 0 48 48" style="enable-background:new 0 0 48 48;" xml:space="preserve">
<g id="g8H84R.tif_2_">
	<g>
		<g>
			<path style="fill:#B3B4B5;" d="M8.502,46.53c-0.061-0.029-0.12-0.069-0.184-0.084c-2.083-0.502-3.328-2.057-3.329-4.197
				c-0.004-9.449-0.001-11.052,0-20.501c0-3.202-0.017-6.403,0.009-9.604C5.014,9.907,6.813,8.128,9.05,8.087
				c0.98-0.018,1.962-0.005,2.943-0.005c0.498,0,0.996,0,1.523,0c0.046-0.209,0.083-0.404,0.133-0.597
				c0.277-1.085,1.194-1.834,2.31-1.879c0.379-0.015,0.757-0.011,1.136-0.003c0.992,0.02,1.704-0.418,2.187-1.277
				c0.286-0.508,0.572-1.024,0.927-1.484c0.565-0.734,1.4-1.071,2.245-1.373c1.033,0,2.067,0,3.1,0
				c0.155,0.063,0.309,0.131,0.466,0.188c0.959,0.34,1.726,0.911,2.223,1.817c0.191,0.347,0.378,0.696,0.586,1.031
				c0.43,0.69,1.055,1.066,1.875,1.094c0.292,0.011,0.586,0.003,0.878,0.004c1.731,0.001,2.601,0.732,2.9,2.48
				c1.468,0,2.945-0.015,4.422,0.005c1.463,0.02,2.613,0.658,3.433,1.869c0.455,0.672,0.679,1.424,0.679,2.238
				c0.001,12.685,0.004,17.523-0.002,30.209c-0.001,1.929-1.305,3.554-3.173,4.019c-0.114,0.029-0.224,0.073-0.337,0.109
				C29.169,46.53,18.836,46.53,8.502,46.53z M13.564,9.736c-1.473,0-2.867-0.002-4.261,0.001c-1.616,0.003-2.659,1.034-2.659,2.639
				c-0.002,12.52-0.002,17.191,0.001,29.71c0,1.829,0.977,2.791,2.817,2.791c9.712,0,19.424,0,29.136,0
				c1.779,0,2.766-0.998,2.766-2.795c0-6.785,0-5.722,0-12.507c0-5.752,0.002-11.503-0.002-17.255
				c-0.001-1.517-1.053-2.569-2.56-2.582c-0.517-0.004-1.033-0.003-1.55-0.003c-0.924,0-1.848,0-2.813,0c0,0.3,0.003,0.539,0,0.776
				c-0.02,1.45-1.069,2.511-2.511,2.529c-0.792,0.01-1.584,0.003-2.377,0.003c-4.46,0-8.92,0.003-13.38-0.003
				c-1.549-0.002-2.591-1.047-2.608-2.59C13.562,10.232,13.564,10.011,13.564,9.736z M23.971,11.389
				c2.599,0,5.199,0.002,7.798-0.001c0.712-0.001,1.01-0.296,1.016-0.995c0.006-0.723,0.007-1.446-0.001-2.169
				c-0.007-0.666-0.312-0.955-0.991-0.969c-0.567-0.012-1.145,0.034-1.698-0.062c-1.474-0.259-2.45-1.177-3.066-2.504
				c-0.523-1.128-1.392-1.522-2.632-1.602c-1.81-0.117-3.032,0.446-3.768,2.167c-0.456,1.067-1.427,1.674-2.561,1.897
				c-0.616,0.121-1.265,0.083-1.899,0.104c-0.639,0.022-0.943,0.315-0.949,0.958c-0.006,0.688-0.004,1.377-0.001,2.066
				c0.004,0.849,0.267,1.111,1.108,1.111C18.876,11.389,21.423,11.389,23.971,11.389z"/>
			<path style="fill:#B3B4B5;" d="M39.579,47L8.303,46.956l0.068-0.492l-0.187,0.431c-2.286-0.548-3.665-2.289-3.666-4.646
				L4.518,28.902l0.001-7.154l-0.003-2.837c-0.003-2.257-0.007-4.514,0.011-6.771c0.02-2.49,2.003-4.476,4.514-4.522
				c0.401-0.008,0.801-0.01,1.202-0.01l2.893,0.004c0.018-0.082,0.036-0.163,0.058-0.243c0.327-1.283,1.431-2.179,2.747-2.231
				c0.385-0.016,0.775-0.011,1.163-0.003c0.818-0.01,1.37-0.33,1.768-1.038c0.307-0.545,0.599-1.066,0.964-1.541
				c0.638-0.828,1.564-1.208,2.459-1.529L22.452,1l3.277,0.035l0.15,0.062c0.098,0.041,0.196,0.082,0.296,0.118
				c1.122,0.398,1.955,1.082,2.478,2.034l0.08,0.145c0.158,0.29,0.318,0.582,0.495,0.862c0.352,0.565,0.84,0.852,1.492,0.875
				c0.118,0.004,0.237,0.005,0.355,0.005l0.507-0.002c1.825,0.001,2.876,0.792,3.282,2.479l2.323-0.005
				c0.574,0,1.148,0.002,1.723,0.011c1.614,0.022,2.897,0.72,3.816,2.075c0.503,0.744,0.759,1.585,0.76,2.5l0.001,7.249
				c0.001,7.879,0.001,13.001-0.004,22.96c0,2.118-1.451,3.958-3.529,4.474c-0.062,0.015-0.123,0.037-0.183,0.058L39.579,47z
				 M8.616,46.061l30.841-0.011c0.089-0.032,0.179-0.062,0.27-0.085c1.684-0.419,2.817-1.851,2.817-3.563
				c0.005-9.959,0.005-15.081,0.004-22.96l-0.001-7.248c-0.001-0.724-0.202-1.389-0.599-1.974c-0.747-1.1-1.744-1.644-3.051-1.663
				c-0.57-0.008-1.14-0.011-1.71-0.011l-3.102,0.006l-0.067-0.391c-0.26-1.523-0.92-2.089-2.436-2.09l-0.507,0.002
				c-0.129,0-0.259-0.001-0.388-0.006c-0.962-0.035-1.741-0.489-2.256-1.316c-0.184-0.295-0.353-0.602-0.52-0.908L27.83,3.7
				c-0.413-0.755-1.058-1.279-1.968-1.601c-0.116-0.041-0.231-0.089-0.345-0.137L25.46,1.937h-2.926
				c-0.767,0.276-1.487,0.583-1.955,1.19c-0.324,0.421-0.6,0.911-0.866,1.386c-0.589,1.048-1.44,1.559-2.553,1.559
				c-0.515-0.009-0.815-0.012-1.184,0.001c-0.911,0.036-1.646,0.634-1.874,1.526c-0.032,0.124-0.057,0.248-0.085,0.379l-0.126,0.574
				l-3.649-0.004c-0.395,0-0.79,0.002-1.184,0.01c-1.998,0.036-3.576,1.614-3.592,3.591c-0.018,2.254-0.014,4.508-0.011,6.762
				l0.003,2.839l-0.001,7.155L5.458,42.25c0.001,1.923,1.083,3.287,2.97,3.74C8.504,46.008,8.566,46.036,8.616,46.061z
				 M24.03,45.347L9.461,45.346c-2.088,0-3.286-1.188-3.287-3.26V12.376c0-1.856,1.257-3.106,3.128-3.109l1.575-0.001h3.157v1.179
				c0.013,1.29,0.853,2.125,2.138,2.126l10.035,0.003h3.345l1.371,0.002c0.333,0,0.666-0.001,0.999-0.006
				c1.19-0.014,2.033-0.864,2.048-2.065l0.002-0.502L33.97,9.265l4.835,0.003c1.78,0.015,3.024,1.27,3.026,3.05l0.002,29.762
				c-0.001,2.044-1.21,3.265-3.235,3.265L24.03,45.347z M10.876,10.205l-1.572,0.002c-1.351,0.003-2.191,0.835-2.191,2.171
				l0.001,29.709c0,1.562,0.769,2.321,2.348,2.321l14.569,0.001l14.568-0.001c1.523,0,2.295-0.783,2.296-2.326l-0.002-29.761
				c-0.002-1.253-0.843-2.103-2.095-2.113l-0.817-0.003h-0.729H34.91c0,0.108,0,0.212-0.002,0.314
				c-0.023,1.712-1.274,2.97-2.975,2.991c-0.336,0.004-0.674,0.006-1.01,0.006l-1.371-0.002h-6.69l-6.691-0.003
				c-1.793-0.002-3.057-1.258-3.076-3.055v-0.25L10.876,10.205z M28.135,11.86H16.328c-1.1,0-1.573-0.472-1.576-1.578
				c-0.003-0.69-0.005-1.381,0.001-2.072c0.009-0.887,0.507-1.392,1.402-1.423c0.176-0.006,0.354-0.008,0.531-0.01
				c0.456-0.004,0.887-0.008,1.294-0.087c0.76-0.149,1.761-0.551,2.219-1.621c0.779-1.822,2.122-2.584,4.23-2.45
				c1.035,0.066,2.314,0.339,3.026,1.873c0.6,1.291,1.49,2.024,2.722,2.24c0.281,0.05,0.573,0.057,0.846,0.057l0.55-0.004
				l0.231,0.002c1.186,0.026,1.443,0.793,1.45,1.434c0.008,0.725,0.006,1.452,0.001,2.177c-0.008,0.955-0.52,1.46-1.485,1.461
				L28.135,11.86z M18.876,10.921l12.893-0.001c0.452,0,0.543-0.089,0.547-0.529c0.005-0.72,0.007-1.44-0.001-2.161
				c-0.005-0.382-0.074-0.495-0.532-0.505l-0.211-0.002l-0.55,0.004c-0.301,0-0.655-0.009-1.008-0.07
				c-1.534-0.269-2.682-1.201-3.411-2.77c-0.409-0.881-1.036-1.253-2.236-1.331c-1.681-0.11-2.686,0.432-3.307,1.882
				c-0.483,1.129-1.513,1.9-2.901,2.173c-0.492,0.096-0.987,0.101-1.466,0.105c-0.169,0.001-0.338,0.003-0.507,0.009
				c-0.395,0.013-0.492,0.11-0.495,0.494c-0.006,0.686-0.004,1.373-0.001,2.059c0.003,0.59,0.057,0.644,0.638,0.644L18.876,10.921
				L18.876,10.921z"/>
		</g>
		<g>
			<path style="fill:#B3B4B5;" d="M28.569,19.657c-2.288,0-4.576,0.011-6.865-0.014c-0.278-0.003-0.648-0.125-0.804-0.325
				c-0.152-0.195-0.207-0.64-0.082-0.832c0.154-0.238,0.532-0.454,0.819-0.462c1.581-0.044,3.164-0.022,4.748-0.022
				c2.994,0,5.987,0,8.981,0.002c0.593,0,0.931,0.224,1.021,0.663c0.112,0.546-0.299,0.985-0.954,0.987
				C33.146,19.66,30.858,19.657,28.569,19.657z"/>
		</g>
		<g>
			<path style="fill:#B3B4B5;" d="M28.551,26.27c-2.288,0-4.576-0.004-6.865,0.004c-0.465,0.002-0.815-0.152-0.959-0.612
				c-0.174-0.555,0.256-1.04,0.93-1.042c2.185-0.007,4.37-0.004,6.555-0.004c2.408,0,4.817,0.004,7.226-0.001
				c0.419-0.001,0.803,0.121,0.884,0.542c0.053,0.275-0.041,0.653-0.213,0.872c-0.133,0.171-0.488,0.23-0.745,0.232
				C33.093,26.277,30.822,26.27,28.551,26.27z"/>
		</g>
		<g>
			<path style="fill:#B3B4B5;" d="M28.497,32.886c-2.271,0-4.542-0.004-6.813,0.003c-0.49,0.002-0.845-0.175-0.97-0.666
				c-0.137-0.54,0.293-0.991,0.942-0.992c2.047-0.005,4.095-0.002,6.142-0.002c2.546,0,5.093,0.005,7.639-0.001
				c0.447-0.001,0.832,0.149,0.901,0.591c0.043,0.272-0.09,0.637-0.269,0.859c-0.127,0.157-0.464,0.196-0.707,0.198
				C33.074,32.89,30.786,32.885,28.497,32.886C28.497,32.885,28.497,32.885,28.497,32.886z"/>
		</g>
		<g>
			<path style="fill:#B3B4B5;" d="M14.046,19.376c0.953-0.963,1.801-1.817,2.644-2.675c0.321-0.327,0.678-0.476,1.109-0.236
				c0.472,0.264,0.578,0.866,0.176,1.279c-1.09,1.123-2.199,2.227-3.318,3.322c-0.36,0.353-0.787,0.346-1.155-0.002
				c-0.574-0.543-1.135-1.103-1.675-1.68c-0.322-0.343-0.298-0.803,0-1.119c0.311-0.331,0.797-0.368,1.156-0.033
				C13.343,18.568,13.66,18.955,14.046,19.376z"/>
		</g>
		<g>
			<path style="fill:#B3B4B5;" d="M14.062,25.979c0.886-0.899,1.683-1.707,2.48-2.514c0.097-0.098,0.19-0.2,0.296-0.287
				c0.366-0.297,0.805-0.286,1.121,0.02c0.314,0.304,0.374,0.786,0.054,1.115c-1.114,1.148-2.245,2.278-3.39,3.395
				c-0.325,0.318-0.742,0.313-1.074,0.005c-0.591-0.55-1.163-1.123-1.716-1.712c-0.337-0.359-0.302-0.842,0.029-1.156
				c0.328-0.311,0.793-0.319,1.159,0.027C13.367,25.202,13.679,25.569,14.062,25.979z"/>
		</g>
		<g>
			<path style="fill:#B3B4B5;" d="M14.043,32.575c0.929-0.93,1.764-1.793,2.636-2.618c0.203-0.193,0.546-0.372,0.798-0.341
				c0.247,0.03,0.589,0.299,0.656,0.53c0.073,0.255-0.033,0.668-0.217,0.869c-0.765,0.837-1.589,1.62-2.392,2.423
				c-0.28,0.28-0.549,0.57-0.841,0.837c-0.395,0.36-0.811,0.37-1.196,0.004c-0.561-0.533-1.11-1.08-1.641-1.642
				c-0.34-0.36-0.322-0.836-0.003-1.159c0.319-0.324,0.797-0.347,1.158-0.01C13.351,31.797,13.662,32.167,14.043,32.575z"/>
		</g>
		<g>
			<path style="fill:#B3B4B5;" d="M25.242,6.916c-0.041,0.679-0.65,1.214-1.326,1.166c-0.679-0.048-1.203-0.657-1.149-1.338
				c0.052-0.661,0.63-1.168,1.297-1.139C24.741,5.635,25.283,6.237,25.242,6.916z"/>
		</g>
	</g>
</g>
</svg>
