<?xml version="1.0" encoding="utf-8"?>
<!-- Generator: Adobe Illustrator 19.0.0, SVG Export Plug-In . SVG Version: 6.00 Build 0)  -->
<svg version="1.1" id="Layer_1" xmlns="http://www.w3.org/2000/svg" xmlns:xlink="http://www.w3.org/1999/xlink" x="0px" y="0px"
	 viewBox="0 0 170 170" style="enable-background:new 0 0 170 170;" xml:space="preserve">
<style type="text/css">
	.st0{fill:none;stroke:#5A5B61;stroke-width:8;stroke-linejoin:bevel;stroke-miterlimit:10;}
	.st1{fill:#5A5B61;stroke:#5A5B61;stroke-width:4;stroke-linejoin:round;stroke-miterlimit:10;}
</style>
<g>
	<path class="st0" d="M130.4,52.8c1.1,0.4,2.2,0.8,3.3,1.3c17.8,7.4,30.1,23.2,30.1,41.4c0,13.6-6.9,25.9-17.8,34.3l9.6,27.4
		L127.9,139c-5.5,1.6-11.3,2.5-17.4,2.5c-17.6,0-33.1-7.3-42.8-18.6c-0.4-0.4-0.8-0.9-1.1-1.3"/>
	<path class="st0" d="M70.1,11.2C34.6,11.2,5.9,36,5.9,66.6c0,16.4,8.3,31.2,21.4,41.3l-11.5,33L49.1,119c6.6,2,13.6,3,21,3
		c35.5,0,64.2-24.8,64.2-55.4S105.6,11.2,70.1,11.2z"/>
	<circle class="st1" cx="41.1" cy="67.2" r="6"/>
	<circle class="st1" cx="68.3" cy="67.2" r="6"/>
	<circle class="st1" cx="95.5" cy="67.2" r="6"/>
</g>
</svg>
