<?xml version="1.0" encoding="iso-8859-1"?>
<!-- Generator: Adobe Illustrator 17.0.0, SVG Export Plug-In . SVG Version: 6.00 Build 0)  -->
<!DOCTYPE svg PUBLIC "-//W3C//DTD SVG 1.1//EN" "http://www.w3.org/Graphics/SVG/1.1/DTD/svg11.dtd">
<svg version="1.1" id="Layer_1" xmlns="http://www.w3.org/2000/svg" xmlns:xlink="http://www.w3.org/1999/xlink" x="0px" y="0px"
	 width="48px" height="48px" viewBox="0 0 48 48" style="enable-background:new 0 0 48 48;" xml:space="preserve">
<g id="_x38_lzLR4.tif_1_">
	<g>
		<path style="fill:#B3B4B5;" d="M35.975,29.953c-3.356,0-6.645,0-10.02,0c0,0.525-0.017,1.04,0.006,1.554
			c0.015,0.334-0.101,0.442-0.434,0.437c-0.309-0.005-0.472-0.065-0.456-0.418c0.023-0.503,0.006-1.008,0.006-1.551
			c-3.029,0-6.025,0-9.093,0c0,0.835-0.025,1.668,0.01,2.499c0.018,0.423-0.1,0.58-0.533,0.627
			c-0.444,0.047-0.875,0.219-1.401,0.359c0-0.26,0-0.473,0-0.686c0.002-1.44-0.008-2.881,0.013-4.321
			c0.006-0.383-0.091-0.515-0.498-0.514c-4.352,0.012-8.705-0.002-13.057,0.013c-0.439,0.002-0.516-0.142-0.516-0.543
			C0.014,18.798,0.015,10.188,0,1.578C-0.001,1.12,0.147,1.036,0.566,1.036C11.233,1.046,21.9,1.042,32.567,1.041
			c0.285,0,0.573,0.031,0.854-0.001c0.437-0.05,0.527,0.141,0.525,0.542c-0.015,3.324-0.013,6.647-0.012,9.971
			c0,0.68,0.035,1.36,0.023,2.04c-0.007,0.382,0.149,0.471,0.509,0.47c4.321-0.011,8.641,0.001,12.962-0.017
			c0.466-0.002,0.57,0.137,0.57,0.584C47.985,23.209,47.983,31.788,48,40.366c0.001,0.492-0.13,0.599-0.607,0.597
			c-4.257-0.018-8.515-0.014-12.772,0.002c-0.408,0.001-0.578-0.092-0.544-0.524c0.022-0.279-0.036-0.566-0.078-0.847
			c-0.061-0.409,0.085-0.592,0.513-0.559c0.394,0.03,0.79,0.024,1.186,0.033c0.271,0.006,0.394-0.108,0.393-0.398
			c-0.009-1.804,0.003-3.608-0.01-5.412c-0.006-0.915-0.049-1.829-0.077-2.744C35.998,30.343,35.986,30.173,35.975,29.953z
			 M11.929,10.989c3.374,0,6.715,0,10.083,0c0-1.378,0-2.727,0-4.101c-3.372,0-6.713,0-10.083,0
			C11.929,8.254,11.929,9.592,11.929,10.989z M25.985,23.999c3.341,0,6.65,0,9.988,0c0-1.378,0-2.726,0-4.102
			c-3.34,0-6.649,0-9.988,0C25.985,21.263,25.985,22.601,25.985,23.999z M35.975,25.041c-3.349,0-6.67,0-9.99,0
			c0,1.35,0,2.656,0,3.977c3.35,0,6.67,0,9.99,0C35.975,27.667,35.975,26.362,35.975,25.041z M1.965,6.887c0,1.4,0,2.738,0,4.095
			c3.03,0,6.024,0,9.024,0c0-1.386,0-2.735,0-4.095C7.968,6.887,4.985,6.887,1.965,6.887z M31.984,10.99c0-1.401,0-2.739,0-4.093
			c-3.026,0-6.02,0-9.025,0c0,1.388,0,2.737,0,4.093C25.985,10.99,28.968,10.99,31.984,10.99z M16.013,23.992
			c3.023,0,6.017,0,9.026,0c0-1.385,0-2.733,0-4.08c-3.038,0-6.031,0-9.026,0C16.013,21.294,16.013,22.632,16.013,23.992z
			 M46.041,19.898c-3.046,0-6.029,0-9.037,0c0,1.379,0,2.728,0,4.092c3.026,0,6.021,0,9.037,0
			C46.041,22.615,46.041,21.278,46.041,19.898z M37.001,34.995c0,1.367,0,2.674,0,4.001c3.024,0,6.017,0,9.025,0
			c0-1.354,0-2.67,0-4.001C42.999,34.995,40.017,34.995,37.001,34.995z M37.001,29.964c0,1.366,0,2.672,0,3.991
			c3.034,0,6.038,0,9.04,0c0-1.351,0-2.657,0-3.991C43.018,29.964,40.025,29.964,37.001,29.964z M37.008,25.025c0,1.368,0,2.673,0,4
			c3.03,0,6.024,0,9.024,0c0-1.354,0-2.672,0-4C43.011,25.025,40.028,25.025,37.008,25.025z M16.014,29.032c3.046,0,6.029,0,9.037,0
			c0-1.347,0-2.665,0-3.996c-3.026,0-6.02,0-9.037,0C16.014,26.38,16.014,27.685,16.014,29.032z M1.96,25.992
			c3.047,0,6.029,0,9.035,0c0-1.348,0-2.666,0-3.995c-3.027,0-6.021,0-9.035,0C1.96,23.343,1.96,24.648,1.96,25.992z M10.997,16.955
			c-3.047,0-6.029,0-9.036,0c0,1.348,0,2.666,0,3.995c3.027,0,6.02,0,9.036,0C10.997,19.605,10.997,18.3,10.997,16.955z
			 M10.999,12.031c-3.033,0-6.038,0-9.04,0c0,1.351,0,2.656,0,3.976c3.034,0,6.038,0,9.04,0
			C10.999,14.656,10.999,13.35,10.999,12.031z M11.931,16.013c0.737,0,1.409,0,2.135,0c0-0.508,0.022-0.981-0.007-1.45
			c-0.024-0.384,0.088-0.522,0.496-0.515c1.502,0.023,3.005,0.009,4.507,0.009c0.975,0,1.95,0,2.947,0c0-0.715,0-1.368,0-2.03
			c-3.376,0-6.717,0-10.078,0C11.931,13.372,11.931,14.677,11.931,16.013z M22.947,12.015c0,0.704,0,1.345,0,1.997
			c3.034,0,6.038,0,9.038,0c0-0.687,0-1.329,0-1.997C28.962,12.015,25.97,12.015,22.947,12.015z M14.038,21.987
			c-0.735,0-1.408,0-2.108,0c0,1.345,0,2.661,0,4.005c0.713,0,1.396,0,2.108,0C14.038,24.648,14.038,23.333,14.038,21.987z
			 M14.022,20.961c0-1.356,0-2.683,0-4.007c-0.718,0-1.39,0-2.076,0c0,1.356,0,2.683,0,4.007
			C12.663,20.961,13.336,20.961,14.022,20.961z"/>
		<path style="fill:#B3B4B5;" d="M3.032,36.96c-0.833,0-1.601-0.002-2.369,0c-0.645,0.002-0.645,0.004-0.646-0.654
			C0.016,35.05,0.016,35.05,1.289,35.05c1.171,0,2.342,0.009,3.512-0.007c0.191-0.003,0.396-0.085,0.568-0.178
			c2.607-1.413,5.801-0.903,7.818,1.258c0.159,0.17,0.287,0.335,0.537,0.1c1.703-1.605,5.003-1.52,6.662,0.087
			c0.021,0.02,0.056,0.026,0.141,0.063c0.115-0.109,0.251-0.232,0.38-0.361c2.032-2.043,4.979-2.512,7.555-1.225
			c0.31,0.155,0.684,0.244,1.031,0.252c1.297,0.029,2.595,0.032,3.892,0.001c0.458-0.011,0.59,0.155,0.552,0.576
			c-0.026,0.283-0.027,0.571-0.004,0.854c0.03,0.37-0.103,0.506-0.483,0.495c-0.803-0.024-1.608-0.007-2.508-0.007
			c0.091,0.205,0.142,0.342,0.211,0.469c2.044,3.772-0.049,8.373-4.277,9.384c-2.805,0.671-6.003-0.897-7.201-3.572
			c-0.798-1.783-0.818-3.581-0.033-5.371c0.137-0.313,0.089-0.515-0.121-0.76c-1.362-1.593-3.802-1.572-5.101,0.044
			c-0.18,0.224-0.214,0.411-0.091,0.684c1.803,4.002-0.731,8.504-5.102,9.081c-3.652,0.482-7.092-2.492-7.161-6.172
			c-0.022-1.181,0.195-2.292,0.774-3.327C2.904,37.298,2.946,37.165,3.032,36.96z M20.92,40.466
			c0.025,2.546,1.938,4.585,4.597,4.627c2.472,0.039,4.601-2.08,4.566-4.565c-0.037-2.621-1.991-4.549-4.575-4.6
			C23.032,35.878,20.924,37.995,20.92,40.466z M13.028,40.544c0.1-2.373-1.858-4.592-4.57-4.621
			c-2.457-0.026-4.517,2.066-4.545,4.524c-0.028,2.502,1.936,4.65,4.568,4.635C11.281,45.065,13.068,42.834,13.028,40.544z"/>
	</g>
</g>
</svg>
