<?xml version="1.0" encoding="utf-8"?>
<!-- Generator: Adobe Illustrator 17.0.0, SVG Export Plug-In . SVG Version: 6.00 Build 0)  -->
<!DOCTYPE svg PUBLIC "-//W3C//DTD SVG 1.1//EN" "http://www.w3.org/Graphics/SVG/1.1/DTD/svg11.dtd">
<svg version="1.1" id="Layer_1" xmlns="http://www.w3.org/2000/svg" xmlns:xlink="http://www.w3.org/1999/xlink" x="0px" y="0px"
	 width="32px" height="32px" viewBox="0 0 32 32" enable-background="new 0 0 32 32" xml:space="preserve">
<g>
	<g id="isbxUX_1_">
		<g>
			<g>
				<path fill="#FFFFFF" d="M11.346,16.465c-0.09-0.059-0.156-0.104-0.224-0.147c-1.024-0.644-2.049-1.287-3.073-1.93
					c-0.243-0.153-0.348-0.353-0.302-0.574c0.075-0.36,0.465-0.524,0.792-0.324c0.476,0.292,0.946,0.592,1.418,0.889
					c0.861,0.541,1.721,1.081,2.581,1.624c0.425,0.268,0.417,0.701-0.017,0.958c-1.321,0.783-2.642,1.565-3.965,2.345
					c-0.338,0.199-0.694,0.071-0.797-0.279c-0.069-0.237,0.034-0.454,0.288-0.605c0.86-0.509,1.721-1.018,2.581-1.527
					C10.858,16.757,11.089,16.619,11.346,16.465z"/>
			</g>
		</g>
		<path fill="#FFFFFF" d="M18.495,18.806c0,0.326-0.267,0.593-0.593,0.593h-4.213c-0.326,0-0.593-0.267-0.593-0.593V18.76
			c0-0.326,0.267-0.593,0.593-0.593h4.213c0.326,0,0.593,0.267,0.593,0.593V18.806z"/>
	</g>
	<path fill="#FFFFFF" d="M30.259,5.651H1.741C1.333,5.651,1,5.984,1,6.392v19.956h30V6.392C31,5.984,30.667,5.651,30.259,5.651z
		 M2.308,6.959h27.384v0.044v0.899H2.308V7.003V6.959z M2.308,24.081V9.21h27.384v14.872H2.308z"/>
</g>
</svg>
