<?xml version="1.0" encoding="utf-8"?>
<!-- Generator: Adobe Illustrator 19.0.0, SVG Export Plug-In . SVG Version: 6.00 Build 0)  -->
<svg version="1.1" id="Layer_1" xmlns="http://www.w3.org/2000/svg" xmlns:xlink="http://www.w3.org/1999/xlink" x="0px" y="0px"
	 viewBox="0 0 170 170" style="enable-background:new 0 0 170 170;" xml:space="preserve">
<style type="text/css">
	.st0{fill:none;stroke:#B3B4B5;stroke-width:8;stroke-linecap:square;stroke-miterlimit:10;}
	.st1{fill:#B3B4B5;}
	.st2{fill:none;stroke:#B3B4B5;stroke-width:6;stroke-linecap:square;stroke-miterlimit:10;}
	.st3{fill:none;stroke:#B3B4B5;stroke-width:8;stroke-miterlimit:10;}
</style>
<g>
	<g>
		<polyline class="st0" points="121.6,34.7 144.6,34.7 144.6,163.7 24.6,163.7 24.6,34.7 47.3,34.7 		"/>
		<rect x="42" y="60.7" class="st1" width="15.3" height="54"/>
		<rect x="65" y="95.7" class="st1" width="15.3" height="19"/>
		<rect x="88" y="82.7" class="st1" width="15.3" height="32"/>
		<rect x="111" y="75" class="st1" width="15.3" height="39.7"/>
		<line class="st2" x1="46.6" y1="127.7" x2="122.6" y2="127.7"/>
		<line class="st2" x1="46.6" y1="143.7" x2="65.4" y2="143.7"/>
		<line class="st2" x1="77.4" y1="143.7" x2="88.4" y2="143.7"/>
	</g>
	<path class="st3" d="M118.6,22.7h-16.1c-1-9-8.6-16-17.9-16s-16.9,7-17.9,16H50.6l-4,23h76L118.6,22.7z"/>
</g>
</svg>
