<?xml version="1.0" encoding="iso-8859-1"?>
<!-- Generator: Adobe Illustrator 17.0.0, SVG Export Plug-In . SVG Version: 6.00 Build 0)  -->
<!DOCTYPE svg PUBLIC "-//W3C//DTD SVG 1.1//EN" "http://www.w3.org/Graphics/SVG/1.1/DTD/svg11.dtd">
<svg version="1.1" id="Layer_1" xmlns="http://www.w3.org/2000/svg" xmlns:xlink="http://www.w3.org/1999/xlink" x="0px" y="0px"
	 width="32px" height="32px" viewBox="0 0 32 32" style="enable-background:new 0 0 32 32;" xml:space="preserve">
<g id="eP0hGU_2_">
	<g>
		<path style="fill:#FFFFFF;" d="M15.993,28.598c-2.067,0-4.134,0.001-6.201-0.001c-0.759-0.001-1.482-0.149-2.133-0.559
			c-0.967-0.609-1.476-1.513-1.535-2.631c-0.093-1.778,0.093-3.533,0.687-5.223c0.297-0.845,0.724-1.622,1.387-2.243
			c0.77-0.722,1.703-1.031,2.746-1.021c0.131,0.001,0.272,0.08,0.39,0.152c0.358,0.219,0.709,0.45,1.059,0.682
			c2.199,1.464,4.992,1.467,7.199,0.006c0.322-0.213,0.654-0.412,0.967-0.637c0.292-0.209,0.607-0.232,0.946-0.195
			c1.487,0.16,2.522,0.958,3.223,2.247c0.499,0.916,0.766,1.904,0.942,2.923c0.189,1.092,0.267,2.192,0.2,3.297
			c-0.101,1.665-1.277,2.919-2.928,3.144c-0.274,0.037-0.553,0.056-0.83,0.057C20.073,28.6,18.033,28.598,15.993,28.598z"/>
		<path style="fill:#FFFFFF;" d="M21.391,12.527c-0.02,2.896-2.537,5.39-5.604,5.275c-2.856-0.107-5.215-2.52-5.195-5.429
			c0.021-3.078,2.604-5.457,5.553-5.378C19.122,7.076,21.501,9.626,21.391,12.527z"/>
		<path style="fill:#FFFFFF;" d="M10.801,15.963c-0.431,0.078-0.847,0.129-1.25,0.232c-0.94,0.242-1.705,0.773-2.353,1.486
			c-0.049,0.054-0.131,0.11-0.197,0.11c-0.765-0.003-1.532,0.011-2.295-0.036c-0.636-0.04-1.208-0.289-1.672-0.744
			c-0.335-0.329-0.513-0.744-0.524-1.201c-0.032-1.316,0.003-2.632,0.408-3.9c0.105-0.327,0.296-0.638,0.501-0.917
			c0.114-0.156,0.33-0.247,0.515-0.337c0.179-0.087,0.36-0.041,0.545,0.043c0.664,0.303,1.319,0.632,2.006,0.873
			c0.974,0.342,1.972,0.283,2.959,0.003c0.084-0.024,0.169-0.047,0.254-0.068c0.01-0.003,0.024,0.009,0.053,0.021
			C9.537,13.136,9.895,14.621,10.801,15.963z"/>
		<path style="fill:#FFFFFF;" d="M21.182,15.976c0.922-1.36,1.27-2.848,1.058-4.486c0.243,0.064,0.45,0.123,0.659,0.172
			c1.112,0.257,2.193,0.143,3.237-0.304c0.447-0.191,0.889-0.398,1.316-0.63c0.359-0.195,0.666-0.119,0.96,0.102
			c0.358,0.268,0.53,0.661,0.667,1.068c0.228,0.679,0.316,1.384,0.365,2.094c0.032,0.459,0.027,0.92,0.051,1.38
			c0.075,1.41-0.762,2.1-1.936,2.341c-0.38,0.078-0.78,0.07-1.171,0.081c-0.44,0.013-0.881,0.01-1.32-0.002
			c-0.094-0.003-0.213-0.05-0.276-0.117c-0.716-0.779-1.567-1.327-2.61-1.546C21.865,16.061,21.542,16.03,21.182,15.976z"/>
		<path style="fill:#FFFFFF;" d="M20.507,6.975c0.016-2.002,1.608-3.579,3.606-3.574c2.028,0.005,3.607,1.625,3.587,3.678
			c-0.019,1.922-1.656,3.528-3.589,3.519C22.092,10.589,20.49,8.979,20.507,6.975z"/>
		<path style="fill:#FFFFFF;" d="M7.899,3.402c2.02,0.018,3.608,1.642,3.594,3.632c-0.014,1.907-1.593,3.57-3.608,3.563
			C5.855,10.59,4.283,8.93,4.294,7.021C4.305,4.981,5.907,3.385,7.899,3.402z"/>
	</g>
</g>
</svg>
