<?xml version="1.0" encoding="iso-8859-1"?>
<!-- Generator: Adobe Illustrator 17.0.0, SVG Export Plug-In . SVG Version: 6.00 Build 0)  -->
<!DOCTYPE svg PUBLIC "-//W3C//DTD SVG 1.1//EN" "http://www.w3.org/Graphics/SVG/1.1/DTD/svg11.dtd">
<svg version="1.1" id="Layer_1" xmlns="http://www.w3.org/2000/svg" xmlns:xlink="http://www.w3.org/1999/xlink" x="0px" y="0px"
	 width="32px" height="32px" viewBox="0 0 32 32" style="enable-background:new 0 0 32 32;" xml:space="preserve">
<path style="fill:#FFFFFF;" d="M30.506,8.121l0-0.011c-0.013-0.212-0.088-0.384-0.242-0.559c-1.787-2.031-3.521-4.02-4.982-5.698
	c-0.208-0.239-0.468-0.351-0.819-0.351c-2.006,0.002-4.012,0.003-6.018,0.003l-4.245,0c-0.532,0-1.064,0-1.596,0
	c-0.532,0-1.064,0-1.595,0c-0.919,0-2.133-0.001-3.37-0.005H7.631c-0.366,0-0.636,0.123-0.876,0.397
	c-1.021,1.171-2.062,2.359-3.07,3.508c-0.658,0.75-1.316,1.5-1.973,2.252C1.64,7.739,1.589,7.83,1.539,7.919L1.494,7.997v16.257
	c0.001,0.76,0.001,1.519,0,2.279v0.929c0.008,1.107,0.511,1.999,1.495,2.652c0.388,0.257,0.814,0.383,1.307,0.383
	c4.5-0.005,8.228-0.007,11.734-0.007c4.188,0,7.991,0.003,11.626,0.01h0.006c0,0,0,0,0,0c0.751,0,1.387-0.263,1.942-0.803
	c0.555-0.54,0.85-1.151,0.901-1.871l0-4.767c-0.005-4.042-0.003-8.106,0-11.597V8.121z M3.016,23.344h7.183
	c0.003,0.045,0.005,0.088,0.005,0.131c0.001,0.32,0-0.069,0,0.251c0,0.287,0,0.575,0,0.862c0.001,0.721,0.307,1.443,0.838,1.979
	c0.533,0.538,1.252,0.848,1.974,0.851c0.988,0.004,2.027,0.006,3.088,0.006c0.926,0,1.907-0.002,2.915-0.005
	c0.749-0.002,1.459-0.304,2.001-0.848c0.54-0.544,0.84-1.257,0.845-2.009c0.003-0.475,0.002-0.229,0.001-0.721
	c0-0.164,0-0.329-0.001-0.495h7.187l0.001,1.351c0.001,0.924,0.001,1.848,0,2.772c-0.002,1.026-0.546,1.569-1.574,1.569
	c-7.61,0.001-15.22,0.001-22.83,0c-0.552,0-0.967-0.135-1.232-0.4c-0.267-0.267-0.402-0.687-0.401-1.246
	c0.001-0.902,0.001-1.804,0-2.706L3.016,23.344z M21.866,9.492c0-0.168-0.001-0.337-0.001-0.507h7.179v5.638l-7.792,0.001
	c-0.636,0-0.907,0.274-0.908,0.914c0,0.317,0,0.633,0,0.95c0,0.515,0.001,0.32-0.001,0.835c-0.004,0.947-0.443,1.389-1.382,1.391
	c-1.944,0.003-3.888,0.003-5.831,0c-0.973-0.001-1.407-0.44-1.408-1.42c0-0.839,0-0.951,0.004-1.784
	c0.002-0.294-0.071-0.51-0.221-0.661c-0.151-0.152-0.369-0.226-0.666-0.226l-1.056,0c-1.482,0-2.964,0-4.447,0l-2.304,0V8.986h7.171
	c0,0.068,0,0.136,0,0.203c-0.001,0.273-0.001-0.155,0.001,0.122c0.001,0.123-0.001,0.249-0.004,0.371
	c-0.006,0.308-0.012,0.627,0.035,0.939c0.217,1.449,1.409,2.464,2.897,2.468c1.087,0.003,2.175,0.002,3.262,0.001
	c0.474,0,0.947-0.001,1.421-0.001h0.017c0.119,0,0.238,0,0.358,0.001c0.278,0.001,0.556,0.002,0.833-0.002
	c1.554-0.024,2.828-1.305,2.839-2.857C21.867,9.75,21.866,9.99,21.866,9.492z M20.344,22.763c0,0.274,0,0.549,0.001,0.823
	c0.001,0.539,0.002,0.386-0.003,0.934c-0.009,0.948-0.431,1.372-1.368,1.375c-0.998,0.004-2.027,0.005-3.06,0.005
	c-0.931,0-1.892-0.001-2.857-0.004c-0.879-0.003-1.327-0.449-1.332-1.326c-0.004-0.754-0.004-0.863,0.002-1.868
	c0.002-0.302-0.071-0.522-0.221-0.673c-0.149-0.149-0.363-0.222-0.655-0.222c-1.217-0.001-2.434-0.001-3.65-0.001l-4.163,0V16.17
	h7.168l0,0.69c0,0.412-0.001,0.115,0.001,0.527c0.003,0.751,0.302,1.464,0.844,2.006c0.542,0.543,1.253,0.843,2.004,0.845
	c1.982,0.005,3.964,0.004,5.946,0c1.574-0.003,2.859-1.288,2.865-2.865c0.002-0.475,0.001-0.239,0.001-0.72c0-0.163,0-0.326,0-0.491
	h7.174v5.642l-4.285,0l-3.46,0C20.602,21.806,20.345,22.065,20.344,22.763z M24.359,7.443c-0.985,0-1.97,0-2.955,0
	c-0.843,0-1.061,0.221-1.062,1.072c0,0.336,0,0.671,0,1.007c0,0.459,0.001,0.207,0,0.666c-0.002,0.925-0.448,1.374-1.364,1.374
	l-1.164,0c-1.108,0-2.216,0-3.324,0l-1.4,0c-0.92,0-1.367-0.449-1.368-1.371c-0.001-0.748,0.001-0.833,0.004-1.868
	c0.001-0.287-0.073-0.508-0.221-0.657c-0.146-0.147-0.363-0.222-0.644-0.222C9.745,7.444,8.629,7.444,7.513,7.444l-3.578,0
	L4.49,6.809c0.673-0.77,1.327-1.519,1.981-2.267C6.574,4.425,6.675,4.307,6.777,4.19c0.29-0.335,0.59-0.681,0.896-1.008
	c0.073-0.078,0.211-0.144,0.3-0.144c2.675-0.005,5.464-0.007,8.292-0.007c2.516,0,5.149,0.002,7.827,0.006
	c0.09,0,0.214,0.048,0.26,0.1c1.105,1.249,2.221,2.526,3.301,3.761l0.478,0.547L24.359,7.443z"/>
</svg>
