<?xml version="1.0" encoding="utf-8"?>
<!-- Generator: Adobe Illustrator 19.0.0, SVG Export Plug-In . SVG Version: 6.00 Build 0)  -->
<svg version="1.1" id="Layer_1" xmlns="http://www.w3.org/2000/svg" xmlns:xlink="http://www.w3.org/1999/xlink" x="0px" y="0px"
	 viewBox="-14 16 170 170" style="enable-background:new -14 16 170 170;" xml:space="preserve">
<style type="text/css">
	.st0{fill:none;stroke:#5B5C62;stroke-width:8;stroke-linecap:square;stroke-miterlimit:10;}
	.st1{fill:#5B5C62;stroke:#5B5C62;stroke-width:4;stroke-linejoin:bevel;stroke-miterlimit:10;}
	.st2{fill:none;stroke:#5B5C62;stroke-width:6;stroke-miterlimit:10;}
	.st3{fill:#FFFFFF;}
</style>
<g>
	<path class="st0" d="M134.7,157.1c8-12.1,12.6-26.6,12.6-42.2c0-42.6-34.5-77.1-77.1-77.1S-6.9,72.3-6.9,114.9
		c0,15.6,4.6,30.1,12.6,42.2H134.7z"/>
	<path class="st1" d="M84.8,114.9c0,8.1-6.6,14.7-14.7,14.7s-14.7-6.6-14.7-14.7s14.7-48.7,14.7-48.7S84.8,106.7,84.8,114.9z"/>
	<line class="st2" x1="70.1" y1="37.7" x2="70.1" y2="55.4"/>
	<line class="st2" x1="124" y1="60.1" x2="111.5" y2="72.6"/>
	<line class="st2" x1="146.3" y1="113.9" x2="128.6" y2="113.9"/>
	<line class="st2" x1="99.2" y1="43.5" x2="95.6" y2="52.1"/>
	<line class="st2" x1="140.6" y1="85" x2="132" y2="88.5"/>
	<line class="st2" x1="16.3" y1="60.1" x2="28.8" y2="72.6"/>
	<line class="st2" x1="-6.1" y1="113.9" x2="11.6" y2="113.9"/>
	<line class="st2" x1="41.1" y1="43.5" x2="44.7" y2="52.1"/>
	<line class="st2" x1="-0.3" y1="85" x2="8.3" y2="88.5"/>
	<circle class="st3" cx="70.1" cy="113.9" r="6.4"/>
</g>
</svg>
