<?xml version="1.0" encoding="iso-8859-1"?>
<!-- Generator: Adobe Illustrator 17.0.0, SVG Export Plug-In . SVG Version: 6.00 Build 0)  -->
<!DOCTYPE svg PUBLIC "-//W3C//DTD SVG 1.1//EN" "http://www.w3.org/Graphics/SVG/1.1/DTD/svg11.dtd">
<svg version="1.1" id="Layer_1" xmlns="http://www.w3.org/2000/svg" xmlns:xlink="http://www.w3.org/1999/xlink" x="0px" y="0px"
	 width="48px" height="48px" viewBox="0 0 48 48" style="enable-background:new 0 0 48 48;" xml:space="preserve">
<g id="_x38_ELw6c_1_">
	<g>
		<path style="fill:#B4B4B4;" d="M0,14.248c0.062-0.155,0.124-0.311,0.186-0.466c0.459-1.147,1.305-1.891,2.527-1.939
			c2.072-0.081,4.149-0.022,6.256-0.022c0,10.488,0,20.958,0,31.468c-0.147,0.007-0.297,0.02-0.447,0.02
			c-1.765,0.001-3.53,0.002-5.294,0.001c-1.635-0.001-2.653-0.755-3.149-2.328C0.066,40.942,0.027,40.909,0,40.873
			C0,31.998,0,23.123,0,14.248z"/>
		<path style="fill:#B4B4B4;" d="M48,40.873c-0.066,0.17-0.129,0.342-0.2,0.511c-0.474,1.115-1.313,1.85-2.514,1.896
			c-2.072,0.081-4.149,0.022-6.256,0.022c0-10.49,0-20.96,0-31.493c0.18,0,0.361,0,0.542,0c1.718,0.001,3.436,0.004,5.154,0.001
			c1.675-0.002,2.691,0.738,3.195,2.33c0.013,0.04,0.052,0.072,0.079,0.108C48,23.123,48,31.998,48,40.873z"/>
		<path style="fill:#B4B4B4;" d="M31.124,11.811c2.146,0,4.233,0,6.349,0c0,10.505,0,20.976,0,31.474c-8.983,0-17.955,0-26.95,0
			c0-10.479,0-20.939,0-31.452c2.09,0,4.189,0,6.353,0c0-0.217,0-0.382,0-0.547c0-1.078-0.013-2.156,0.001-3.233
			c0.025-1.884,1.487-3.353,3.373-3.365c2.515-0.016,5.029-0.015,7.544,0c1.822,0.01,3.302,1.489,3.327,3.312
			C31.138,9.248,31.124,10.497,31.124,11.811z M28.868,11.802c0-1.318,0.024-2.595-0.011-3.87c-0.016-0.587-0.53-0.993-1.158-0.994
			c-2.451-0.006-4.902-0.006-7.353,0C19.583,6.939,19.132,7.4,19.126,8.17c-0.006,0.968-0.001,1.936-0.001,2.904
			c0,0.241,0,0.483,0,0.729C22.402,11.802,25.601,11.802,28.868,11.802z"/>
	</g>
</g>
</svg>
