<?xml version="1.0" encoding="utf-8"?>
<!-- Generator: Adobe Illustrator 22.1.0, SVG Export Plug-In . SVG Version: 6.00 Build 0)  -->
<svg version="1.1" id="Layer_1" xmlns="http://www.w3.org/2000/svg" xmlns:xlink="http://www.w3.org/1999/xlink" x="0px" y="0px"
	 viewBox="0 0 100 100" style="enable-background:new 0 0 100 100;" xml:space="preserve">
<style type="text/css">
	.st0{fill:#4F4F4F;}
</style>
<path class="st0" d="M93.7,26.4H32c-0.7,0-1.3-0.6-1.3-1.3c0-0.7,0.6-1.3,1.3-1.3h61.7c0.7,0,1.3,0.6,1.3,1.3
	C95,25.9,94.4,26.4,93.7,26.4z M11.4,83C7.9,83,5,80.1,5,76.6c0-3.6,2.9-6.4,6.4-6.4c3.6,0,6.4,2.9,6.4,6.4C17.9,80.1,15,83,11.4,83
	z M11.4,57.3c-3.5,0-6.4-2.9-6.4-6.4s2.9-6.4,6.4-6.4c3.6,0,6.4,2.9,6.4,6.4S15,57.3,11.4,57.3z M11.4,31.6c-3.5,0-6.4-2.9-6.4-6.4
	c0-3.6,2.9-6.4,6.4-6.4c3.6,0,6.4,2.9,6.4,6.4C17.9,28.7,15,31.6,11.4,31.6z M32,49.6h47.6c0.7,0,1.3,0.6,1.3,1.3s-0.6,1.3-1.3,1.3
	H32c-0.7,0-1.3-0.6-1.3-1.3S31.3,49.6,32,49.6z M32,75.3h33.4c0.7,0,1.3,0.6,1.3,1.3c0,0.7-0.6,1.3-1.3,1.3H32
	c-0.7,0-1.3-0.6-1.3-1.3C30.7,75.9,31.3,75.3,32,75.3z"/>
</svg>
