<?xml version="1.0" encoding="utf-8"?>
<!-- Generator: Adobe Illustrator 22.1.0, SVG Export Plug-In . SVG Version: 6.00 Build 0)  -->
<svg version="1.1" id="Layer_1" xmlns="http://www.w3.org/2000/svg" xmlns:xlink="http://www.w3.org/1999/xlink" x="0px" y="0px"
	 viewBox="0 0 100 100" style="enable-background:new 0 0 100 100;" xml:space="preserve">
<style type="text/css">
	.st0{fill:#757575;}
</style>
<title>03</title>
<g>
	<path class="st0" d="M88.9,6.3H11.1c-2.6,0-4.7,2.1-4.7,4.7l0,0v77.8c0,2.6,2.1,4.7,4.7,4.7h77.8c2.6,0,4.7-2.1,4.7-4.7V11.1
		C93.7,8.5,91.5,6.3,88.9,6.3L88.9,6.3z M26.3,66.8l12.5-12.6L26.3,41.8L33,35l15.8,15.9c1.9,1.8,1.9,4.8,0.1,6.7c0,0,0,0-0.1,0.1
		L32.9,73.5L26.3,66.8z M67.1,73.6H48.5v-9.5H67L67.1,73.6z"/>
</g>
</svg>
