<?xml version="1.0" encoding="utf-8"?>
<!-- Generator: Adobe Illustrator 19.0.0, SVG Export Plug-In . SVG Version: 6.00 Build 0)  -->
<svg version="1.1" id="Layer_1" xmlns="http://www.w3.org/2000/svg" xmlns:xlink="http://www.w3.org/1999/xlink" x="0px" y="0px"
	 viewBox="0 0 33 33" style="enable-background:new 0 0 33 33;" xml:space="preserve">
<style type="text/css">
	.st0{fill:#363636;}
</style>
<path id="XMLID_6_" class="st0" d="M13.3,32.5H4.9c-2,0-3.6-1.6-3.6-3.6V4.8c0-2,1.6-3.6,3.6-3.6h10.9l9.4,8.8v7.7h-2.1v-6.8
	l-8.1-7.6h-10c-0.8,0-1.5,0.7-1.5,1.5v24.1c0,0.8,0.7,1.5,1.5,1.5h8.4V32.5z"/>
<path id="XMLID_5_" class="st0" d="M24.4,11.6h-7.5c-2,0-2.7-1.6-2.7-2.7V2.1h2.1v6.8c0,0.6,0.5,0.6,0.6,0.6h7.5V11.6z"/>
<path id="XMLID_3_" class="st0" d="M19,31.9c-0.6,0-1.3-0.3-1.7-0.8l-0.5-0.5c-0.4-0.5-0.6-1.1-0.6-1.7c0-0.6,0.3-1.2,0.8-1.6
	l10.3-9.4c1-0.9,2.4-0.8,3.3,0.2l0.5,0.5c0.4,0.5,0.6,1.1,0.6,1.7s-0.3,1.2-0.8,1.6l-10.3,9.4C20.1,31.7,19.6,31.9,19,31.9z
	 M28.8,19.3c-0.1,0-0.1,0-0.2,0.1l-10.3,9.4c-0.1,0.1-0.1,0.2-0.1,0.2c0,0,0,0.1,0.1,0.2l0.5,0.5c0.1,0.1,0.2,0.1,0.2,0.1
	c0.1,0,0.1,0,0.2-0.1l10.3-9.4c0.1-0.1,0.1-0.2,0.1-0.2c0,0,0-0.1-0.1-0.2L29,19.4C29,19.4,28.9,19.3,28.8,19.3z"/>
<path id="XMLID_4_" class="st0" d="M18.5,31.3l-1.1,1c-0.5,0.5-1.3,0.4-1.8-0.1l-0.1-0.1c-0.5-0.5-0.4-1.3,0.1-1.8l1.1-1
	c0.5-0.5,1.3-0.4,1.8,0.1l0.1,0.1C19.1,30.1,19,30.9,18.5,31.3z"/>
<path id="XMLID_1_" class="st0" d="M29.4,21.1l-1.1,1c-0.5,0.5-1.3,0.4-1.8-0.1L26.4,22c-0.5-0.5-0.4-1.3,0.1-1.8l1.1-1
	c0.5-0.5,1.3-0.4,1.8,0.1l0.1,0.1C30,19.8,29.9,20.6,29.4,21.1z"/>
</svg>
