<?xml version="1.0" encoding="utf-8"?>
<!-- Generator: Adobe Illustrator 19.0.0, SVG Export Plug-In . SVG Version: 6.00 Build 0)  -->
<svg version="1.1" id="Layer_1" xmlns="http://www.w3.org/2000/svg" xmlns:xlink="http://www.w3.org/1999/xlink" x="0px" y="0px"
	 viewBox="0 0 33 33" style="enable-background:new 0 0 33 33;" xml:space="preserve">
<style type="text/css">
	.st0{fill:#3F3F3F;}
</style>
<path id="XMLID_2_" class="st0" d="M17.8,21.7L17.8,21.7c-0.5,0.5-1.4,0.5-1.9,0l-6.4-6.4C9,14.8,9,14,9.5,13.5l0,0
	c0.5-0.5,1.4-0.5,1.9,0l6.4,6.4C18.3,20.3,18.3,21.2,17.8,21.7z"/>
<path id="XMLID_4_" class="st0" d="M4.3,33L4.3,33c-0.8,0-1.5-0.6-1.5-1.4v-9.2c0-0.8,0.7-1.4,1.5-1.4h0c0.8,0,1.5,0.6,1.5,1.4v9.2
	C5.8,32.4,5.2,33,4.3,33z"/>
<path id="XMLID_5_" class="st0" d="M30.4,31.4L30.4,31.4c0,0.8-0.5,1.4-1.2,1.6H4.4c-0.6-0.2-1.2-0.8-1.2-1.6v0
	c0-0.8,0.5-1.4,1.2-1.4h24.9C29.9,30,30.4,30.6,30.4,31.4z"/>
<path id="XMLID_1_" class="st0" d="M16.8,21.6L16.8,21.6c-0.8,0-1.5-0.6-1.5-1.2V1.5c0-0.7,0.7-1.2,1.5-1.2h0c0.8,0,1.5,0.6,1.5,1.2
	v18.8C18.3,21,17.6,21.6,16.8,21.6z"/>
<path id="XMLID_6_" class="st0" d="M28.9,33L28.9,33c-0.8,0-1.5-0.6-1.5-1.4v-9.2c0-0.8,0.7-1.4,1.5-1.4h0c0.8,0,1.5,0.6,1.5,1.4
	v9.2C30.4,32.4,29.7,33,28.9,33z"/>
<path id="XMLID_3_" class="st0" d="M16.1,21.7L16.1,21.7c-0.5-0.5-0.5-1.4,0-1.9l6.4-6.4c0.5-0.5,1.4-0.5,1.9,0l0,0
	c0.5,0.5,0.5,1.4,0,1.9L18,21.7C17.5,22.2,16.6,22.2,16.1,21.7z"/>
</svg>
