<?xml version="1.0" encoding="utf-8"?>
<!-- Generator: Adobe Illustrator 19.0.0, SVG Export Plug-In . SVG Version: 6.00 Build 0)  -->
<svg version="1.1" id="Layer_2" xmlns="http://www.w3.org/2000/svg" xmlns:xlink="http://www.w3.org/1999/xlink" x="0px" y="0px"
	 viewBox="0 0 33 33" style="enable-background:new 0 0 33 33;" xml:space="preserve">
<style type="text/css">
	.st0{fill:#D3D3D3;}
</style>
<path class="st0" d="M24.8,32.7H7.9c-2.8,0-5-2.2-5-5V17.4c0-2.8,2.2-5,5-5h16.9c2.8,0,5,2.2,5,5v10.3
	C29.8,30.5,27.6,32.7,24.8,32.7z M7.9,15.4c-1.1,0-2,0.9-2,2v10.3c0,1.1,0.9,2,2,2h16.9c1.1,0,2-0.9,2-2V17.4c0-1.1-0.9-2-2-2H7.9z"
	/>
<path class="st0" d="M26.5,14.4h-3v-4.3c0-3.9-3.2-7.1-7.1-7.1c-4,0-7.2,3.2-7.2,7.1v4h-3v-4C6.2,4.5,10.7,0,16.3,0
	C22,0,26.5,4.5,26.5,10.1V14.4z"/>
<path class="st0" d="M16,28.1c-1.9,0-3.5-1.7-3.5-3.7s1.6-3.7,3.5-3.7s3.5,1.7,3.5,3.7S18,28.1,16,28.1z M16,23.1
	c-0.7,0-1.2,0.6-1.2,1.3s0.6,1.3,1.2,1.3c0.7,0,1.2-0.6,1.2-1.3S16.7,23.1,16,23.1z"/>
<path class="st0" d="M16.2,23.1L16.2,23.1c-0.7,0-1.3-0.6-1.3-1.2v-2.5c0-0.7,0.6-1.2,1.2-1.2l0,0c0.7,0,1.2,0.6,1.2,1.2v2.5
	C17.4,22.6,16.9,23.1,16.2,23.1z"/>
</svg>
