<?xml version="1.0" encoding="iso-8859-1"?>
<!-- Generator: Adobe Illustrator 17.0.0, SVG Export Plug-In . SVG Version: 6.00 Build 0)  -->
<!DOCTYPE svg PUBLIC "-//W3C//DTD SVG 1.1//EN" "http://www.w3.org/Graphics/SVG/1.1/DTD/svg11.dtd">
<svg version="1.1" id="Layer_1" xmlns="http://www.w3.org/2000/svg" xmlns:xlink="http://www.w3.org/1999/xlink" x="0px" y="0px"
	 width="128px" height="20px" viewBox="0 0 128 20" style="enable-background:new 0 0 128 20;" xml:space="preserve">
<g>
	<path style="fill:#E1372F;" d="M115.938,20l0.328-3h2.179l0.937-5.816L128,0h-8.141l-1.956,3.227
		C117.559,3.835,117.268,5,116.951,5h-0.211l-1.401-5h-8.194l5.154,11.375L110.951,20H115.938z"/>
	<polygon style="fill:#E1372F;" points="15.595,6 16.494,0 5.305,0 4.955,3 2.705,3 0,20 4.932,20 5.233,18 7.679,18 8.405,13 
		13.719,13 14.538,8 9.225,8 9.542,6 	"/>
	<path style="fill:#E1372F;" d="M80.736,0h-4.991l-0.261,2h-2.452l-2.629,16.659L67.089,2H64.72l-0.261-2h-5.795l-8.822,17.476
		L47.8,13.48c-0.317-0.581-0.714-0.894-1.031-1.185l0.026-0.156c2.828-0.899,4.203-2.184,4.679-5.197
		C52.267,1.919,48.751,0,44.258,0h-6.402l-0.261,2h-2.416l-2.606,16.512L29.288,2h-2.703l-0.261-2h-5.461l-8.859,18h2.491l-0.832,2
		h4.796l0.978-3h5.472l0.264,3h7.191h0.475h6.609l1.005-6h0.132l2.167,6h5.842h2.511h5.155l0.978-3h5.472l0.264,3h7.243h0.422h8.75
		c5.842,0,10.6-3.788,11.551-9.709C92.102,2.969,87.424,0,80.736,0z M21.472,13l2.3-6h0.264c0,1-0.026,1.678,0.053,2.524L24.379,13
		H21.472z M44.363,7.026C44.125,8.506,42.91,9,41.72,9h-0.502l0.529-4h0.555C43.544,5,44.601,5.493,44.363,7.026z M59.272,13l2.3-6
		h0.264c0,1-0.026,1.678,0.053,2.524L62.18,13H59.272z M83.697,10.128c-0.402,2.488-2.239,3.672-4.487,3.776L79.203,14H76.12
		l0.495-3h2.207l0.804-5h0.45C82.719,6,84.146,7.326,83.697,10.128z"/>
	<path style="fill:#E1372F;" d="M106.127,2h-2.689l-0.292-2h-5.493l-8.735,17h2.676l-0.918,3h4.572l0.978-3h5.472l0.264,3h7.666
		L106.127,2z M98.262,13l2.3-6h0.264c0,1-0.026,1.678,0.053,2.524L101.169,13H98.262z"/>
</g>
</svg>
