<svg width="19" height="19" viewBox="0 0 19 19" xmlns="http://www.w3.org/2000/svg"><path d="M6.107 8.143H.68A.679.679 0 0 0 0 8.82v8.143C0 18.09.911 19 2.036 19h4.071a.679.679 0 0 0 .679-.679v-9.5a.679.679 0 0 0-.679-.678Zm-.678 9.5H2.036a.679.679 0 0 1-.679-.679V9.5H5.43v8.143ZM16.964 0H2.036A2.036 2.036 0 0 0 0 2.036v4.071c0 .375.304.679.679.679H18.32A.679.679 0 0 0 19 6.107V2.036A2.036 2.036 0 0 0 16.964 0Zm.679 5.429H1.357V2.036c0-.375.304-.679.679-.679h14.928c.375 0 .679.304.679.679v3.393Zm.678 2.714h-9.5a.679.679 0 0 0-.678.678v9.5c0 .375.304.679.678.679h8.143A2.036 2.036 0 0 0 19 16.964V8.821a.679.679 0 0 0-.679-.678Zm-.678 8.821a.679.679 0 0 1-.679.679H9.5V9.5h8.143v7.464Z" fill="#264D6D" fill-rule="nonzero"/></svg>