<svg class="analytics" width="20" height="20" xmlns="http://www.w3.org/2000/svg"><path d="M18.449 0c.35 0 .64.261.686.6l.006.093v17.711c0 .351-.26.64-.599.687l-.094.006h-4.427l-.023-.002-.022.002H.693a.693.693 0 0 1-.687-.599L0 18.404v-4.427c0-.351.26-.64.599-.687l.094-.006h3.734l.001-3.735c0-.316.211-.582.5-.666l.099-.02.094-.007h3.733l.001-3.735c0-.316.211-.582.5-.666l.099-.02.094-.007h3.779l.001-3.735c0-.316.21-.582.5-.666l.099-.02L14.02 0h4.428ZM4.427 14.668H1.385v3.042h3.042v-3.042Zm4.428-4.428H5.813v7.47h3.042v-7.47Zm4.427-4.427H10.24V17.71h3.042V5.813Zm4.473-4.427h-3.042V17.71h3.042V1.386Z" fill="#264D6D" fill-rule="nonzero"/></svg>