<svg width="20" height="20" xmlns="http://www.w3.org/2000/svg"><g fill="#90A9C0" fill-rule="nonzero"><path d="M3.33 2.672h3.34V.668c0-.371.297-.668.668-.668.361 0 .668.297.668.668v2.004h1.326V.668C9.332.297 9.638 0 10 0c.371 0 .668.297.668.668v2.004h1.336V.668c0-.371.297-.668.668-.668.361 0 .668.297.668.668v2.004h3.33c.37 0 .668.296.668.658v3.34h2.003a.67.67 0 0 1 0 1.336h-2.003v1.326h2.003a.67.67 0 0 1 0 1.336h-2.003v1.336h2.003a.67.67 0 0 1 0 1.336h-2.003v3.33a.665.665 0 0 1-.668.668h-3.33v2.003a.67.67 0 0 1-1.336 0v-2.003h-1.336v2.003a.67.67 0 0 1-1.336 0v-2.003H8.006v2.003a.67.67 0 0 1-1.336 0v-2.003H3.33a.663.663 0 0 1-.658-.668v-3.33H.668A.671.671 0 0 1 0 12.672c0-.371.297-.668.668-.668h2.004v-1.336H.668A.665.665 0 0 1 0 10c0-.362.297-.668.668-.668h2.004V8.006H.668A.671.671 0 0 1 0 7.338c0-.371.297-.668.668-.668h2.004V3.33c0-.362.296-.658.658-.658Zm12.671 1.326H3.998v12.004H16V3.998Z"/><path d="m6.86 10.77-.265.8H5.7L7 8h1.135l1.3 3.57h-.91l-.27-.8H6.86Zm.705-2.06h-.02l-.475 1.44h.98l-.485-1.44ZM11.435 8c.417 0 .74.104.972.313.232.208.348.495.348.862 0 .37-.116.66-.348.867-.231.209-.555.313-.972.313h-.86v1.215h-.85V8h1.71Zm-.15 1.695c.197 0 .346-.046.447-.137a.489.489 0 0 0 .153-.383.477.477 0 0 0-.155-.38c-.103-.09-.252-.135-.445-.135h-.71v1.035h.71ZM13.16 8h.85v3.57h-.85z"/></g></svg>