<svg width="21" height="19" xmlns="http://www.w3.org/2000/svg"><path d="M19.49 0C20.323 0 21 .67 21 1.493v3.196c0 .823-.677 1.493-1.51 1.493H11.2v1.024h8.29c.833 0 1.51.67 1.51 1.493v3.196c0 .823-.677 1.493-1.51 1.493H11.2v1.025h1.883c.386 0 .7.31.7.692v.91h6.376c.386 0 .7.309.7.692a.696.696 0 0 1-.7.692h-6.376v.909a.696.696 0 0 1-.7.692H7.917c-.386 0-.7-.31-.7-.692v-.909H.842c-.387 0-.7-.31-.7-.692 0-.383.313-.693.7-.693h6.375v-.91c0-.382.314-.691.7-.691H9.8v-1.025H1.51c-.833 0-1.51-.67-1.51-1.493V8.699c0-.823.677-1.493 1.51-1.493H9.8V6.182H1.51C.677 6.182 0 5.512 0 4.689V1.493C0 .67.677 0 1.51 0Zm-7.107 15.797H8.617v1.818h3.766v-1.818Zm7.107-7.206H1.51a.11.11 0 0 0-.11.108v3.196c0 .06.05.109.11.109h17.98a.11.11 0 0 0 .11-.11V8.7a.11.11 0 0 0-.11-.108Zm-1.71.9c.451 0 .816.36.816.806a.81.81 0 0 1-.815.806.81.81 0 0 1-.815-.806.81.81 0 0 1 .815-.806Zm1.71-8.106H1.51a.11.11 0 0 0-.11.108v3.196c0 .06.05.108.11.108h17.98a.11.11 0 0 0 .11-.108V1.493a.11.11 0 0 0-.11-.108Zm-1.71.9c.451 0 .816.36.816.806a.81.81 0 0 1-.815.806.81.81 0 0 1-.815-.806.81.81 0 0 1 .815-.806Z" fill="#264D6D" fill-rule="nonzero"/></svg>