<svg class="automation" width="22" height="19" xmlns="http://www.w3.org/2000/svg"><path d="M11.035 0c1.182 0 2.132.94 2.132 2.111 0 .918-.626 1.721-1.46 1.996v1.744h5.1c1.483 0 2.712 1.194 2.712 2.685v.941h.811c.928 0 1.693.757 1.67 1.698v2.387c0 .917-.766 1.675-1.693 1.675h-.811v1.078c0 1.469-1.206 2.685-2.712 2.685H5.216c-1.484 0-2.712-1.193-2.712-2.685v-1.101h-.812C.765 15.214 0 14.457 0 13.539v-2.387c0-.918.765-1.675 1.692-1.675h.858v-.94c0-1.47 1.205-2.686 2.712-2.686h5.1V4.107a2.112 2.112 0 0 1-1.46-1.996C8.902.941 9.852 0 11.035 0Zm5.772 7.182H5.239c-.765 0-1.368.62-1.368 1.354v7.78c0 .756.626 1.353 1.368 1.353h11.545c.765 0 1.367-.62 1.367-1.354h.023V8.536c0-.757-.625-1.354-1.367-1.354Zm-4.312 7.39a.67.67 0 0 1 .672.665.67.67 0 0 1-.672.665H9.528a.67.67 0 0 1-.673-.665.67.67 0 0 1 .673-.666ZM2.504 10.83h-.812a.355.355 0 0 0-.347.344v2.364c0 .183.162.344.347.344h.812V10.83Zm17.803 0h-.811v3.052h.811c.186 0 .348-.16.348-.344v-2.364a.355.355 0 0 0-.348-.344ZM8.16 8.972c1.205 0 2.202.964 2.202 2.18 0 1.193-.997 2.18-2.202 2.18s-2.202-.987-2.202-2.18.997-2.18 2.202-2.18Zm5.703-.023a2.19 2.19 0 0 1 2.202 2.18c0 1.193-.997 2.18-2.202 2.18-1.206 0-2.203-.987-2.203-2.18a2.19 2.19 0 0 1 2.203-2.18ZM8.16 10.28a.837.837 0 0 0-.858.85c0 .481.394.848.858.848a.851.851 0 0 0 .858-.849.851.851 0 0 0-.858-.849Zm5.703 0a.837.837 0 0 0-.858.85c0 .481.394.848.858.848a.837.837 0 0 0 .857-.849.851.851 0 0 0-.857-.849ZM11.01 1.33a.778.778 0 0 0-.788.781c0 .436.348.78.788.78.44 0 .789-.344.789-.78a.778.778 0 0 0-.789-.78Z" fill="#264D6D" fill-rule="nonzero"/></svg>