<svg width="8" height="8" xmlns="http://www.w3.org/2000/svg"><defs><filter color-interpolation-filters="auto" id="a"><feColorMatrix in="SourceGraphic" values="0 0 0 0 0.388235 0 0 0 0 0.458824 0 0 0 0 0.552941 0 0 0 1.000000 0"/></filter></defs><g filter="url(#a)" fill="none" fill-rule="evenodd"><g fill="#515A65" fill-rule="nonzero"><path d="M4.63620523 4.42263207L1.47647628 7.8236949c-.21839303.23507347-.5715392.23507347-.7876089 0l-.52507261-.56517661c-.21839303-.23507346-.21839303-.61519225 0-.84776493L2.403485 4 .16379477 1.58924664c-.21839303-.23507346-.21839303-.61519225 0-.84776493L.68886738.1763051c.21839303-.23507347.5715392-.23507347.7876089 0l3.15972895 3.40106283c.21839303.23007189.21839303.61019068 0 .84526414z"/><path d="M3.36379477 4.42263207L6.52352372 7.8236949c.21839303.23507347.5715392.23507347.7876089 0l.52507261-.56517661c.21839303-.23507346.21839303-.61519225 0-.84776493L5.596515 4l2.23969023-2.41075336c.21839303-.23507346.21839303-.61519225 0-.84776493L7.31113262.1763051c-.21839303-.23507347-.5715392-.23507347-.7876089 0L3.36379477 3.57736793c-.21839303.23007189-.21839303.61019068 0 .84526414z"/></g></g></svg>