<svg width="63" height="36" viewBox="0 0 63 36" fill="none" xmlns="http://www.w3.org/2000/svg">
<path d="M55.2766 35.5357H6.9093C5.11038 35.5655 3.37302 34.8809 2.07793 33.632C0.782827 32.3831 0.0356082 30.6718 0 28.873V6.66371C0.0356082 4.86489 0.782827 3.15354 2.07793 1.90465C3.37302 0.655765 5.11038 -0.0288109 6.9093 0.000930069H55.2766C57.0755 -0.0288109 58.8129 0.655765 60.108 1.90465C61.4031 3.15354 62.1503 4.86489 62.1859 6.66371V28.873C62.1503 30.6718 61.4031 32.3831 60.108 33.632C58.8129 34.8809 57.0755 35.5655 55.2766 35.5357ZM6.9093 4.44278C6.3096 4.43267 5.73037 4.6608 5.29863 5.07714C4.86689 5.49348 4.61788 6.06404 4.6062 6.66371V28.873C4.61788 29.4726 4.86689 30.0432 5.29863 30.4595C5.73037 30.8759 6.3096 31.104 6.9093 31.0939H55.2766C55.8763 31.104 56.4556 30.8759 56.8873 30.4595C57.319 30.0432 57.5681 29.4726 57.5797 28.873V6.66371C57.5681 6.06404 57.319 5.49348 56.8873 5.07714C56.4556 4.6608 55.8763 4.43267 55.2766 4.44278H6.9093Z" fill="#2088FF"/>
<path d="M46.0642 15.5474H41.458C40.869 15.5474 40.3041 15.3134 39.8876 14.8969C39.471 14.4804 39.2371 13.9155 39.2371 13.3265C39.2371 12.7375 39.471 12.1726 39.8876 11.7561C40.3041 11.3396 40.869 11.1056 41.458 11.1056H46.0642C46.6532 11.1056 47.2181 11.3396 47.6346 11.7561C48.0511 12.1726 48.2851 12.7375 48.2851 13.3265C48.2851 13.9155 48.0511 14.4804 47.6346 14.8969C47.2181 15.3134 46.6532 15.5474 46.0642 15.5474Z" fill="#2088FF"/>
<path d="M50.6704 24.4311H41.458C40.869 24.4311 40.3041 24.1972 39.8876 23.7806C39.471 23.3641 39.2371 22.7992 39.2371 22.2102C39.2371 21.6212 39.471 21.0563 39.8876 20.6398C40.3041 20.2233 40.869 19.9893 41.458 19.9893H50.6704C51.2594 19.9893 51.8243 20.2233 52.2408 20.6398C52.6573 21.0563 52.8913 21.6212 52.8913 22.2102C52.8913 22.7992 52.6573 23.3641 52.2408 23.7806C51.8243 24.1972 51.2594 24.4311 50.6704 24.4311Z" fill="#2088FF"/>
<path d="M22.6913 17.7683C22.7128 18.8101 22.5193 19.8452 22.1227 20.8088C21.7753 21.6372 21.2436 22.3754 20.5681 22.9675L22.4847 25.2884H19.8418L18.7602 24.0091C18.007 24.2781 17.2125 24.4127 16.4127 24.4067C15.2942 24.4243 14.1899 24.1543 13.2057 23.6227C12.2553 23.0985 11.4765 22.3111 10.9626 21.3551C10.3858 20.2497 10.1029 19.0146 10.1408 17.7683C10.1032 16.5188 10.3877 15.2805 10.967 14.1727C11.4817 13.2184 12.2605 12.4327 13.2101 11.9095C14.2 11.3974 15.2982 11.1301 16.4127 11.1301C17.5272 11.1301 18.6254 11.3974 19.6153 11.9095C20.5662 12.4325 21.3465 13.2182 21.8629 14.1727C22.4439 15.2799 22.7292 16.5185 22.6913 17.7683ZM15.4355 19.7361H17.843L18.838 20.9665C19.1662 20.5756 19.4117 20.1223 19.5598 19.6339C19.7435 19.0295 19.8312 18.4 19.8196 17.7683C19.8969 16.6444 19.5665 15.5303 18.889 14.6302C18.5855 14.2749 18.2053 13.993 17.7772 13.8057C17.3491 13.6184 16.8841 13.5305 16.4172 13.5486C15.9498 13.5315 15.4846 13.6201 15.0563 13.8078C14.6279 13.9954 14.2474 14.2773 13.943 14.6324C13.2669 15.5322 12.9373 16.6454 13.0147 17.7683C12.9379 18.8912 13.2674 20.0042 13.943 20.9043C14.2463 21.2608 14.6266 21.5438 15.0552 21.7319C15.4838 21.92 15.9495 22.0084 16.4172 21.9903C16.6632 21.9911 16.9087 21.9673 17.1501 21.9192L15.4355 19.7361ZM25.7628 24.4311V11.1056H28.5967V22.1791H34.3422V24.4311H25.7628Z" fill="#2088FF"/>
</svg>
