<svg width="19" height="20" xmlns="http://www.w3.org/2000/svg"><g fill="#EA3158" fill-rule="nonzero" stroke="#EA3158" stroke-width=".2"><path d="M2.978 13.624l-1.486 1.49 2.488 2.499 1.486-1.492c.576.344 1.196.6 1.85.768V19h3.519v-2.111a6.998 6.998 0 001.85-.768l1.485 1.492 2.488-2.498-1.486-1.491a7.02 7.02 0 00.765-1.858h2.103V8.234h-2.103a7.027 7.027 0 00-.765-1.858l1.486-1.49-2.488-2.498-1.485 1.49a6.996 6.996 0 00-1.85-.767V1h-3.52v2.111a6.984 6.984 0 00-1.85.767L3.98 2.387 1.492 4.885l1.485 1.491a7.044 7.044 0 00-.763 1.858H.11v3.532h2.103c.166.657.422 1.279.764 1.858zm-1.862-4.38H3.03l.079-.41a6.057 6.057 0 01.923-2.247l.232-.345-1.351-1.357 1.066-1.07 1.353 1.357.343-.233a5.996 5.996 0 012.238-.928l.407-.079V2.01H9.83v1.923l.407.08c.809.157 1.562.469 2.238.927l.344.233 1.352-1.357 1.066 1.07-1.352 1.358.232.345c.457.68.768 1.435.925 2.246l.079.41h1.914v1.513H15.12l-.079.41a6.058 6.058 0 01-.924 2.246l-.232.345 1.352 1.357-1.066 1.07-1.353-1.357-.343.233a6.02 6.02 0 01-2.238.928l-.407.079v1.923H8.321v-1.923l-.407-.079a6.003 6.003 0 01-2.238-.928l-.343-.233-1.353 1.357-1.066-1.07 1.353-1.357-.233-.345a6.051 6.051 0 01-.924-2.247l-.08-.409H1.117V9.243h0z"/><path d="M9.086 13.6a3.148 3.148 0 003.138-3.15A3.148 3.148 0 009.086 7.3a3.147 3.147 0 00-3.137 3.15 3.147 3.147 0 003.137 3.15zm0-5.36a2.21 2.21 0 012.203 2.21 2.21 2.21 0 01-2.203 2.211 2.209 2.209 0 01-2.202-2.21c0-1.22.988-2.212 2.202-2.212z"/></g></svg>