<svg width="16" height="16" xmlns="http://www.w3.org/2000/svg"><g fill="#8DA6BE" fill-rule="nonzero"><path d="M15.9706659 6.29787234c.0624334-.21276596.0208111-.44680851-.0832446-.65957447l-1.956247-3.4680851c-.2289225-.40425532-.7492009-.55319149-1.1446126-.31914894l-1.4567796.85106383c-.1873003-.12765957-.3954116-.23404255-.603523-.34042553V.85106383C10.7262591.38297873 10.3516586 0 9.89381356 0H6.21024213c-.45784504 0-.83244552.38297872-.83244552.85106383v1.46808511c-.24973366.10638297-.4370339.23404255-.60352301.34042553l-1.43596852-.85106383c-.39541162-.23404255-.89487894-.10638298-1.14461259.29787234L.17501209 5.55319149c-.12486682.19148936-.14567796.42553191-.10405568.65957447.06243341.21276595.18730024.40425532.37460048.53191489l1.39434625.85106383C1.819092 7.74468085 1.819092 7.87234043 1.819092 8v.34042553l-1.41515738.82978724c-.1664891.12765957-.31216708.31914893-.37460049.53191489-.06243341.21276596-.02081114.44680854.08324455.65957444l1.95624698 3.4680851c.22892252.4042554.72838983.5531915 1.12380145.319149l1.49840194-.8510639c.18730024.1276596.39541162.2553192.66595642.3829788v1.4680851c0 .4680851.37460048.8510638.83244552.8510638h3.70438257c.45784504 0 .83244554-.3829787.83244554-.8510638v-1.5106383c.1873002-.0851064.3746005-.1914894.5410896-.319149l1.4151574.8510639c.3954116.2340425.91569.1063829 1.1446126-.2978724l1.9978692-3.4468085c.1040557-.1914893.145678-.4255319.0832446-.63829786-.0624335-.21276595-.1873003-.40425532-.3746005-.53191489l-1.3943463-.85106383c.0208112-.14893617.0208112-.27659575.0208112-.40425532 0-.10638298 0-.23404255-.0208112-.34042553l1.4151574-.82978724c.2081114-.10638297.3537894-.29787234.4162228-.53191489zm-.8116344-.21276596l-1.6440799.97872341c-.145678.08510638-.2289225.25531915-.2081114.40425532.0208111.19148936.0208111.36170212.0208111.53191489 0 .19148936-.0208111.38297872-.0416222.59574468-.0208112.17021277.0624334.34042553.2081113.42553192l1.6232688 1-1.9978692 3.4468085-1.6440799-1c-.145678-.0851064-.3121671-.0851064-.4578451.0212766-.2705448.1914894-.5619007.3617021-.8740678.4893617-.14567795.0638298-.24973364.212766-.24973364.3829787v1.7872341H6.18943099v-1.7446809c0-.1702127-.10405569-.3404255-.27054479-.4042553-.41622276-.1489362-.7075787-.3617021-.95731235-.5319149-.08324456-.0638298-.16648911-.0851064-.24973366-.0851064-.06243341 0-.14567797.0212766-.20811138.0638298l-1.70651332.9361702L.84096851 9.91489362l1.64407991-.97872341c.14567797-.08510638.22892252-.25531915.20811138-.40425532C2.67234866 8.34042553 2.67234866 8.17021277 2.67234866 8s.02081114-.36170213.04162228-.59574468c.02081114-.17021277-.06243342-.34042553-.20811138-.42553192l-1.62326877-1 2.01868039-3.44680851 1.66489104 1c.14567797.08510639.33297821.08510639.45784504-.02127659.27054479-.21276596.52027845-.36170213.89487894-.5106383.1664891-.06382979.27054479-.21276596.27054479-.40425532V.82978723h3.70438257v1.78723405c0 .17021276.10405569.31914893.24973364.38297872.3329782.14893617.6451453.31914894.9156901.53191489.1248668.10638298.3121671.10638298.4370339.0212766l1.6857022-.9787234 1.9770581 3.51063829.3954116.10638298-.3954116-.10638298z"/><path d="M7.94074074 5.03703704c-1.65925926 0-3.02222222 1.36296296-3.02222222 3.02222222 0 1.65925926 1.36296296 3.02222224 3.02222222 3.02222224 1.65925926 0 3.02222226-1.36296298 3.02222226-3.02222224S9.6 5.03703704 7.94074074 5.03703704zm0 5.25432096c-1.22469136 0-2.23209876-1.00740738-2.23209876-2.23209874s1.0074074-2.23209877 2.23209876-2.23209877S10.1728395 6.8345679 10.1728395 8.05925926c0 1.24444444-1.0074074 2.23209874-2.23209876 2.23209874z"/></g></svg>