<svg width="17" height="17" xmlns="http://www.w3.org/2000/svg"><path d="M6.485 15.89a3.808 3.808 0 0 1-5.375 0 3.808 3.808 0 0 1 0-5.375l3.36-3.359a3.802 3.802 0 0 1 5.159-.204.715.715 0 0 1-.93 1.086 2.354 2.354 0 0 0-3.222.126l-3.36 3.36c-.938.939-.938 2.42 0 3.358.94.94 2.42.94 3.36 0l3.19-3.19a.714.714 0 1 1 1.009 1.007l-3.191 3.19Zm6.046-6.046a3.802 3.802 0 0 1-5.16.204.715.715 0 1 1 .93-1.086c.939.808 2.326.77 3.222-.126l3.36-3.36c.939-.938.939-2.419 0-3.358-.94-.94-2.42-.94-3.36 0l-3.19 3.19a.712.712 0 1 1-1.009-1.007l3.191-3.19a3.808 3.808 0 0 1 5.375 0 3.808 3.808 0 0 1 0 5.374l-3.36 3.359Z" fill="#90A9C0" fill-rule="nonzero"/></svg>