<svg width="72" height="72" viewBox="0 0 72 72" fill="none" xmlns="http://www.w3.org/2000/svg">
<path d="M36.0445 0.00562586L36.0159 0.0130932L33.8156 13.9342L33.9164 18.7555L34.9692 21.4492L36.1098 23.6259L37.144 21.3776L38.4887 16.5837L36.0886 0.206606L36.0445 0.00562586ZM10.3309 2.73235L10.5443 3.21958C13.1404 9.14455 19.4211 22.9147 19.7841 23.477C19.8736 23.6158 20.4173 23.5348 21.7056 23.1896L23.5027 22.7079L23.2377 22.189C23.0921 21.9035 22.2341 20.4384 21.331 18.9333C19.8337 16.4378 18.2052 13.4139 18.2845 13.2762C18.3021 13.2456 18.9109 13.3534 19.6372 13.5152L20.9577 13.8089L17.9976 10.5439C15.2512 7.51505 11.6591 3.81481 10.7285 3.05639L10.3309 2.73235ZM61.5669 2.90533C61.2345 2.89763 56.175 8.06343 52.6794 11.9932C51.9542 12.8087 51.3491 13.5194 51.3347 13.573C51.3204 13.6267 51.8329 13.5492 52.4734 13.4007C53.114 13.2521 53.6741 13.1936 53.7186 13.2706C53.8383 13.478 52.6855 15.6502 50.6845 18.9867C49.7089 20.6134 48.8721 22.0878 48.8252 22.2629C48.7471 22.5544 48.8902 22.6215 50.5177 23.0576C51.4957 23.3196 52.3128 23.4774 52.3328 23.4079C52.3531 23.3384 52.747 22.4839 53.2084 21.5094C56.6913 14.1537 61.6042 3.25135 61.584 2.92236C61.5835 2.91117 61.577 2.90558 61.5669 2.90533ZM61.1555 25.496L59.8818 25.6111C57.2515 25.8496 55.4011 27.5238 55.0008 30.0273L54.8595 30.9128L54.045 30.7753C52.2965 30.4798 49.8651 31.7374 48.8684 33.4528C48.4695 34.1394 48.4695 34.1483 48.8684 33.978C49.7434 33.6045 51.9339 33.5953 52.892 33.9612C54.737 34.6658 56.394 36.9987 57.0612 39.8309C57.449 41.4774 57.4039 44.763 56.9702 46.4341C56.281 49.0895 54.4984 51.2296 52.513 51.7856C52.0201 51.9236 50.8504 52.0312 49.9132 52.0245C45.8823 51.9955 42.9885 49.7664 40.0133 44.3977C39.425 43.3364 38.9442 42.4021 38.9442 42.3213L33.2133 42.1738L32.2456 44.0374C30.3339 47.7199 28.2943 49.8928 25.5256 51.197C23.7309 52.0425 20.7813 52.2509 19.1935 51.6444C16.3409 50.555 14.6628 47.3782 14.6628 43.0652C14.6628 38.9094 16.2235 35.5926 18.8164 34.2378C19.708 33.7719 21.4201 33.6284 22.6943 33.913C23.2811 34.0441 23.3586 34.0144 23.2481 33.7002C22.6934 32.123 20.6354 30.8897 18.2756 30.7209L16.7927 30.6151V29.785C16.7927 28.1965 15.8008 26.7756 14.2371 26.1249C13.4558 25.7998 12.7793 25.7124 11.3617 25.7528L10.5098 25.7771L11.5204 26.3607C13.2467 27.3581 14.2466 29.4557 14.2278 32.0418C14.217 33.5947 13.8774 34.6225 13.0169 35.7144C10.1792 39.3152 8.36729 47.4102 9.44769 51.6605C9.95002 53.6367 11.1593 55.8901 12.4917 57.3335C15.3487 60.4284 19.0438 61.8171 23.0858 61.3154C26.244 60.9233 28.5436 59.6536 31.5751 56.6266C32.6178 55.5857 33.5016 54.7648 33.5396 54.8028C33.5776 54.8407 33.5112 55.4796 33.3915 56.2228C33.0951 58.0635 33.8555 60.7699 32.0256 62.7281L30.8713 64.6446L31.4762 65.1773C32.7029 66.2579 33.5274 67.6181 34.0816 69.7739C34.6316 71.9682 37.2141 72.2113 37.9526 69.8175C38.4882 67.9208 39.2681 66.4106 40.3459 65.0616L41.034 64.2004L40.3925 63.3578C39.1982 61.7888 39.1662 58.7863 38.713 56.5676C38.3128 54.6084 38.3136 53.851 38.7143 54.4992C38.8092 54.6528 39.4504 55.4227 40.1399 56.2098C43.4443 59.982 46.3545 61.4335 50.5522 61.4038C54.8783 61.3732 58.3384 59.4731 60.7955 55.7775C62.3622 53.4208 62.8779 51.7036 62.867 48.8836C62.8519 44.9695 62.0596 42.1216 59.6462 37.3111L58.0078 34.0449V31.8794C58.0078 29.9444 58.0703 29.5861 58.5977 28.5124C58.9222 27.8516 59.6306 26.9026 60.172 26.4036L61.1555 25.496Z" fill="#19A187"/>
<path opacity="0.2" d="M10.3314 2.7323L10.5448 3.21967C10.8276 3.86521 11.1696 4.63634 11.5275 5.44084C12.9928 6.84816 15.7636 9.73039 17.9983 12.1949L19.0907 13.3999C19.2597 13.4339 19.4429 13.4724 19.638 13.5159L20.9583 13.8095L17.9984 10.5446C15.2521 7.51576 11.6599 3.81553 10.7293 3.0571L10.3314 2.7323ZM61.5674 2.90539C61.235 2.89769 56.1755 8.0636 52.68 11.9932C51.9547 12.8087 51.3496 13.5192 51.3352 13.573C51.3208 13.6267 51.8335 13.5491 52.474 13.4006C52.6587 13.3577 52.8308 13.3248 52.9917 13.2981C55.6024 10.3838 58.9363 6.92132 60.5797 5.37311C61.1944 3.96266 61.5902 3.01269 61.5847 2.92143C61.5847 2.91024 61.5774 2.90491 61.5673 2.90468L61.5674 2.90539ZM53.5957 14.8882C53.4704 14.8827 53.2544 14.9058 53.0014 14.9475C52.478 15.9342 51.6883 17.3137 50.6847 18.987C49.709 20.6138 48.8724 22.088 48.8255 22.2632C48.7705 22.4686 48.8374 22.5648 49.4443 22.7551C49.7777 22.1692 50.2126 21.4246 50.6847 20.6374C52.6857 17.301 53.8385 15.1286 53.7188 14.9213C53.7077 14.9021 53.6645 14.8912 53.5957 14.8882ZM18.318 14.9217C18.2982 14.9214 18.2867 14.9231 18.2845 14.927C18.2052 15.0643 19.8338 18.0884 21.3312 20.5841C21.8578 21.4618 22.35 22.2955 22.7137 22.9201L23.5028 22.7086L23.2378 22.1897C23.0922 21.9042 22.2342 20.4388 21.3312 18.9338C20.542 17.6185 19.7234 16.1673 19.1306 15.0584C18.7279 14.9765 18.4174 14.9234 18.318 14.9217ZM61.1555 25.4956L59.8817 25.6107C57.2515 25.8492 55.4009 27.5235 55.0006 30.027L54.8594 30.9125L54.0449 30.7751C52.2964 30.4797 49.8649 31.737 48.8682 33.4524C48.4693 34.1391 48.4693 34.1481 48.8682 33.9778C49.1582 33.8541 49.594 33.7714 50.0802 33.728C51.2489 32.7801 52.8148 32.2177 54.0449 32.4255L54.8594 32.5628L55.0006 31.6773C55.3736 29.345 57.0057 27.7331 59.3537 27.3307C59.6251 26.9734 59.9164 26.6379 60.1712 26.403L61.1555 25.4956ZM11.8599 25.7438C11.7043 25.7446 11.5385 25.7478 11.3613 25.7528L10.5094 25.777L11.5202 26.3607C11.9959 26.6355 12.4142 26.9966 12.7735 27.4257C13.3417 27.474 13.7723 27.5818 14.2369 27.7751C15.8005 28.4257 16.7926 29.8467 16.7926 31.4352V32.2656L18.2753 32.3713C19.7868 32.4794 21.172 33.0255 22.1201 33.8175C22.3178 33.8411 22.5106 33.872 22.6939 33.913C23.2808 34.0441 23.3581 34.0144 23.2476 33.7002C22.693 32.123 20.6351 30.8897 18.2753 30.7209L16.7926 30.6149V29.7849C16.7926 28.1964 15.8005 26.7754 14.2369 26.1248C13.5532 25.8403 12.9498 25.7379 11.8599 25.7438ZM14.191 32.7992C14.0837 33.9497 13.7289 34.8108 13.0165 35.7147C10.6048 38.7749 8.9352 45.08 9.15108 49.5136C9.34173 45.2784 10.8914 40.0617 13.0165 37.3655C13.8769 36.2736 14.2166 35.2457 14.2275 33.6929C14.2296 33.3878 14.2167 33.0897 14.191 32.7992ZM58.007 34.0447V35.6951L59.6454 38.9613C61.8898 43.435 62.7313 46.2118 62.8504 49.7265C62.8613 49.4552 62.8676 49.1764 62.8666 48.8833C62.8515 44.9692 62.0589 42.1212 59.6455 37.3108L58.007 34.0447ZM33.2133 42.1733L32.2457 44.0369C30.3339 47.7194 28.2945 49.8923 25.5257 51.1966C23.7309 52.042 20.7813 52.2504 19.1936 51.644C16.5265 50.6254 14.8865 47.7819 14.6845 43.8912C14.6706 44.162 14.6632 44.4365 14.6632 44.7151C14.6632 49.0279 16.341 52.2042 19.1935 53.2943C20.7815 53.9007 23.7311 53.6923 25.5256 52.8469C28.2947 51.5424 30.3341 49.3697 32.2457 45.6873L33.2133 43.8236L38.9443 43.9712C38.9443 44.0521 39.4252 44.9863 40.0135 46.0476C42.989 51.4161 45.8827 53.6452 49.9134 53.6744C50.8506 53.6812 52.0201 53.5736 52.513 53.4356C54.4984 52.8796 56.2811 50.7393 56.9702 48.0841C57.2531 46.9943 57.3694 45.219 57.3093 43.6581C57.2695 44.7089 57.1557 45.7191 56.9702 46.4337C56.281 49.0891 54.4984 51.2294 52.513 51.7852C52.0201 51.9232 50.8506 52.0307 49.9134 52.024C45.8825 51.995 42.9887 49.7659 40.0135 44.3972C39.4252 43.3359 38.9443 42.4017 38.9443 42.3208L33.2133 42.1733ZM38.4887 55.9238C38.3382 55.9552 38.4128 56.7484 38.713 58.2178C39.166 60.4352 39.1981 63.4358 40.3904 65.0054L41.0339 64.2002L40.3924 63.3576C39.1981 61.7886 39.1663 58.786 38.7131 56.5674C38.6708 56.3604 38.6352 56.1743 38.6019 55.9943C38.5562 55.9432 38.5177 55.9177 38.4887 55.9238ZM33.5396 56.453C33.5297 56.4432 33.4584 56.4959 33.3465 56.5907C33.1828 58.4108 33.7371 60.8965 32.0255 62.7277L30.8713 64.6444L31.4759 65.1769C31.491 65.19 31.5052 65.2038 31.5201 65.2171L32.0255 64.3781C33.8554 62.4202 33.0948 59.7139 33.3912 57.8728C33.5108 57.1296 33.5776 56.491 33.5396 56.453Z" fill="white"/>
<path opacity="0.3" d="M10.3315 2.73224L10.5449 3.21961C13.141 9.14458 19.4217 22.9148 19.7852 23.4771C19.8747 23.6158 20.4183 23.5348 21.7066 23.1896L23.5037 22.708L23.2387 22.189C23.1781 22.0701 22.9745 21.7154 22.7146 21.2691L21.7067 21.5393C20.4183 21.8845 19.8747 21.9655 19.7853 21.8268C19.4618 21.3251 14.455 10.3701 11.5282 3.79037C11.1925 3.46798 10.9029 3.19782 10.7295 3.05639L10.3315 2.73224ZM61.5675 2.90533C61.487 2.90345 61.1253 3.20972 60.5798 3.72344C58.9724 7.41156 55.7288 14.5386 53.2098 19.8593C52.7484 20.8337 52.3542 21.6884 52.3339 21.7578C52.3138 21.8273 51.4969 21.6694 50.5189 21.4074C50.0385 21.2787 49.6994 21.1841 49.4452 21.1044C49.0897 21.7292 48.8505 22.1725 48.8263 22.2629C48.7483 22.5543 48.8914 22.6217 50.5189 23.0577C51.4969 23.3198 52.3139 23.4776 52.3339 23.4081C52.3542 23.3386 52.7483 22.484 53.2098 21.5096C56.6927 14.1539 61.6051 3.25155 61.5854 2.92203C61.5854 2.91084 61.5781 2.90551 61.568 2.90527L61.5675 2.90533ZM53.5958 11.5871C53.4688 11.5816 53.2494 11.6048 52.9918 11.6477C52.89 11.7613 52.7794 11.8816 52.6801 11.9932C51.9548 12.8088 51.3497 13.5192 51.3353 13.573C51.3209 13.6267 51.8336 13.5491 52.4741 13.4006C52.6627 13.3568 52.8379 13.3237 53.0014 13.2968C53.5216 12.3161 53.7786 11.7237 53.7189 11.6203C53.7079 11.6011 53.6646 11.5901 53.5958 11.5871ZM18.3181 11.6206C18.2983 11.6203 18.2868 11.622 18.2845 11.6259C18.2471 11.6908 18.5987 12.4124 19.1307 13.4075C19.288 13.4394 19.4589 13.4757 19.6374 13.5155L20.9577 13.8091L19.0901 11.7491C18.7087 11.6722 18.4139 11.6223 18.3181 11.6206ZM33.5472 15.9502C33.4104 17.3079 33.5242 17.835 33.9169 18.7545C34.164 19.333 34.6379 20.5451 34.9697 21.4482C35.7223 23.4969 35.8998 23.8355 36.1104 23.6249C36.2005 23.5348 36.6656 22.5231 37.1444 21.3766C38.4526 18.2439 38.6027 17.7097 38.4893 16.5829C38.4762 16.4526 38.4606 16.3036 38.4473 16.1719C38.3081 16.8733 37.9422 17.8159 37.1445 19.7263C36.6657 20.8728 36.2005 21.8845 36.1104 21.9745C35.8998 22.1851 35.7223 21.8465 34.9697 19.7978C34.6379 18.8947 34.1641 17.6826 33.9169 17.1041C33.7337 16.675 33.6122 16.3316 33.5472 15.9502ZM61.1561 25.4956L59.8823 25.6107C59.7025 25.627 59.5267 25.6508 59.3543 25.6803C59.0491 26.0821 58.769 26.5118 58.5972 26.8616C58.0698 27.9353 58.0073 28.2934 58.0073 30.2284V31.8787C58.0073 29.9437 58.0698 29.5857 58.5972 28.512C58.9218 27.8511 59.6303 26.902 60.1718 26.4029L61.1561 25.4956ZM11.8606 25.7438C11.7049 25.7446 11.5391 25.7479 11.3619 25.7529L10.51 25.777L11.5208 26.3608C13.0435 27.2405 13.9998 28.9767 14.1917 31.1487C14.214 30.9095 14.2263 30.6588 14.2281 30.3915C14.2417 28.5179 13.7186 26.9036 12.7741 25.7754C12.5061 25.7526 12.2099 25.7419 11.8606 25.7438ZM50.8502 32.0419C50.5883 32.0432 50.3287 32.0559 50.0814 32.078C49.5887 32.4776 49.1649 32.9441 48.8694 33.4527C48.4705 34.1394 48.4705 34.1485 48.8694 33.9782C49.7444 33.6047 51.935 33.5954 52.8931 33.9614C54.7381 34.666 56.395 36.9988 57.0622 39.8311C57.197 40.4036 57.2783 41.1757 57.3104 42.0078C57.3637 40.6017 57.2841 39.123 57.0622 38.1807C56.395 35.3484 54.7382 33.0157 52.8931 32.311C52.4141 32.128 51.6269 32.0386 50.8502 32.0419ZM21.1429 32.118C20.2519 32.1314 19.3742 32.2967 18.8169 32.5879C16.224 33.9429 14.6634 37.2594 14.6634 41.4153C14.6634 41.6959 14.6707 41.9711 14.6847 42.2418C14.8777 38.4743 16.3978 35.502 18.8169 34.2382C19.7086 33.7722 21.4205 33.6286 22.6946 33.9133C23.2816 34.0444 23.3589 34.0147 23.2484 33.7005C23.049 33.1334 22.6532 32.6119 22.1209 32.1672C21.8033 32.1294 21.4725 32.113 21.1429 32.118ZM9.15213 47.8631C9.08819 49.2834 9.17703 50.5932 9.44835 51.6605C9.95068 53.6368 11.16 55.8905 12.4925 57.3341C15.3495 60.429 19.0446 61.8177 23.0871 61.3159C26.2453 60.9238 28.5443 59.6542 31.5764 56.6272C32.3483 55.8566 33.029 55.211 33.348 54.9408C33.3594 54.815 33.3736 54.6921 33.3928 54.573C33.5124 53.8298 33.5791 53.1908 33.541 53.1528C33.503 53.1149 32.6191 53.9359 31.5764 54.9769C28.5445 58.0039 26.2451 59.2735 23.087 59.6656C19.045 60.1674 15.3502 58.7786 12.4925 55.6838C11.16 54.2403 9.95069 51.9867 9.44834 50.0102C9.28614 49.3721 9.19026 48.6464 9.15213 47.8631ZM62.8532 48.0765C62.7597 50.4148 62.2015 52.0157 60.7977 54.1275C58.3407 57.8233 54.8807 59.7235 50.5544 59.7537C46.3566 59.7835 43.4469 58.3319 40.1421 54.5597C39.4526 53.7727 38.8116 53.0026 38.7168 52.8491C38.3585 52.2693 38.3221 52.8215 38.6043 54.3444C38.6376 54.3818 38.6745 54.431 38.7168 54.4995C38.8117 54.653 39.4527 55.423 40.1421 56.2101C43.4465 59.9823 46.3567 61.4338 50.5544 61.4042C54.8805 61.3737 58.3406 59.4737 60.7977 55.7779C62.3644 53.4212 62.8802 51.704 62.8693 48.8835C62.8677 48.6093 62.8622 48.3413 62.8532 48.0765ZM40.3932 63.3556L40.3484 63.4117C39.2707 64.7608 38.491 66.2709 37.9554 68.1677C37.2169 70.5614 34.6341 70.3185 34.0842 68.1242C33.5368 65.9947 32.7249 64.6419 31.5229 63.5677L30.8741 64.6452L31.4787 65.1777C32.7054 66.2583 33.53 67.6187 34.0842 69.7745C34.6341 71.9688 37.2168 72.2118 37.9554 69.818C38.491 67.9213 39.2707 66.4113 40.3484 65.0624L41.0366 64.2011L40.3952 63.3585C40.3952 63.3575 40.3936 63.3567 40.3932 63.3556Z" fill="black"/>
<path opacity="0.3" d="M45.57 58.3621L44.835 55.2008C44.4307 53.4621 44.1893 51.9502 44.2984 51.841C44.4075 51.7318 45.4296 51.8538 46.5696 52.11C49.1343 52.6884 50.9646 51.6089 50.9646 49.5177C50.9646 48.7295 51.4733 47.438 52.095 46.6477C53.5163 44.8408 53.5163 43.9333 52.095 42.1263C50.6282 40.2616 50.6694 39.2484 52.3776 35.19C54.8789 29.2469 53.9261 24.0596 49.5246 19.6584C42.5696 12.7034 30.3662 12.5009 23.1821 19.2206C18.1098 23.9652 17.0419 28.554 19.5975 34.6246C21.3325 38.7467 21.3514 39.7427 19.7471 42.5299L18.4837 44.725L19.7471 46.4339C20.4419 47.3737 21.0104 48.6617 21.0104 49.2959C21.0104 49.9301 21.4972 50.936 22.0922 51.5309C22.9874 52.4262 23.5452 52.529 25.3261 52.1273C26.5097 51.8604 27.5716 51.7353 27.6856 51.8495C27.7997 51.9635 27.5756 53.4755 27.1877 55.2092L26.4822 58.3616C25.1943 62.9762 46.9976 62.9413 45.57 58.3621ZM23.8568 47.0957C23.535 46.4945 23.2717 45.1005 23.2717 43.998C23.2717 40.7414 25.9931 40.5695 31.1042 43.5034C34.0041 45.168 33.6921 45.8006 29.2467 47.2689C25.6315 48.463 24.5703 48.429 23.8568 47.0957ZM42.2519 47.0511C38.2133 45.4741 38.0785 45.1109 40.9157 43.4482C44.0361 41.6195 46.5117 41.1011 48.0902 41.9457C49.1261 42.5002 49.2529 42.9123 48.9333 44.6871C48.2431 48.5198 47.0734 48.9337 42.2519 47.0511Z" fill="black"/>
<path d="M45.57 56.7093L44.835 53.5479C44.4307 51.8092 44.1893 50.2973 44.2984 50.1881C44.4075 50.079 45.4296 50.201 46.5696 50.4571C49.1343 51.0356 50.9646 49.956 50.9646 47.8649C50.9646 47.0767 51.4733 45.7852 52.095 44.9949C53.5163 43.1879 53.5163 42.2804 52.095 40.4735C50.6282 38.6088 50.6694 37.5955 52.3776 33.5371C54.8789 27.5941 53.9261 22.4068 49.5246 18.0056C42.5696 11.0506 30.3662 10.8481 23.1821 17.5678C18.1098 22.3123 17.0419 26.9012 19.5975 32.9718C21.3325 37.0939 21.3514 38.0898 19.7471 40.877L18.4837 43.0722L19.7471 44.781C20.4419 45.7209 21.0104 47.0089 21.0104 47.6431C21.0104 48.2773 21.4972 49.2831 22.0922 49.8781C22.9874 50.7734 23.5452 50.8762 25.3261 50.4745C26.5097 50.2075 27.5716 50.0825 27.6856 50.1966C27.7997 50.3106 27.5756 51.8227 27.1877 53.5564L26.4822 56.7087C25.1943 61.3233 46.9976 61.2885 45.57 56.7093ZM23.8568 45.4429C23.535 44.8416 23.2717 43.4477 23.2717 42.3452C23.2717 39.0886 25.9931 38.9167 31.1042 41.8505C34.0041 43.5152 33.6921 44.1477 29.2467 45.6161C25.6315 46.8102 24.5703 46.7761 23.8568 45.4429ZM42.2519 45.3982C38.2133 43.8213 38.0785 43.458 40.9157 41.7954C44.0361 39.9666 46.5117 39.4482 48.0902 40.2929C49.1261 40.8473 49.2529 41.2595 48.9333 43.0343C48.2431 46.867 47.0734 47.2808 42.2519 45.3982Z" fill="url(#paint0_radial_601_64)"/>
<path opacity="0.2" d="M36.1641 29.0312C43.3407 29.0312 49.1584 25.5466 49.1584 21.2482C49.1584 16.9497 43.3407 13.4651 36.1641 13.4651C28.9876 13.4651 23.1699 16.9497 23.1699 21.2482C23.1699 25.5466 28.9876 29.0312 36.1641 29.0312Z" fill="url(#paint1_linear_601_64)"/>
<path opacity="0.3" d="M18.2957 26.3084C18.137 28.3635 18.578 30.5502 19.5979 32.9737C20.2743 34.5808 20.6887 35.7118 20.8489 36.6599C21.1098 35.3023 20.7013 33.9449 19.5979 31.3233C18.846 29.537 18.4105 27.8798 18.2957 26.3084ZM53.7084 26.5695C53.5979 28.269 53.155 30.0424 52.3779 31.8886C51.2389 34.5947 50.8419 35.9465 51.1382 37.1C51.3098 36.2166 51.7182 35.1061 52.3779 33.5389C53.4102 31.0862 53.8524 28.7625 53.7084 26.5695ZM25.526 38.1213C24.0397 38.107 23.2716 38.9667 23.2716 40.6967C23.2716 40.9928 23.2918 41.3096 23.3258 41.6267C23.7245 39.085 26.402 39.1533 31.104 41.8523C31.6434 42.1619 32.0712 42.436 32.3824 42.6862C33.5316 41.9497 33.018 41.3007 31.104 40.202C28.7082 38.8267 26.8375 38.1339 25.526 38.1213ZM46.3548 38.2502C44.9012 38.2515 43.0608 38.8895 40.9156 40.1468C38.9252 41.3133 38.4049 41.8411 39.6618 42.5962C39.9765 42.3631 40.395 42.1023 40.9156 41.7971C44.0361 39.9684 46.5116 39.4501 48.0901 40.2948C48.5591 40.5457 48.8402 40.7687 48.9795 41.1009C49.2292 39.5768 49.0651 39.1662 48.0901 38.6444C47.5969 38.3805 47.0156 38.2496 46.3548 38.2502ZM52.9899 41.9106C52.8196 42.3407 52.523 42.8024 52.0951 43.3463C51.4734 44.1367 50.9647 45.4282 50.9647 46.2164C50.9647 48.3075 49.1344 49.3871 46.5697 48.8086C45.4297 48.5524 44.4076 48.4303 44.2985 48.5395C44.229 48.609 44.3029 49.2501 44.4694 50.1541C44.8194 50.1357 45.6519 50.2527 46.5697 50.459C49.1344 51.0374 50.9647 49.9579 50.9647 47.8668C50.9647 47.0786 51.4735 45.7871 52.0951 44.9967C53.0886 43.7336 53.3854 42.9091 52.9899 41.9106ZM19.018 42.1466L18.4839 43.0746L19.7475 44.7833C20.4423 45.7232 21.0107 47.011 21.0107 47.6454C21.0107 48.2796 21.4975 49.2855 22.0924 49.8804C22.9877 50.7756 23.5455 50.8784 25.3264 50.4767C26.3053 50.256 27.1922 50.1347 27.5373 50.1631C27.6935 49.2618 27.7584 48.6211 27.6859 48.5485C27.5717 48.4344 26.51 48.5594 25.3264 48.8264C23.5455 49.228 22.9875 49.1252 22.0924 48.23C21.4975 47.635 21.0107 46.6293 21.0107 45.995C21.0107 45.3608 20.4423 44.0728 19.7475 43.133L19.018 42.1466ZM26.6166 56.1134L26.4829 56.7104C25.1949 61.325 46.9981 61.2896 45.5705 56.7104L45.4413 56.154C43.5554 59.2949 28.4662 59.3016 26.6166 56.1134Z" fill="black"/>
<defs>
<radialGradient id="paint0_radial_601_64" cx="0" cy="0" r="1" gradientUnits="userSpaceOnUse" gradientTransform="translate(35.5887 35.4548) scale(17.7369 23.7505)">
<stop stop-color="#0CA15E"/>
<stop offset="1" stop-color="#087142"/>
</radialGradient>
<linearGradient id="paint1_linear_601_64" x1="35.9396" y1="14.8119" x2="35.9396" y2="29.2233" gradientUnits="userSpaceOnUse">
<stop stop-color="white"/>
<stop offset="1" stop-color="white" stop-opacity="0"/>
</linearGradient>
</defs>
</svg>
