<svg width="19" height="23" xmlns="http://www.w3.org/2000/svg"><g fill-rule="nonzero" fill="none"><path d="M15.994 6.333 16 6.34h-.006V19H0V0h10.41l5.584 5.527v.806Zm-1.6.006H9.597V1.583H1.6v15.834h12.796V6.339h-.002ZM3.2 8.71V7.124h5.598v1.583H3.199l.001.003Zm0 3.166v-1.583h9.596v1.583H3.2Zm0 3.167v-1.584h9.596v1.584H3.2ZM11.223 4.75h1.572l-1.572-1.557V4.75Z" fill="#90A9C0"/><g stroke="#90A9C0"><path d="m7.079 18.117-1.077 1.077 1.804 1.804 1.077-1.077c.418.248.867.434 1.341.554V22h2.552v-1.525c.474-.12.923-.306 1.341-.554l1.077 1.077 1.804-1.804-1.077-1.077c.248-.418.434-.868.554-1.342H18v-2.55h-1.525a5.064 5.064 0 0 0-.554-1.342l1.077-1.077-1.804-1.804-1.077 1.077a5.084 5.084 0 0 0-1.341-.554V9h-2.552v1.525c-.474.12-.923.306-1.341.554l-1.077-1.077-1.804 1.804 1.077 1.077a5.076 5.076 0 0 0-.554 1.341H5v2.551h1.525c.12.475.306.924.554 1.342Z" stroke-width=".4" fill="#FFF"/><path d="m7.079 18.117-1.077 1.077 1.804 1.804 1.077-1.077c.418.248.867.434 1.341.554V22h2.552v-1.525c.474-.12.923-.306 1.341-.554l1.077 1.077 1.804-1.804-1.077-1.077c.248-.418.434-.868.554-1.342H18v-2.55h-1.525a5.064 5.064 0 0 0-.554-1.342l1.077-1.077-1.804-1.804-1.077 1.077a5.084 5.084 0 0 0-1.341-.554V9h-2.552v1.525c-.474.12-.923.306-1.341.554l-1.077-1.077-1.804 1.804 1.077 1.077a5.076 5.076 0 0 0-.554 1.341H5v2.551h1.525c.12.475.306.924.554 1.342Zm-1.35-3.164h1.388l.057-.295a4.365 4.365 0 0 1 .67-1.623l.169-.249-.98-.98.773-.773.98.98.25-.168a4.357 4.357 0 0 1 1.622-.67l.295-.057V9.729h1.094v1.388l.295.058a4.364 4.364 0 0 1 1.623.67l.249.168.98-.98.773.773-.98.98.168.25a4.36 4.36 0 0 1 .67 1.622l.058.296h1.388v1.093h-1.388l-.058.295a4.366 4.366 0 0 1-.67 1.623l-.168.249.98.98-.773.773-.98-.98-.25.168a4.375 4.375 0 0 1-1.622.67l-.295.057v1.389h-1.094v-1.389l-.295-.057a4.362 4.362 0 0 1-1.623-.67l-.249-.168-.98.98-.773-.773.98-.98-.168-.25a4.36 4.36 0 0 1-.67-1.622l-.058-.295H5.73v-1.094Z" stroke-width=".5" fill="#90A9C0"/><path d="M11.474 17.55a2.278 2.278 0 0 0 2.276-2.275A2.278 2.278 0 0 0 11.474 13 2.277 2.277 0 0 0 9.2 15.275a2.277 2.277 0 0 0 2.274 2.275Zm0-3.872c.881 0 1.598.717 1.598 1.597s-.717 1.597-1.598 1.597c-.88 0-1.596-.717-1.596-1.597s.716-1.597 1.596-1.597Z" stroke-width=".4" fill="#90A9C0"/></g></g></svg>