<svg width="197" height="57" viewBox="0 0 197 57" fill="none" xmlns="http://www.w3.org/2000/svg">
<path d="M2.03564 15.1149L23.967 0.73759C25.4672 -0.245864 27.4079 -0.245863 28.908 0.73759L50.8395 15.1149C52.1098 15.9477 52.8751 17.3644 52.8751 18.8834V37.5153C52.8751 39.0343 52.1098 40.451 50.8395 41.2838L28.908 55.6611C27.4079 56.6446 25.4672 56.6446 23.967 55.6611L2.03564 41.2838C0.765291 40.451 0 39.0343 0 37.5153V18.8834C0 17.3644 0.765291 15.9477 2.03564 15.1149Z" fill="#0366D6"/>
<path d="M28.2 19.3875V17.625H25.2625C24.938 17.625 24.675 17.362 24.675 17.0375V12.925C24.675 12.6005 24.938 12.3375 25.2625 12.3375H29.375C29.6995 12.3375 29.9625 12.6005 29.9625 12.925V19.3875H38.775C39.7484 19.3875 40.5375 20.1766 40.5375 21.15V28.2001H41.7125C42.037 28.2001 42.3 28.4631 42.3 28.7876V34.6626C42.3 34.987 42.037 35.2501 41.7125 35.2501H40.5375V38.7751C40.5375 39.7485 39.7484 40.5376 38.775 40.5376H14.1C13.1265 40.5376 12.3375 39.7485 12.3375 38.7751V35.2501H11.1625C10.838 35.2501 10.575 34.987 10.575 34.6626V28.7876C10.575 28.4631 10.838 28.2001 11.1625 28.2001H12.3375V21.15C12.3375 20.1766 13.1265 19.3875 14.1 19.3875H28.2Z" fill="white"/>
<path d="M31.2215 33.2781C31.4991 33.5557 31.9492 33.5557 32.2268 33.2781L35.9215 29.5834C36.1991 29.3058 36.1991 28.8557 35.9215 28.5781L35.1643 27.8209C34.8867 27.5433 34.4366 27.5433 34.159 27.8209L31.7241 30.2557L30.7581 29.2896C30.4805 29.0121 30.0303 29.0121 29.7527 29.2896L28.9955 30.0468C28.718 30.3245 28.718 30.7746 28.9955 31.0522L31.2215 33.2781Z" fill="#0366D6"/>
<path d="M19.4715 33.2781C19.7491 33.5557 20.1992 33.5557 20.4768 33.2781L24.1715 29.5834C24.4491 29.3058 24.4491 28.8557 24.1715 28.5781L23.4143 27.8209C23.1367 27.5433 22.6866 27.5433 22.409 27.8209L19.9741 30.2557L19.0081 29.2896C18.7305 29.0121 18.2803 29.0121 18.0027 29.2896L17.2455 30.0468C16.968 30.3245 16.968 30.7746 17.2455 31.0522L19.4715 33.2781Z" fill="#0366D6"/>
<path d="M67.0015 36.8119C72.3079 36.8119 75.4545 33.5278 75.4545 28.0827C75.4545 22.6546 72.3079 19.3875 67.1208 19.3875H61.1001V36.8119H67.0015ZM64.255 34.0809V22.1186H66.9422C70.4796 22.1186 72.3249 24.0925 72.3249 28.0827C72.3249 32.09 70.4796 34.0809 66.8488 34.0809H64.255Z" fill="#24292E"/>
<path d="M83.7857 37.0672C86.8302 37.0672 88.9223 35.5783 89.4663 33.3066L86.5916 32.9833C86.1751 34.0894 85.1546 34.6679 83.828 34.6679C81.8382 34.6679 80.5204 33.3577 80.4945 31.1201H89.5938V30.1757C89.5938 25.5899 86.8384 23.5735 83.6242 23.5735C79.8824 23.5735 77.4419 26.3216 77.4419 30.3543C77.4419 34.4552 79.8483 37.0672 83.7857 37.0672ZM80.5034 29.0441C80.5968 27.3765 81.8299 25.9727 83.6665 25.9727C85.4354 25.9727 86.6257 27.266 86.6428 29.0441H80.5034Z" fill="#24292E"/>
<path d="M91.9509 41.7125H95.0294V34.753H95.1569C95.6416 35.7059 96.6533 37.0416 98.8987 37.0416C101.977 37.0416 104.281 34.5998 104.281 30.2948C104.281 25.9387 101.909 23.5735 98.8899 23.5735C96.5857 23.5735 95.6246 24.9603 95.1569 25.9047H94.9783V23.7436H91.9509V41.7125ZM94.9695 30.2778C94.9695 27.7424 96.0582 26.1004 98.0398 26.1004C100.089 26.1004 101.144 27.8445 101.144 30.2778C101.144 32.7281 100.072 34.5148 98.0398 34.5148C96.0752 34.5148 94.9695 32.8131 94.9695 30.2778Z" fill="#24292E"/>
<path d="M112.681 37.0672C115.726 37.0672 117.818 35.5783 118.362 33.3066L115.488 32.9833C115.071 34.0894 114.05 34.6679 112.724 34.6679C110.734 34.6679 109.416 33.3577 109.39 31.1201H118.49V30.1757C118.49 25.5899 115.734 23.5735 112.52 23.5735C108.778 23.5735 106.338 26.3216 106.338 30.3543C106.338 34.4552 108.744 37.0672 112.681 37.0672ZM109.399 29.0441C109.493 27.3765 110.726 25.9727 112.562 25.9727C114.331 25.9727 115.522 27.266 115.538 29.0441H109.399Z" fill="#24292E"/>
<path d="M123.576 29.1547C123.576 27.266 124.716 26.1769 126.34 26.1769C127.93 26.1769 128.882 27.2234 128.882 28.9675V36.8119H131.961V28.4911C131.969 25.3602 130.184 23.5735 127.488 23.5735C125.532 23.5735 124.188 24.5093 123.593 25.9642H123.44V23.7436H120.498V36.8119H123.576V29.1547Z" fill="#24292E"/>
<path d="M139.35 37.0416C141.595 37.0416 142.607 35.7059 143.092 34.753H143.279V36.8119H146.306V19.3875H143.219V25.9047H143.092C142.624 24.9603 141.663 23.5735 139.358 23.5735C136.34 23.5735 133.967 25.9387 133.967 30.2948C133.967 34.5999 136.271 37.0416 139.35 37.0416ZM140.209 34.5148C138.176 34.5148 137.105 32.7281 137.105 30.2778C137.105 27.8445 138.16 26.1004 140.209 26.1004C142.19 26.1004 143.279 27.7424 143.279 30.2778C143.279 32.8131 142.173 34.5148 140.209 34.5148Z" fill="#24292E"/>
<path d="M152.463 37.0757C154.513 37.0757 155.738 36.1143 156.299 35.0167H156.401V36.8119H159.36V28.0657C159.36 24.6115 156.545 23.5735 154.054 23.5735C151.307 23.5735 149.198 24.7986 148.518 27.1808L151.392 27.5893C151.699 26.6959 152.566 25.9302 154.071 25.9302C155.5 25.9302 156.282 26.6619 156.282 27.9466V27.9976C156.282 28.8825 155.355 28.925 153.05 29.1718C150.516 29.444 148.093 30.2012 148.093 33.145C148.093 35.7144 149.972 37.0757 152.463 37.0757ZM153.263 34.8125C151.979 34.8125 151.06 34.2255 151.06 33.0939C151.06 31.9113 152.09 31.4178 153.467 31.2222C154.275 31.1116 155.891 30.9073 156.29 30.584V32.124C156.29 33.5789 155.117 34.8125 153.263 34.8125Z" fill="#24292E"/>
<path d="M161.57 36.8119H164.597V34.753H164.776C165.261 35.7059 166.272 37.0416 168.518 37.0416C171.596 37.0416 173.9 34.5999 173.9 30.2948C173.9 25.9387 171.528 23.5735 168.509 23.5735C166.205 23.5735 165.243 24.9603 164.776 25.9047H164.648V19.3875H161.57V36.8119ZM164.588 30.2778C164.588 27.7424 165.677 26.1004 167.659 26.1004C169.708 26.1004 170.762 27.8445 170.762 30.2778C170.762 32.7281 169.691 34.5148 167.659 34.5148C165.694 34.5148 164.588 32.8131 164.588 30.2778Z" fill="#24292E"/>
<path d="M182.062 37.0672C185.889 37.0672 188.321 34.3701 188.321 30.3288C188.321 26.279 185.889 23.5735 182.062 23.5735C178.235 23.5735 175.803 26.279 175.803 30.3288C175.803 34.3701 178.235 37.0672 182.062 37.0672ZM182.079 34.5999C179.962 34.5999 178.924 32.7111 178.924 30.3203C178.924 27.9295 179.962 26.0152 182.079 26.0152C184.162 26.0152 185.2 27.9295 185.2 30.3203C185.2 32.7111 184.162 34.5999 182.079 34.5999Z" fill="#24292E"/>
<path d="M196.684 23.7436H194.107V20.6127H191.029V23.7436H189.175V26.1259H191.029V33.3917C191.012 35.8505 192.798 37.0587 195.111 36.9906C195.987 36.9651 196.591 36.7949 196.922 36.6843L196.403 34.2766C196.234 34.3191 195.885 34.3956 195.502 34.3956C194.728 34.3956 194.107 34.1234 194.107 32.8812V26.1259H196.684V23.7436Z" fill="#24292E"/>
</svg>
