<svg xmlns="http://www.w3.org/2000/svg" width="94" height="85" viewBox="0 0 94 85">
    <path fill="#C6D3DF" d="M1 19.75V3.083C1 1.933 1.933 1 3.083 1H19.75c1.15 0 2.083.933 2.083 2.083 0 1.15-.932 2.084-2.083 2.084H5.167V19.75c0 1.15-.933 2.083-2.084 2.083-1.15 0-2.083-.932-2.083-2.083zm25-6.25c4.602 0 8.333 3.731 8.333 8.333 0 4.603-3.73 8.334-8.333 8.334-4.602 0-8.333-3.731-8.333-8.334 0-4.602 3.73-8.333 8.333-8.333zm-4.167 8.333C21.833 24.135 23.7 26 26 26c2.301 0 4.167-1.865 4.167-4.167 0-2.3-1.866-4.166-4.167-4.166-2.301 0-4.167 1.865-4.167 4.166zM90.583 1H73.917c-1.15 0-2.084.933-2.084 2.083 0 1.15.933 2.084 2.084 2.084H88.5V19.75c0 1.15.933 2.083 2.083 2.083 1.15 0 2.084-.932 2.084-2.083V3.083c0-1.15-.933-2.083-2.084-2.083zM19.75 80.167H5.167V65.583c0-1.15-.933-2.083-2.084-2.083-1.15 0-2.083.933-2.083 2.083V82.25c0 1.15.933 2.083 2.083 2.083H19.75c1.15 0 2.083-.932 2.083-2.083 0-1.15-.932-2.083-2.083-2.083zM90.583 63.5c-1.15 0-2.083.933-2.083 2.083v14.584H73.917c-1.15 0-2.084.932-2.084 2.083 0 1.15.933 2.083 2.084 2.083h16.666c1.15 0 2.084-.932 2.084-2.083V65.583c0-1.15-.933-2.083-2.084-2.083zm-12.5 8.333c.915-.02 1.71-.635 1.959-1.516.249-.88-.106-1.82-.875-2.317L42.875 45.625l14.458-10.833 23.75 15.875c.626.416 1.426.468 2.1.135.673-.333 1.118-1 1.166-1.75.048-.75-.307-1.469-.932-1.885l-25-16.667c-.727-.503-1.69-.503-2.417 0L39.333 43l-.25.208L25 34.625c-.82-.5-1.878-.362-2.542.333L5.792 51.625c-.521.521-.725 1.28-.534 1.992.19.712.746 1.268 1.458 1.458.712.191 1.471-.012 1.992-.533l15.5-15.5L77 71.542c.326.198.702.3 1.083.291h0z"/>
</svg>
