<svg width="130" height="35" xmlns="http://www.w3.org/2000/svg"><g fill-rule="nonzero" fill="none"><g fill="#0082ED"><path d="M11.985 13.142H3.168l-1.239 8.716h8.678zM13.224 4.427H4.546l-1.378 8.715h8.817zM9.918 26.285H1.24L0 35h8.679z"/><path d="M11.296 17.569H2.617L1.24 26.285h8.678zM12.536 8.854H3.857l-1.24 8.715h8.679zM18.184 0H9.505l-1.24 8.854h8.679z"/><path d="M27 0h-8.816l-1.24 8.854h8.678z"/><path d="M13.224 4.427h4.409L18.184 0h-4.271zM21.903 4.427h4.408L27 0h-4.408z"/><path d="M18.184 0H9.505l-1.24 8.854h8.679z"/><path d="M17.633 4.427H8.816l-1.239 8.715h8.678zM27 0h-4.408l-1.378 8.854h4.408z"/><path d="M21.903 4.427h4.408L27 0h-4.408z"/><path d="M21.903 4.427 22.592 0h-4.408l-.551 4.427zM15.015 21.858H6.337l-1.378 8.853h8.679z"/><path d="m9.918 26.285.689-4.427h-4.27l-.689 4.427z"/><path d="M4.959 30.711h4.408l.551-4.426h-4.27zM0 35h4.27l.689-4.289H.689z"/><path d="m1.24 26.285-.551 4.426h4.27l.689-4.426zM16.255 13.142H7.577l-1.24 8.716h8.678z"/><path d="M21.903 13.142h-5.648l-1.24 8.716h5.648z"/><path d="M15.015 21.858h5.511l.688-4.289h-5.648z"/><path d="m19.286 21.858.688-4.289h-4.408l-.551 4.289z"/><path d="m11.296 17.569-.689 4.289h4.408l.551-4.289z"/><path d="m11.985 13.142-.689 4.427h8.678l.689-4.427z"/><path d="m19.974 17.569.689-4.427h-4.408l-.689 4.427z"/><path d="m11.985 13.142-.689 4.427h4.27l.689-4.427zM9.918 26.285h4.409l.688-4.427h-4.408zM17.633 4.427H8.816l-1.239 8.715h8.678z"/><path d="M8.265 8.854h8.679l.689-4.427H8.816zM5.648 26.285l.689-4.427H1.929l-.689 4.427z"/></g><g fill="#0B2633"><path d="M37.094 15.207h10.852v2.321h-7.952v4.642h7.203v2.321h-7.203v6.499H37V15.207zM54.963 18.364c1.122 0 2.058.185 2.9.557a3.718 3.718 0 0 1 1.777 1.578l.094-1.95h2.62V30.99h-2.62l-.094-1.95c-.748 1.486-2.339 2.136-4.677 2.136-1.123 0-2.152-.279-2.994-.836-.936-.557-1.684-1.3-2.152-2.32-.561-1.022-.842-2.043-.842-3.343 0-1.207.28-2.321.842-3.342.561-1.022 1.216-1.764 2.152-2.321.935-.372 1.87-.65 2.994-.65Zm.748 10.49c1.123 0 2.058-.37 2.807-1.113.748-.743 1.122-1.764 1.122-2.878s-.374-2.136-1.122-2.878c-.749-.743-1.684-1.115-2.807-1.115s-2.058.372-2.807 1.115c-.748.742-1.122 1.764-1.122 2.878s.374 2.135 1.122 2.878c.749.743 1.684 1.114 2.807 1.114ZM64.599 18.55h2.62l.093 1.67c.561-.742 1.216-1.206 1.87-1.392.656-.279 1.591-.372 2.808-.372v2.322c-1.497 0-2.62.37-3.368 1.114-.842.742-1.217 1.67-1.217 2.878v6.22H64.6V18.55ZM78.351 18.364c1.123 0 2.058.185 2.9.557a3.718 3.718 0 0 1 1.778 1.578l.094-1.95h2.62V30.99h-2.62l-.094-1.95c-.748 1.486-2.339 2.136-4.678 2.136-1.122 0-2.152-.279-2.993-.836-.936-.557-1.684-1.3-2.152-2.32-.562-1.022-.842-2.043-.842-3.343 0-1.207.28-2.321.842-3.342.561-1.022 1.216-1.764 2.152-2.321a7.468 7.468 0 0 1 2.993-.65Zm.749 10.49c1.122 0 2.058-.37 2.806-1.113.749-.743 1.123-1.764 1.123-2.878s-.374-2.136-1.123-2.878c-.748-.743-1.684-1.115-2.806-1.115-1.123 0-2.059.372-2.807 1.115-.748.742-1.123 1.764-1.123 2.878s.375 2.135 1.123 2.878c.748.743 1.684 1.114 2.807 1.114ZM93.414 18.364c1.122 0 2.058.185 2.9.557a3.718 3.718 0 0 1 1.777 1.578V14h2.807v16.99h-2.62l-.093-1.95c-.749 1.486-2.339 2.136-4.678 2.136-1.123 0-2.152-.279-2.994-.836-.935-.557-1.684-1.3-2.151-2.32-.562-1.022-.842-2.043-.842-3.343 0-1.207.28-2.321.842-3.342.561-1.022 1.216-1.764 2.151-2.321.749-.372 1.778-.65 2.9-.65Zm-2.059 9.377c.749.743 1.684 1.114 2.807 1.114s2.058-.371 2.807-1.114c.748-.743 1.122-1.764 1.122-2.878s-.374-2.136-1.122-2.878c-.749-.743-1.684-1.115-2.807-1.115s-2.058.372-2.807 1.115c-.748.742-1.122 1.764-1.122 2.878s.374 2.042 1.122 2.878ZM108.476 18.364c1.123 0 2.058.185 2.9.557a3.718 3.718 0 0 1 1.778 1.578l.093-1.95h2.62V30.99h-2.62l-.093-1.95c-.749 1.486-2.34 2.136-4.678 2.136-1.123 0-2.152-.279-2.994-.836-.935-.557-1.684-1.3-2.152-2.32-.56-1.022-.842-2.043-.842-3.343 0-1.207.281-2.321.842-3.342.562-1.022 1.217-1.764 2.152-2.321a7.468 7.468 0 0 1 2.994-.65Zm.748 10.49c1.123 0 2.059-.37 2.807-1.113.748-.743 1.123-1.764 1.123-2.878s-.375-2.136-1.123-2.878c-.748-.743-1.684-1.115-2.807-1.115-1.122 0-2.058.372-2.806 1.115-.749.742-1.123 1.764-1.123 2.878s.374 2.135 1.123 2.878c.748.743 1.684 1.114 2.806 1.114ZM126.813 18.55h2.993l-4.864 12.255c-.655 1.578-1.497 2.6-2.526 3.342-1.03.65-2.433.928-4.21.836l-.187-2.043c2.151 0 3.368-.557 3.648-1.764l-4.865-12.627h3.088l3.461 10.12 3.462-10.12Z"/></g></g></svg>