<svg width="27" height="35" xmlns="http://www.w3.org/2000/svg"><g fill="#0082ED" fill-rule="nonzero"><path d="M11.985 13.142H3.168l-1.239 8.716h8.678zM13.224 4.427H4.546l-1.378 8.715h8.817zM9.918 26.285H1.24L0 35h8.679z"/><path d="M11.296 17.569H2.617L1.24 26.285h8.678zM12.536 8.854H3.857l-1.24 8.715h8.679zM18.184 0H9.505l-1.24 8.854h8.679z"/><path d="M27 0h-8.816l-1.24 8.854h8.678z"/><path d="M13.224 4.427h4.409L18.184 0h-4.271zM21.903 4.427h4.408L27 0h-4.408z"/><path d="M18.184 0H9.505l-1.24 8.854h8.679z"/><path d="M17.633 4.427H8.816l-1.239 8.715h8.678zM27 0h-4.408l-1.378 8.854h4.408z"/><path d="M21.903 4.427h4.408L27 0h-4.408z"/><path d="M21.903 4.427 22.592 0h-4.408l-.551 4.427zM15.015 21.858H6.337l-1.378 8.853h8.679z"/><path d="m9.918 26.285.689-4.427h-4.27l-.689 4.427z"/><path d="M4.959 30.711h4.408l.551-4.426h-4.27zM0 35h4.27l.689-4.289H.689z"/><path d="m1.24 26.285-.551 4.426h4.27l.689-4.426zM16.255 13.142H7.577l-1.24 8.716h8.678z"/><path d="M21.903 13.142h-5.648l-1.24 8.716h5.648z"/><path d="M15.015 21.858h5.511l.688-4.289h-5.648z"/><path d="m19.286 21.858.688-4.289h-4.408l-.551 4.289z"/><path d="m11.296 17.569-.689 4.289h4.408l.551-4.289z"/><path d="m11.985 13.142-.689 4.427h8.678l.689-4.427z"/><path d="m19.974 17.569.689-4.427h-4.408l-.689 4.427z"/><path d="m11.985 13.142-.689 4.427h4.27l.689-4.427zM9.918 26.285h4.409l.688-4.427h-4.408zM17.633 4.427H8.816l-1.239 8.715h8.678z"/><path d="M8.265 8.854h8.679l.689-4.427H8.816zM5.648 26.285l.689-4.427H1.929l-.689 4.427z"/></g></svg>