<svg xmlns="http://www.w3.org/2000/svg" width="104.428" height="21.166"><g fill="none" fill-rule="nonzero"><g fill="#0082ED"><path d="M6.964 7.732H1.841l-.72 5.042h5.042z"/><path d="M2.481 20.5H0l.72-5.1.008-.054.391-2.538h.007l.394-2.514.366-2.594h-.045l.8-5.106h2.521L5.523 0h10.166l-.8 5.187H9.846l.007-.057-.008.057h-.007L9.445 7.7h3.281l-.72 5.107H8.724l-.4 2.593-.4 2.593H5.4L5.042 20.5z"/><path d="M2.882 18.024h2.561l.32-2.561H3.282z"/></g><path fill="#90A9C0" d="m94.5 21.145-.16-1.786c1.841 0 2.881-.487 3.121-1.542L93.3 6.779h2.642l2.961 8.846 2.962-8.846h2.563l-4.165 10.714a6.456 6.456 0 0 1-2.161 2.922 5.546 5.546 0 0 1-3.045.745c-.18 0-.366-.005-.557-.015Zm-10.885-4.058a4.511 4.511 0 0 1-1.841-2.029 5.855 5.855 0 0 1-.72-2.922 6.073 6.073 0 0 1 .72-2.922 5.006 5.006 0 0 1 1.841-2.03 6.276 6.276 0 0 1 2.562-.568 5.9 5.9 0 0 1 2.481.486c.644.28 1.178.765 1.52 1.379l.081-1.7H92.5v10.874h-2.241l-.081-1.7c-.64 1.3-2 1.867-4 1.867a4.525 4.525 0 0 1-2.563-.735Zm.8-7.3a3.52 3.52 0 0 0-.96 2.517 3.518 3.518 0 0 0 .96 2.516 3.446 3.446 0 0 0 4.8 0c.643-.678.99-1.584.963-2.518a3.52 3.52 0 0 0-.96-2.517 3.446 3.446 0 0 0-4.8 0l-.003.002Zm-13.606 7.3a4.5 4.5 0 0 1-1.841-2.029 5.845 5.845 0 0 1-.72-2.922 6.063 6.063 0 0 1 .72-2.922 5 5 0 0 1 1.841-2.03 5.613 5.613 0 0 1 2.481-.568 5.894 5.894 0 0 1 2.481.487c.644.28 1.179.765 1.521 1.379v-5.68h2.4v14.853h-2.24l-.08-1.7c-.64 1.3-2 1.867-4 1.867a4.522 4.522 0 0 1-2.562-.735h-.001Zm.72-7.3a3.52 3.52 0 0 0-.96 2.517c-.012.93.332 1.83.96 2.516a3.447 3.447 0 0 0 4.8 0 3.518 3.518 0 0 0 .96-2.516 3.52 3.52 0 0 0-.961-2.522 3.447 3.447 0 0 0-4.8 0l.001.005Zm-13.686 7.3a4.511 4.511 0 0 1-1.841-2.029 5.855 5.855 0 0 1-.72-2.922 6.073 6.073 0 0 1 .72-2.922 5.006 5.006 0 0 1 1.841-2.03 6.275 6.275 0 0 1 2.561-.568 5.891 5.891 0 0 1 2.481.487 3.2 3.2 0 0 1 1.521 1.379l.081-1.7h2.241v10.873h-2.241l-.081-1.7c-.64 1.3-2 1.867-4 1.867a4.525 4.525 0 0 1-2.563-.735Zm.8-7.3a3.52 3.52 0 0 0-.96 2.517 3.518 3.518 0 0 0 .96 2.516 3.446 3.446 0 0 0 4.8 0 3.518 3.518 0 0 0 .96-2.516 3.52 3.52 0 0 0-.96-2.517 3.446 3.446 0 0 0-4.8 0Zm-20.81 7.3a4.5 4.5 0 0 1-1.841-2.029 5.845 5.845 0 0 1-.72-2.922 6.063 6.063 0 0 1 .72-2.922 4.993 4.993 0 0 1 1.841-2.03 6.584 6.584 0 0 1 2.561-.568 5.894 5.894 0 0 1 2.481.487c.645.28 1.18.765 1.523 1.38l.08-1.7h2.24v10.872h-2.241l-.08-1.7c-.64 1.3-2 1.867-4 1.867a4.522 4.522 0 0 1-2.562-.735h-.002Zm.8-7.3a3.52 3.52 0 0 0-.96 2.517 3.518 3.518 0 0 0 .96 2.516c.63.645 1.5.998 2.4.974.9.024 1.77-.33 2.4-.974.643-.678.99-1.584.965-2.518a3.52 3.52 0 0 0-.96-2.517 3.235 3.235 0 0 0-2.4-.974 3.235 3.235 0 0 0-2.404.971l-.001.005Zm10.005 7.873V6.779h2.241l.08 1.461c.386-.57.948-.997 1.6-1.218a6.354 6.354 0 0 1 2.4-.325v2.03a3.88 3.88 0 0 0-2.881.974 3.161 3.161 0 0 0-1.041 2.516v5.438l-2.399.005Zm-23.61-.005V3.858h9.365v2.028h-6.8v4.058h6.16v2.03H27.59v5.681h-2.562Z"/></g></svg>