<svg xmlns="http://www.w3.org/2000/svg" width="27.746" height="34.301" viewBox="0 0 27.746 34.301">
  <path id="Trazado_348" data-name="Trazado 348" d="M38.6,975.88l-.053.018H25.526a2.279,2.279,0,0,0-2.283,2.265v27.429a2.278,2.278,0,0,0,2.283,2.265h1.133v.319a1.71,1.71,0,0,0,1.7,1.7H49.008a1.7,1.7,0,0,0,1.681-1.7v-7.521a1.7,1.7,0,0,0-1.681-1.7H47.5V984.5a.566.566,0,0,0,0-.177c0-.012,0-.024,0-.036a.6.6,0,0,0-.053-.159l-.018-.018q-.008-.018-.018-.036a.544.544,0,0,0-.053-.053c-.005-.012-.011-.024-.018-.035h-.018c0-.006,0-.012,0-.018l-8.246-7.928c-.011-.012-.023-.024-.035-.036a.566.566,0,0,0-.442-.124Zm-13.077,1.15h12.6v5.645a2.279,2.279,0,0,0,2.265,2.283h5.981v14H28.357a1.71,1.71,0,0,0-1.7,1.7v6.07H25.526a1.129,1.129,0,0,1-1.15-1.132V978.163A1.13,1.13,0,0,1,25.526,977.03Zm13.732.779L45.5,983.79l.035.036H40.39a1.13,1.13,0,0,1-1.133-1.15v-4.866ZM26.322,986.25a.572.572,0,1,0,.159,1.132H44.336a.566.566,0,1,0,0-1.132H26.481a.571.571,0,0,0-.106,0h-.053Zm.106,3.327a.567.567,0,1,0,.053,1.132H44.337a.566.566,0,0,0,0-1.133H26.481A.43.43,0,0,0,26.428,989.577Zm-.053,3.344a.569.569,0,1,0,.106,1.132H44.336a.566.566,0,1,0,0-1.132H26.375Zm0,3.344a.569.569,0,0,0,.106,1.133H36.09a.566.566,0,1,0,0-1.133H26.375Zm1.982,3.823H49.008a.541.541,0,0,1,.549.566v7.521a.541.541,0,0,1-.549.566H28.357a.555.555,0,0,1-.566-.566v-7.521A.555.555,0,0,1,28.357,1000.088Z" transform="translate(-23.093 -975.723)" fill="#7a7e8f" stroke="#7a7e8f" stroke-width="0.3"/>
</svg>
