<svg width="206" height="48" viewBox="0 0 206 48" fill="none" xmlns="http://www.w3.org/2000/svg">
<path d="M72.809 19.193L70.4432 20.3869C69.5809 18.7065 67.9668 17.7558 65.999 17.7558C63.0583 17.7558 60.7146 20.21 60.7146 23.2613C60.7146 26.2905 63.0362 28.7668 66.0211 28.7668C68.4754 28.7668 70.3106 27.1528 70.6643 24.9417H65.6231V22.6201H73.4945V23.6151C73.4945 27.9487 70.399 31.2653 65.999 31.2653C61.5548 31.2653 58.0171 27.6834 58.0171 23.2613C58.0171 18.8392 61.6211 15.2352 66.0211 15.2352C69.0281 15.2352 71.5709 16.7829 72.809 19.193ZM78.6034 31H76.0386V20.1658H78.6034V31ZM78.8908 17.004C78.8908 17.8663 78.2054 18.5739 77.2989 18.5739C76.4366 18.5739 75.729 17.8663 75.729 17.004C75.729 16.1196 76.4366 15.4121 77.2989 15.4121C78.2054 15.4121 78.8908 16.1417 78.8908 17.004ZM82.2465 16.9598H84.7892V20.1658H87.6635V22.3327H84.7892V27.197C84.7892 28.4131 85.3198 28.9216 86.4696 28.9216C86.8897 28.9216 87.3319 28.8332 87.6635 28.5899V30.8673C87.2434 31.1106 86.6022 31.2653 85.7178 31.2653C83.5289 31.2653 82.2465 29.9387 82.2465 27.6613V22.3327H80.6324V20.1658H82.2465V16.9598ZM90.1435 31V15.5226H92.7968V21.7799H100.049V15.5226H102.702V31H100.049V24.3005H92.7968V31H90.1435ZM113.413 25.8704V20.1658H115.978V31H113.413V29.5628C112.728 30.602 111.622 31.2653 110.119 31.2653C107.532 31.2653 105.984 29.5186 105.984 26.6884V20.1658H108.549V26.202C108.549 27.8824 109.389 28.8995 110.893 28.8995C112.418 28.8995 113.413 27.7276 113.413 25.8704ZM121.701 31H119.158V15.5226H121.701V21.7136C122.497 20.5859 123.868 19.9005 125.372 19.9005C128.356 19.9005 130.656 22.3327 130.656 25.5829C130.656 28.7668 128.356 31.2653 125.372 31.2653C123.868 31.2653 122.497 30.6462 121.701 29.5186V31ZM128.091 25.5829C128.091 23.7256 126.676 22.2221 124.841 22.2221C123.006 22.2221 121.591 23.7256 121.591 25.5829C121.591 27.4402 123.006 28.9437 124.841 28.9437C126.676 28.9437 128.091 27.4402 128.091 25.5829ZM132.266 27.396L134.61 26.2905C135.163 27.794 136.291 28.7668 137.86 28.7668C139.187 28.7668 140.315 28.0593 140.315 26.7327C140.315 25.7819 139.673 25.0523 138.369 24.5879L136.534 23.9246C134.234 23.1065 132.908 21.7578 132.908 19.6352C132.908 16.9598 134.986 15.2352 137.706 15.2352C139.939 15.2573 141.818 16.5176 142.68 18.6623L140.403 19.8121C139.939 18.6402 139.054 17.7116 137.728 17.7116C136.49 17.7116 135.605 18.4191 135.605 19.4804C135.605 20.4312 136.268 20.9618 137.529 21.4704L139.43 22.2C141.84 23.1508 143.034 24.4995 143.034 26.5558C143.034 29.4965 140.646 31.2653 137.816 31.2653C135.229 31.2653 133.129 29.8724 132.266 27.396ZM153.39 27.4623L155.491 28.4573C154.584 30.1598 152.904 31.2653 150.605 31.2653C147.31 31.2653 144.966 28.9216 144.966 25.5829C144.966 22.3327 147.354 19.9005 150.472 19.9005C153.634 19.9005 155.867 22.3327 155.867 25.5829C155.867 25.7819 155.867 26.0472 155.845 26.3568H147.509C147.62 27.9266 149.013 29.0985 150.627 29.0985C152.042 29.0985 152.771 28.4131 153.39 27.4623ZM147.531 24.4995H153.324C153.147 23.0623 151.997 22.001 150.428 22.001C148.902 22.001 147.708 23.2613 147.531 24.4995ZM157.641 25.5829C157.641 22.3327 160.007 19.9005 163.368 19.9005C164.451 19.9005 165.402 20.1658 166.264 20.6744V23.2171C165.402 22.5759 164.517 22.2442 163.589 22.2442C161.665 22.2442 160.228 23.7035 160.228 25.5829C160.228 27.4623 161.643 28.9216 163.589 28.9216C164.628 28.9216 165.534 28.4794 166.308 27.9487V30.4915C165.402 31 164.407 31.2653 163.346 31.2653C159.985 31.2653 157.641 28.8774 157.641 25.5829ZM175.013 20.0111V22.6201C174.902 22.5538 174.681 22.5317 174.35 22.5317C172.47 22.5317 171.32 23.991 171.32 26.2241V31H168.778V20.1658H171.298V22.0231C171.829 20.7628 173.111 19.9447 174.526 19.9447C174.814 19.9447 174.969 19.9668 175.013 20.0111ZM184.527 27.4623L186.627 28.4573C185.721 30.1598 184.04 31.2653 181.741 31.2653C178.446 31.2653 176.102 28.9216 176.102 25.5829C176.102 22.3327 178.49 19.9005 181.608 19.9005C184.77 19.9005 187.003 22.3327 187.003 25.5829C187.003 25.7819 187.003 26.0472 186.981 26.3568H178.645C178.756 27.9266 180.149 29.0985 181.763 29.0985C183.178 29.0985 183.907 28.4131 184.527 27.4623ZM178.667 24.4995H184.46C184.283 23.0623 183.134 22.001 181.564 22.001C180.038 22.001 178.844 23.2613 178.667 24.4995ZM189.625 16.9598H192.168V20.1658H195.042V22.3327H192.168V27.197C192.168 28.4131 192.699 28.9216 193.848 28.9216C194.268 28.9216 194.711 28.8332 195.042 28.5899V30.8673C194.622 31.1106 193.981 31.2653 193.097 31.2653C190.908 31.2653 189.625 29.9387 189.625 27.6613V22.3327H188.011V20.1658H189.625V16.9598ZM196.652 28.5015L198.731 27.4181C199.106 28.4131 199.925 29.0764 200.897 29.0764C201.693 29.0764 202.357 28.7226 202.357 27.9487C202.357 27.3518 201.981 27.0422 201.118 26.7769L199.814 26.3568C197.979 25.7598 197.05 24.7206 197.05 23.2171C197.05 21.1829 198.753 19.9005 200.787 19.9005C202.556 19.9005 204.037 20.8513 204.723 22.3548L202.666 23.4603C202.246 22.598 201.605 22.0231 200.787 22.0231C200.057 22.0231 199.482 22.399 199.482 23.0181C199.482 23.5266 199.88 23.9246 200.698 24.1899L201.981 24.61C204.015 25.2955 204.833 26.3347 204.833 27.7719C204.833 29.9829 202.976 31.2653 200.853 31.2653C198.819 31.2653 197.271 30.1819 196.652 28.5015Z" fill="#24292E"/>
<path fill-rule="evenodd" clip-rule="evenodd" d="M23.9285 0C10.6967 0 0 10.7755 0 24.1063C0 34.7623 6.85371 43.7824 16.3616 46.9749C17.5504 47.2149 17.9858 46.4562 17.9858 45.818C17.9858 45.2591 17.9466 43.3435 17.9466 41.3476C11.2903 42.7847 9.90416 38.474 9.90416 38.474C8.83445 35.6802 7.24947 34.9621 7.24947 34.9621C5.07086 33.4854 7.40816 33.4854 7.40816 33.4854C9.82482 33.6451 11.0929 35.9598 11.0929 35.9598C13.2318 39.6313 16.6785 38.594 18.0651 37.9553C18.263 36.3987 18.8973 35.3211 19.5708 34.7226C14.2619 34.1638 8.67625 32.0885 8.67625 22.8289C8.67625 20.1948 9.62645 18.0397 11.1321 16.3636C10.8945 15.7651 10.0624 13.2901 11.3701 9.97763C11.3701 9.97763 13.3905 9.33894 17.9461 12.4521C19.8965 11.9244 21.908 11.656 23.9285 11.6537C25.9489 11.6537 28.0085 11.9334 29.9104 12.4521C34.4665 9.33894 36.4869 9.97763 36.4869 9.97763C37.7946 13.2901 36.962 15.7651 36.7244 16.3636C38.2697 18.0397 39.1807 20.1948 39.1807 22.8289C39.1807 32.0885 33.5951 34.1236 28.2465 34.7226C29.1184 35.4808 29.8707 36.9174 29.8707 39.1925C29.8707 42.4251 29.8315 45.0196 29.8315 45.8175C29.8315 46.4562 30.2674 47.2149 31.4557 46.9753C40.9636 43.7819 47.8173 34.7623 47.8173 24.1063C47.8565 10.7755 37.1207 0 23.9285 0Z" fill="#24292F"/>
</svg>
