<svg width="17" height="17" xmlns="http://www.w3.org/2000/svg"><g fill="#1C2243" fill-rule="nonzero"><path d="M7 0c.55228475 0 1 .44771525 1 1v6c0 .55228475-.44771525 1-1 1H1c-.55228475 0-1-.44771525-1-1V1c0-.55228475.44771525-1 1-1h6zm-.4 1.4H1.4v5.2h5.2V1.4zM16 0c.5522847 0 1 .44771525 1 1v6c0 .55228475-.4477153 1-1 1h-6c-.55228475 0-1-.44771525-1-1V1c0-.55228475.44771525-1 1-1h6zm-.4 1.4h-5.2v5.2h5.2V1.4zM7 9c.55228475 0 1 .44771525 1 1v6c0 .5522847-.44771525 1-1 1H1c-.55228475 0-1-.4477153-1-1v-6c0-.55228475.44771525-1 1-1h6zm-.4 1.4H1.4v5.2h5.2v-5.2zM16 9c.5522847 0 1 .44771525 1 1v6c0 .5522847-.4477153 1-1 1h-6c-.55228475 0-1-.4477153-1-1v-6c0-.55228475.44771525-1 1-1h6zm-.4 1.4h-5.2v5.2h5.2v-5.2z"/></g></svg>