<svg width="34" height="34" xmlns="http://www.w3.org/2000/svg"><g fill="#000" fill-rule="nonzero"><path d="M17 2.72c7.887 0 14.28 6.393 14.28 14.28S24.887 31.28 17 31.28 2.72 24.887 2.72 17 9.113 2.72 17 2.72M17 0C7.611 0 0 7.611 0 17s7.611 17 17 17 17-7.611 17-17A17 17 0 0017 0z"/><path d="M17.156 7.99l.368.034a7.14 7.14 0 012.621.68c.735.338 1.36.874 1.809 1.547.341.53.552 1.134.615 1.761a3.896 3.896 0 01-.129 1.619 4.202 4.202 0 01-.986 1.669c-.52.52-1.09.988-1.7 1.397-.34.235-.643.48-.962.725a2.04 2.04 0 00-.63.907c-.067.184-.145.368-.217.551-.18.5-.652.836-1.183.84a1.656 1.656 0 01-.86-.136 1.404 1.404 0 01-.772-1.05 2.414 2.414 0 01.408-1.803 4.95 4.95 0 011.068-1.128c.445-.364.904-.711 1.36-1.075.378-.29.694-.651.931-1.064a1.996 1.996 0 00-.238-2.21 1.836 1.836 0 00-1.02-.564 3.247 3.247 0 00-1.584.027 1.928 1.928 0 00-1.228 1.02c-.16.299-.299.605-.448.908-.11.228-.258.437-.439.615a1.52 1.52 0 01-1.153.37 1.595 1.595 0 01-.727-.197 1.258 1.258 0 01-.68-1.122 3.291 3.291 0 01.68-2.08 5.243 5.243 0 012.04-1.653 6.222 6.222 0 011.934-.557l.381-.038.741.007zM16.48 26.01c-.102-.02-.204-.037-.303-.065a1.884 1.884 0 11.816.031l-.166.034h-.347z"/></g></svg>
