<svg xmlns="http://www.w3.org/2000/svg" width="16" height="14.899"><g fill="#264D6D" fill-rule="nonzero"><path d="m15.731 6.733-2.424-2.425V1.507a.917.917 0 0 0-1.835 0v.967L9.667.668c-.893-.892-2.445-.89-3.335.002L.268 6.733A.918.918 0 0 0 1.566 8.03l6.062-6.063a.541.541 0 0 1 .742 0l6.064 6.063a.915.915 0 0 0 1.297 0 .917.917 0 0 0 0-1.297Z"/><path d="M8.319 3.707a.45.45 0 0 0-.637 0L2.348 9.04a.451.451 0 0 0-.132.319v3.889c0 .912.74 1.652 1.653 1.652h2.64v-4.09H9.49v4.09h2.64c.913 0 1.653-.74 1.653-1.652v-3.89a.45.45 0 0 0-.132-.318L8.319 3.707Z"/></g></svg>