<svg width="6" height="7" viewBox="0 0 6 7" fill="none" xmlns="http://www.w3.org/2000/svg">
<path d="M3 0C3.27047 2.64833e-08 3.53167 0.0938864 4.0541 0.281655L4.24503 0.350274C5.24723 0.710484 5.74834 0.890591 5.87417 1.07885C6 1.2671 6 1.82668 6 2.94585V3.497C6 5.47029 4.587 6.42793 3.70047 6.83456C3.46 6.94485 3.33977 7 3 7C2.66023 7 2.54 6.94485 2.29952 6.83456C1.41299 6.42793 2.37269e-06 5.47029 0 3.497V2.94585C0 1.82668 1.43051e-06 1.2671 0.12584 1.07885C0.251676 0.890591 0.752774 0.710484 1.75497 0.350274L1.94591 0.281655C2.46833 0.0938864 2.72953 0 3 0ZM3 4.2C2.8159 4.2 2.66667 4.3567 2.66667 4.55C2.66667 4.74331 2.8159 4.9 3 4.9C3.1841 4.9 3.33333 4.74331 3.33333 4.55C3.33333 4.3567 3.1841 4.20001 3 4.2ZM3 1.8375C2.86193 1.8375 2.75 1.95503 2.75 2.1V3.5C2.75 3.64497 2.86193 3.7625 3 3.7625C3.13807 3.7625 3.25 3.64497 3.25 3.5V2.1C3.25 1.95503 3.13807 1.8375 3 1.8375Z" fill="currentColor"/>
</svg>
