<svg xmlns="http://www.w3.org/2000/svg" width="18" height="18" viewBox="0 0 18 18">
    <g fill="#63758D">
        <path d="M2.879 12.624l-1.492 1.49 2.498 2.499 1.491-1.492c.579.344 1.201.6 1.858.768V18h3.533v-2.111c.656-.167 1.278-.424 1.857-.768l1.491 1.492 2.498-2.498-1.492-1.491c.344-.58.601-1.202.768-1.858H18V7.234h-2.111c-.167-.656-.424-1.278-.768-1.858l1.492-1.49-2.498-2.498-1.491 1.49c-.58-.343-1.201-.6-1.857-.767V0H7.234v2.111c-.657.167-1.279.424-1.858.767L3.885 1.387 1.387 3.885l1.491 1.491c-.343.58-.6 1.201-.767 1.858H0v3.532h2.111c.167.657.424 1.279.768 1.858zm-1.87-4.38h1.923l.079-.41c.157-.812.469-1.568.927-2.247l.233-.345-1.357-1.357 1.07-1.07 1.359 1.357.345-.233c.678-.458 1.434-.77 2.246-.928l.41-.079V1.01h1.513v1.923l.409.08c.812.157 1.568.469 2.246.927l.345.233 1.358-1.357 1.07 1.07-1.357 1.358.233.345c.46.68.771 1.435.928 2.246l.08.41h1.922v1.513h-1.923l-.079.41c-.157.81-.47 1.566-.928 2.246l-.233.345 1.357 1.357-1.07 1.07-1.358-1.357-.344.233c-.68.459-1.436.77-2.247.928l-.409.079v1.923H8.243v-1.923l-.409-.079c-.813-.157-1.568-.47-2.246-.928l-.345-.233-1.358 1.357-1.07-1.07 1.357-1.357-.233-.345c-.459-.679-.771-1.435-.928-2.247l-.08-.409H1.01V8.243z"/>
        <path d="M9.01 12.6c1.738 0 3.152-1.413 3.152-3.15 0-1.737-1.414-3.15-3.151-3.15-1.737 0-3.15 1.413-3.15 3.15 0 1.737 1.413 3.15 3.15 3.15zm0-5.36c1.22 0 2.212.99 2.212 2.21s-.992 2.211-2.211 2.211c-1.22 0-2.21-.992-2.21-2.21 0-1.22.99-2.212 2.21-2.212z"/>
    </g>
</svg>
