<svg width="18" height="18" xmlns="http://www.w3.org/2000/svg"><path d="M17.75618 16.4425957l-3.359277-3.3244593c2.549451-3.1747088 2.309503-7.8469218-.599871-10.7520798C12.267361.83860233 10.257793 0 8.098258 0 5.938722 0 3.899161.83860233 2.36949 2.3660566.839819 3.8935108 0 5.9001664 0 8.0865225c0 2.186356.839819 4.1930116 2.36949 5.7204659 1.529671 1.4975041 3.539239 2.3660565 5.728768 2.3660565 1.829606 0 3.629219-.6289517 5.038916-1.7670549l3.329284 3.3244593c.179961.1797005.389916.2695507.629864.2695507s.479897-.0898502.629865-.2695507c.359922-.359401.359922-.9284526.029993-1.2878536zm-3.359277-8.3560732c0 1.6772046-.659858 3.264559-1.8596 4.4326123-1.199742 1.1680532-2.759407 1.8569051-4.439045 1.8569051-1.679639 0-3.269297-.6589018-4.439045-1.8569051-1.169749-1.1980034-1.8596-2.7554077-1.8596-4.4326123 0-1.6772047.659858-3.2645591 1.8596-4.4326124 1.199742-1.1680532 2.729413-1.85690511 4.439045-1.85690511 1.679638 0 3.269297.65890181 4.439045 1.85690511 1.169748 1.1980034 1.8596 2.7254576 1.8596 4.4326124z" fill="#FFFFFF" fill-rule="nonzero"/></svg>