<svg class="users" width="20" height="20" xmlns="http://www.w3.org/2000/svg"><g fill="none" fill-rule="evenodd"><path d="M12.234 9.849c.163-.353.26-.741.26-1.155a2.768 2.768 0 0 0-5.535 0 2.767 2.767 0 0 0 1.368 2.376c.422.254.905.39 1.398.392.512 0 .987-.148 1.399-.392.486-.284.873-.71 1.11-1.221Z"/><path d="M5.914 10.573a4.21 4.21 0 0 1-.455-1.878 4.272 4.272 0 0 1 4.267-4.268 4.273 4.273 0 0 1 4.268 4.268 4.21 4.21 0 0 1-.455 1.878 6.615 6.615 0 0 1 2.671 4.203 8.183 8.183 0 0 0 1.742-5.05 8.227 8.227 0 0 0-16.452 0c0 1.906.654 3.656 1.743 5.05a6.6 6.6 0 0 1 2.671-4.203Z"/><path d="M12.653 11.784a4.241 4.241 0 0 1-2.927 1.178 4.24 4.24 0 0 1-2.927-1.178 5.085 5.085 0 0 0-2.174 4.167c0 .082.02.157.024.238a8.185 8.185 0 0 0 5.077 1.762 8.18 8.18 0 0 0 5.077-1.763c.004-.08.024-.156.024-.237 0-1.66-.813-3.216-2.174-4.167Z"/><path d="M9.726 0C4.363 0 0 4.363 0 9.726c0 2.852 1.242 5.414 3.204 7.194a9.665 9.665 0 0 0 13.044 0c1.962-1.78 3.204-4.342 3.204-7.194C19.452 4.363 15.088 0 9.726 0Zm0 17.951a8.187 8.187 0 0 1-5.077-1.762c-.004-.081-.024-.156-.024-.238 0-1.726.862-3.244 2.174-4.167a4.24 4.24 0 0 0 2.927 1.178 4.24 4.24 0 0 0 2.927-1.178 5.085 5.085 0 0 1 2.174 4.167c0 .081-.021.157-.024.237a8.188 8.188 0 0 1-5.077 1.763ZM6.958 8.694a2.768 2.768 0 1 1 5.535 0c0 .414-.097.802-.26 1.155-.237.51-.624.937-1.109 1.221-.423.254-.906.39-1.399.392-.513 0-.987-.148-1.398-.392a2.761 2.761 0 0 1-1.109-1.221 2.741 2.741 0 0 1-.26-1.155Zm6.581 1.879a4.21 4.21 0 0 0 .455-1.878 4.273 4.273 0 0 0-4.268-4.268 4.272 4.272 0 0 0-4.268 4.267c0 .677.173 1.309.455 1.878a6.607 6.607 0 0 0-2.671 4.203A8.179 8.179 0 0 1 1.5 9.725a8.226 8.226 0 0 1 16.452 0c0 1.83-.612 3.61-1.742 5.05a6.617 6.617 0 0 0-2.671-4.202Z" fill="#264D6D" fill-rule="nonzero"/></g></svg>