<svg width="18" height="18" xmlns="http://www.w3.org/2000/svg"><path d="M9 0C4.029437 0 0 4.029437 0 9s4.029437 9 9 9 9-4.029437 9-9c0-2.386948-.948212-4.676134-2.636039-6.363961C13.676134.948212 11.386948 0 9 0zm0 13.752l-.0876.018h-.18c-.054-.0108-.108-.0192-.1596-.0348-.492268-.1281-.809223-.60618-.735556-1.10948.073667-.503299.514343-.870487 1.022674-.852131.50833.018357.921373.416373.958547.923675.037173.507302-.31344.961276-.813665 1.053536L9 13.752zm2.88-6.5352c-.102818.331046-.28157.633487-.522.8832a5.95921827 5.95921827 0 01-.9.7392c-.18.12-.3408.2544-.51.384-.152768.126448-.26777.292517-.3324.48-.036.0972-.0768.1944-.12.2916-.09508.264678-.34517.441945-.6264.444-.155308.016986-.312333-.007873-.4548-.072-.219543-.107161-.372488-.315274-.4092-.5568-.059016-.336003.018756-.681655.216-.96.155572-.228561.346331-.431065.5652-.6.24-.192.48-.3756.72-.5688.200234-.15337.367899-.345103.4932-.564.200651-.37831.153268-.840297-.12-1.17-.142761-.155617-.33232-.260506-.54-.2988-.276879-.064774-.565504-.059826-.84.0144-.284622.077604-.521777.274504-.6504.54-.0852.1584-.1584.3204-.24.48-.058201.121409-.136962.231836-.2328.3264-.167432.146652-.388099.217456-.6096.1956-.134923-.003349-.267052-.03916-.3852-.1044-.223859-.115775-.363191-.347995-.36-.6-.009211-.39752.117819-.786234.36-1.1016.279985-.378473.651637-.67951 1.08-.8748.322923-.153288.668643-.252991 1.0236-.2952l.2016-.0192h.36l.1944.018c.481534.030291.952817.152491 1.3884.36.389699.178501.722081.461857.96.8184.18414.287026.296124.614332.3264.954.048153.284968.035888.576875-.036.8568z" fill="#0082ED" fill-rule="nonzero"/></svg>