<svg width="20" height="18" xmlns="http://www.w3.org/2000/svg"><g transform="translate(-1360 -84)" fill="none" fill-rule="evenodd"><path d="m1370.162 92.271 4.923-5.982h-12.696l4.975 5.982a.83.83 0 0 1 .155.465v5.363l2.436 1.186v-6.6c0-.156.103-.31.207-.414Zm6.84-6.188-5.7 6.859v7.375c0 .515-.518.825-.933.618l-3.783-1.805c-.207-.103-.414-.309-.414-.618v-5.57l-5.7-6.859c-.363-.413-.052-1.083.518-1.083h15.494c.57 0 .88.619.518 1.083Z" fill="#1C4566" fill-rule="nonzero" stroke="#1C4566" stroke-width=".3"/><circle fill="red" cx="1376.5" cy="95.5" r="3.5"/></g></svg>