<svg xmlns="http://www.w3.org/2000/svg" width="38" height="38"><g fill="none" fill-rule="evenodd"><path fill="#264D6D" fill-rule="nonzero" d="M10.818 23.82a.82.82 0 0 0 .818-.818v-3.273a.82.82 0 0 1 .819-.818h12.75l-1.877 1.878a.82.82 0 0 0 0 1.158.845.845 0 0 0 .581.237.815.815 0 0 0 .577-.242l3.273-3.272c.012-.013.02-.025.032-.041a.435.435 0 0 0 .037-.045.673.673 0 0 0 .107-.18s0-.004.004-.004a.783.783 0 0 0 .053-.209c.004-.016.004-.033.004-.049a.745.745 0 0 0-.082-.409l-.024-.045a.893.893 0 0 0-.131-.176l-3.273-3.273a.82.82 0 0 0-1.158 1.158l1.878 1.878H12.455A2.456 2.456 0 0 0 10 19.729v3.273c0 .45.368.818.818.818Z"/><path d="M0 0h38v38H0z"/></g></svg>