<?xml version="1.0" encoding="utf-8"?>
<!-- Generator: Adobe Illustrator 25.1.0, SVG Export Plug-In . SVG Version: 6.00 Build 0)  -->
<svg version="1.1" id="Layer_1" fill="#000000" xmlns="http://www.w3.org/2000/svg" xmlns:xlink="http://www.w3.org/1999/xlink" x="0px" y="0px"
	 viewBox="0 0 17.5 16.5" style="enable-background:new 0 0 17.5 16.5;" xml:space="preserve">
<style type="text/css">
	.st0{fill:#264D6D;}
</style>
<g>
	<path class="st0" d="M6.8,13.9l9.9-9.7l0,0C17,3.8,17.2,3.4,17.2,3c0-0.4-0.2-0.9-0.5-1.2l-1.3-1.3c-0.6-0.6-1.7-0.6-2.4,0
		l-9.9,9.8l0,0l-0.4,4L6.8,13.9L6.8,13.9z M4.4,12.6l0.2-1.6l7.7-7.5l1.5,1.4l-7.7,7.5L4.4,12.6z M15.6,3C15.6,3,15.6,3,15.6,3
		l-0.8,0.8l-1.5-1.4L14,1.6h0.1l0,0l0,0h0.1L15.6,3L15.6,3z"/>
	<path class="st0" d="M16.6,14.9H0.8c-0.4,0-0.8,0.3-0.8,0.8s0.3,0.8,0.8,0.8h15.8c0.4,0,0.8-0.3,0.8-0.8S17,14.9,16.6,14.9z"/>
</g>
</svg>
