<svg width="14" height="14" xmlns="http://www.w3.org/2000/svg"><path d="M.38062.3664103c.47874-.455365 1.23304-.4868652 1.748522-.0913015l.106617.0913015 4.375698 4.1874353L10.988396.3664103c.512935-.4892026 1.342204-.4878911 1.855139 0 .507493.4892026.507493 1.280714 0 1.7699166L8.217592 6.559479l4.625943 4.421841c.507493.489202.507493 1.280714 0 1.769916-.512935.488547-1.342204.488547-1.855139 0L6.611457 8.564129l-4.375698 4.187107c-.47874.455977-1.233041.486376-1.748522.091196l-.106617-.091196c-.47366-.456589-.505238-1.176522-.094732-1.668224l.094732-.101692 4.625943-4.421841L.38062 2.1363269c-.507493-.4892026-.507493-1.280714 0-1.7699166z" fill="#A1B4B6" fill-rule="nonzero"/></svg>