<?xml version="1.0" encoding="utf-8"?>
<!-- Generator: Adobe Illustrator 25.1.0, SVG Export Plug-In . SVG Version: 6.00 Build 0)  -->
<svg version="1.1" id="Layer_1" xmlns="http://www.w3.org/2000/svg" xmlns:xlink="http://www.w3.org/1999/xlink" x="0px" y="0px"
	 viewBox="0 0 14.7 11.9" style="enable-background:new 0 0 14.7 11.9;" xml:space="preserve">
<style type="text/css">
	.st0{fill:#1C4566;}
</style>
<g>
	<path class="st0" d="M1.5,4.5c-0.8,0-1.4,0.6-1.4,1.4s0.6,1.4,1.4,1.4s1.4-0.6,1.4-1.4S2.3,4.5,1.5,4.5z"/>
	<path class="st0" d="M1.5,0C0.7,0,0.1,0.6,0.1,1.4s0.6,1.4,1.4,1.4s1.4-0.6,1.4-1.4S2.3,0,1.5,0z"/>
	<path class="st0" d="M1.5,9c-0.8,0-1.4,0.6-1.4,1.4s0.6,1.4,1.4,1.4s1.4-0.6,1.4-1.4S2.3,9,1.5,9z"/>
	<path class="st0" d="M5,2.6h8.5c0.7,0,1.2-0.5,1.2-1.2s-0.5-1.2-1.2-1.2H5c-0.7,0-1.2,0.6-1.2,1.2S4.3,2.6,5,2.6z"/>
	<path class="st0" d="M13.5,4.7H5c-0.7,0-1.2,0.5-1.2,1.2S4.3,7.1,5,7.1h8.5c0.7,0,1.2-0.5,1.2-1.2C14.7,5.2,14.2,4.7,13.5,4.7z"/>
	<path class="st0" d="M13.5,9.2H5c-0.7,0-1.2,0.5-1.2,1.2s0.5,1.2,1.2,1.2h8.5c0.7,0,1.2-0.5,1.2-1.2S14.2,9.2,13.5,9.2z"/>
</g>
</svg>
