<svg xmlns="http://www.w3.org/2000/svg" width="17" height="17" viewBox="0 0 17 17">
    <path fill="#979AAF" d="M16.378 14.839c.344 0 .622.272.622.608 0 .336-.278.609-.622.609H.622c-.344 0-.622-.273-.622-.609 0-.336.278-.608.622-.608h15.756zm-.007-11.035l-9.87 9.656-3.848.385.393-3.764 8.583-8.397 1.288-1.26c.579-.566 1.588-.566 2.167 0l1.287 1.26c.288.28.45.663.45 1.06 0 .4-.16.777-.45 1.06zM4.046 12.482l1.888-.188 7.83-7.66-1.695-1.659-7.83 7.66-.193 1.847zM14 1.202c-.076 0-.15.03-.204.083l-.848.83 1.696 1.658.847-.83c.113-.11.113-.288 0-.398l-1.287-1.26c-.054-.053-.127-.083-.204-.082z"/>
</svg>
