<svg xmlns="http://www.w3.org/2000/svg" width="19" height="19" viewBox="0 0 19 19">
    <g fill="none" fill-rule="evenodd" opacity="1">
        <path fill="#515a65" fill-rule="nonzero" d="M10.867 10.002L6.698 14.04c-.288.279-.754.279-1.04 0l-.692-.672c-.288-.279-.288-.73 0-1.006L7.921 9.5 4.966 6.637c-.288-.279-.288-.73 0-1.006l.693-.672c.288-.279.754-.279 1.04 0L10.866 9c.288.272.288.724 0 1.003z"/>
        <path fill="#515a65" fill-rule="nonzero" d="M8.529 10.002l4.169 4.039c.288.279.754.279 1.039 0l.693-.672c.288-.279.288-.73 0-1.006L11.475 9.5l2.955-2.863c.288-.279.288-.73 0-1.006l-.693-.672c-.288-.279-.754-.279-1.04 0L8.53 9c-.289.272-.289.724 0 1.003z"/>
    </g>
</svg>
