<svg width="14" height="14" xmlns="http://www.w3.org/2000/svg"><path d="M7.929 7.497l5.2-5.2c.1441184-.14008493.2254311-.33251768.2254311-.5335S13.2731184 1.37008493 13.129 1.23c-.291119-.29771495-.76817-.3039743-1.067-.014l-5.2 5.2-5.2-5.2c-.29850991-.2985099-.78249009-.2985099-1.081 1e-8-.2985099.2985099-.2985099.78249008 0 1.08099999l5.2 5.2-5.2 5.2c-.14411837.1400849-.22543106.3325177-.22543106.5335 0 .2009823.0813127.3934151.22543106.5335.1362375.1508081.33078465.2356948.534.2330623.20019523.0016535.39265627-.0772772.534-.2190623l5.2-5.2 5.2 5.2c.2975877.2763362.7604523.2677695 1.0476109-.0193891.2871586-.2871586.2957253-.7500232.0193891-1.0476109L7.929 7.497z" fill="#EA3158" fill-rule="nonzero"/></svg>