<svg width="19" height="19" viewBox="0 0 19 19" xmlns="http://www.w3.org/2000/svg">
    <path d="M17.056 1c.215 0 .482.051.684.254.203.202.26.475.26.69v9.823c0 .215-.057.482-.26.684-.202.203-.47.26-.684.26h-3.4a.567.567 0 1 1 0-1.133h3.21V2.133H7.423v3.211a.567.567 0 1 1-1.133 0v-3.4c0-.215.057-.488.26-.69C6.75 1.05 7.018 1 7.233 1h9.823zm-5.29 5.289c.514 0 .945.43.945.944v9.823a.955.955 0 0 1-.944.944H1.944A.955.955 0 0 1 1 17.056V7.233c0-.513.431-.944.944-.944h9.823zm-.188 1.133H2.133v9.445h9.445V7.422z" fill="#1C4566" fill-rule="nonzero" stroke="#1C4566" stroke-width=".2"/>
</svg>
