<?xml version="1.0" encoding="utf-8"?>
<!-- Generator: Adobe Illustrator 25.1.0, SVG Export Plug-In . SVG Version: 6.00 Build 0)  -->
<svg version="1.1" id="Layer_1" xmlns="http://www.w3.org/2000/svg" xmlns:xlink="http://www.w3.org/1999/xlink" x="0px" y="0px"
	 viewBox="0 0 16.5 17.5" style="enable-background:new 0 0 16.5 17.5;" xml:space="preserve">
<style type="text/css">
	.st0{fill:#1C4566;}
</style>
<g>
	<path class="st0" d="M6.1,14.1c0.4,0,0.7-0.3,0.7-0.7V7c0-0.4-0.3-0.7-0.7-0.7S5.5,6.6,5.5,7v6.4C5.5,13.8,5.8,14.1,6.1,14.1z"/>
	<path class="st0" d="M15.8,2.7h-4.1V2c0-1.1-0.9-2-1.9-2H6.7C5.6,0,4.8,0.9,4.8,2v0.7H0.7C0.3,2.7,0,3,0,3.4S0.3,4,0.7,4H2
		l0.3,10.3c0.1,1.8,1.4,3.1,3.1,3.1h5.6c1.7,0,3.1-1.4,3.1-3.1L14.5,4h1.3c0.4,0,0.7-0.3,0.7-0.7S16.2,2.7,15.8,2.7z M10.4,2v0.7
		H6.1V2c0-0.3,0.3-0.6,0.6-0.6h3.1C10.2,1.4,10.4,1.6,10.4,2z M12.9,14.3c0,1-0.8,1.8-1.8,1.8H5.5c-1,0-1.8-0.8-1.8-1.8L3.3,4h9.9
		L12.9,14.3z"/>
	<path class="st0" d="M8.4,14.1c0.4,0,0.7-0.3,0.7-0.7V7c0-0.4-0.3-0.7-0.7-0.7S7.7,6.6,7.7,7v6.4C7.7,13.8,8,14.1,8.4,14.1z"/>
	<path class="st0" d="M10.6,14.1c0.4,0,0.7-0.3,0.7-0.7V7c0-0.4-0.3-0.7-0.7-0.7S10,6.6,10,7v6.4C10,13.8,10.2,14.1,10.6,14.1z"/>
</g>
</svg>
