<svg width="26" height="14" xmlns="http://www.w3.org/2000/svg" xmlns:xlink="http://www.w3.org/1999/xlink">
  <defs>
    <path d="M3.1 2.8c0 .5-.4.9-.8.9s-.9-.4-.9-.9.4-.9.8-.9.9.4.9.9zM2.3.6C1.1.6.2 1.6.2 2.8.2 4 1.1 5 2.3 5c1.2 0 2.1-1 2.1-2.2 0-1.2-1-2.2-2.1-2.2z" id="a"/>
    <path d="M23.6 6.5l-2.3 1.7-1.1-.9c-.2-.2-.6-.2-.8 0l-1.1.9-1.1-.9c-.2-.2-.6-.2-.8 0l-1.3 1.1h-3.2c-.2 0-.5.1-.6.4-.8 1.8-2.5 2.9-4.3 2.9-2.6 0-4.7-2.2-4.7-4.9S4.4 1.9 7 1.9c1.9 0 3.6 1.1 4.3 2.9.1.2.3.4.6.4h10l1.7 1.3zM25 6l-2.5-2c-.1-.1-.3-.1-.4-.1h-9.9C11.1 1.9 9.1.6 6.9.6 3.6.6.9 3.4.9 6.8.9 10.2 3.7 13 7 13c2.2 0 4.2-1.3 5.3-3.3h3.1c.2 0 .3-.1.4-.2l1.1-.9 1.1.9c.2.2.6.2.8 0l1.1-.9 1.1.9c.2.2.5.2.8 0L25 7.1c.2-.1.3-.3.3-.5s-.1-.4-.3-.6z" id="c"/>
  </defs>
  <g fill="none" fill-rule="evenodd">
    <g transform="translate(3 4)">
      <mask id="b" fill="#fff">
        <use xlink:href="#a"/>
      </mask>
      <path fill="#1C4566" fill-rule="nonzero" mask="url(#b)" d="M-4.8-4.4H9.4V10H-4.8z"/>
    </g>
    <path d="M6.1 6.8c0 .5-.4.9-.8.9s-.9-.4-.9-.9.4-.9.8-.9.9.4.9.9h0zm-.8-2.2c-1.2 0-2.1 1-2.1 2.2C3.2 8 4.1 9 5.3 9c1.2 0 2.1-1 2.1-2.2 0-1.2-1-2.2-2.1-2.2h0z" stroke="#1C4566" stroke-width=".2"/>
    <g>
      <mask id="d" fill="#fff">
        <use xlink:href="#c"/>
      </mask>
      <path fill="#1C4566" fill-rule="nonzero" mask="url(#d)" d="M-4.1-4.4h34.4V18H-4.1z"/>
    </g>
    <path d="M23.6 6.5l-2.3 1.7-1.1-.9c-.2-.2-.6-.2-.8 0l-1.1.9-1.1-.9c-.2-.2-.6-.2-.8 0l-1.3 1.1h-3.2c-.2 0-.5.1-.6.4-.8 1.8-2.5 2.9-4.3 2.9-2.6 0-4.7-2.2-4.7-4.9S4.4 1.9 7 1.9c1.9 0 3.6 1.1 4.3 2.9.1.2.3.4.6.4h10l1.7 1.3h0zM25 6l-2.5-2c-.1-.1-.3-.1-.4-.1h-9.9C11.1 1.9 9.1.6 6.9.6 3.6.6.9 3.4.9 6.8.9 10.2 3.7 13 7 13c2.2 0 4.2-1.3 5.3-3.3h3.1c.2 0 .3-.1.4-.2l1.1-.9 1.1.9c.2.2.6.2.8 0l1.1-.9 1.1.9c.2.2.5.2.8 0L25 7.1c.2-.1.3-.3.3-.5s-.1-.4-.3-.6z" stroke="#1C4566" stroke-width=".2"/>
  </g>
</svg>
