<svg xmlns="http://www.w3.org/2000/svg" width="19" height="17" viewBox="0 0 19 17">
    <path fill="#979AAF" stroke="#979AAF" stroke-width=".3" d="M1.35 1c-.19.02-.35.214-.35.423v14.365c0 .221.184.423.386.423h16.228c.202 0 .386-.202.386-.423V1.423C18 1.2 17.816 1 17.614 1H1.35zm.423.845h15.454V13.22l-3.386-4.06c-.078-.09-.195-.14-.308-.132-.052.002-.104.015-.151.04l-5.053 2.766-2.016-2.456c-.086-.107-.223-.16-.35-.139-.04.007-.08.02-.115.04L1.773 11.51V1.845zm7.34 2.535c-1.062 0-1.931.951-1.931 2.113 0 1.161.87 2.112 1.932 2.112 1.062 0 1.931-.95 1.931-2.112 0-1.162-.869-2.113-1.931-2.113zm0 .845c.645 0 1.16.563 1.16 1.268 0 .705-.515 1.267-1.16 1.267-.644 0-1.158-.562-1.158-1.267 0-.705.514-1.268 1.159-1.268zm4.36 4.747l3.754 4.496v.897h-6.006l-2.36-2.878 4.611-2.515zm-7.54.211l4.243 5.182H1.773v-2.904l4.16-2.278z"/>
</svg>
