<svg width="25" height="25" viewbox="0 0 25 25" xmlns="http://www.w3.org/2000/svg">
  <g fill="none" fill-rule="evenodd">
    <path d="M12.5 1C6.16142 1 1 6.16144 1 12.5 1 18.838589 6.16142 24 12.5 24S24 18.838589 24 12.5C24 6.16144 18.83858 1 12.5 1zm-2.106105 6.418605c-.5819.013907-1.08832.510493-1.103197 1.220203v7.714042c.01987.946263.914547 1.520247 1.696584 1.069768l6.284884-3.869563c.342502-.21136.576671-.599284.576671-1.053052 0-.453769-.23417-.841712-.576671-1.053045l-6.284884-3.869546c-.19551-.11262-.39942-.163434-.593387-.158807z" stroke="#88cc3f" stroke-width="2" fill="#88cc3f"/>
    <path d="M10.393895 7.418605c-.5819.013907-1.08832.510493-1.103197 1.220203v7.714042c.01987.946263.914547 1.520247 1.696584 1.069768l6.284884-3.869563c.342502-.21136.576671-.599284.576671-1.053052 0-.453769-.23417-.841712-.576671-1.053045l-6.284884-3.869546c-.19551-.11262-.39942-.163434-.593387-.158807z" fill="#FFF"/>
  </g>
</svg>