<?xml version="1.0" encoding="utf-8"?>
<!-- Generator: Adobe Illustrator 19.0.0, SVG Export Plug-In . SVG Version: 6.00 Build 0)  -->
<svg version="1.1" id="Layer_1" xmlns="http://www.w3.org/2000/svg" xmlns:xlink="http://www.w3.org/1999/xlink" x="0px" y="0px"
	 viewBox="0 0 33 33" style="enable-background:new 0 0 33 33;" xml:space="preserve">
<style type="text/css">
	.st0{fill:#363636;}
	.st1{fill:#353535;}
</style>
<path id="XMLID_4_" class="st0" d="M21.5,7.3h-2V3.9c0-0.4-0.3-0.7-0.7-0.7h-6.2c-0.4,0-0.7,0.3-0.7,0.7v3.4h-2V3.9
	c0-1.5,1.2-2.7,2.7-2.7h6.2c1.5,0,2.7,1.2,2.7,2.7V7.3z"/>
<path id="XMLID_8_" class="st1" d="M23.3,31.7H8.1c-1.4,0-2.6-1.2-2.6-2.6V10.7h20.4v18.4C25.9,30.5,24.8,31.7,23.3,31.7z M7.5,12.7
	v16.4c0,0.3,0.3,0.6,0.6,0.6h15.2c0.3,0,0.6-0.3,0.6-0.6V12.7H7.5z"/>
<rect id="XMLID_5_" x="9.9" y="11.9" class="st0" width="2" height="18.9"/>
<rect id="XMLID_6_" x="14.8" y="11.8" class="st0" width="2" height="19"/>
<rect id="XMLID_3_" x="19.5" y="11.9" class="st0" width="2" height="18.8"/>
<path id="XMLID_7_" class="st0" d="M27,6.4H4.5C4,6.4,3.6,6.8,3.6,7.3v0.4c0,0.5,0.4,0.9,0.9,0.9H27c0.5,0,0.9-0.4,0.9-0.9V7.3
	C27.8,6.8,27.4,6.4,27,6.4z"/>
</svg>
