<?xml version="1.0" encoding="UTF-8"?>
<svg width="92px" height="60px" viewBox="0 0 92 60" version="1.1" xmlns="http://www.w3.org/2000/svg" xmlns:xlink="http://www.w3.org/1999/xlink">
    <title>noun_Laptop_1113458</title>
    <g id="Page-1" stroke="none" stroke-width="1" fill="none" fill-rule="evenodd">
        <g id="noun_Laptop_1113458" fill="#90A9C0" fill-rule="nonzero">
            <path d="M88.2,51.9 L86.6,51.9 L86.6,5.4 C86.6,2.7 84.4,0.5 81.7,0.5 L10.2,0.5 C7.5,0.5 5.3,2.7 5.3,5.4 L5.3,51.9 L3.8,51.9 C1.7,51.9 0,53.6 0,55.7 C0,57.8 1.7,59.5 3.8,59.5 L88.2,59.5 C90.3,59.5 92,57.8 92,55.7 C92,53.6 90.3,51.9 88.2,51.9 Z M52.1,55 L39.9,55 C39.6,55 39.3,54.7 39.3,54.4 C39.3,54.1 39.5,53.9 39.8,53.8 L52.3,53.8 C52.6,53.9 52.8,54.1 52.8,54.4 C52.7,54.7 52.4,55 52.1,55 Z M81.7,51.9 L52.4,51.9 C52.3,51.9 52.2,51.9 52.1,51.9 L39.9,51.9 C39.8,51.9 39.7,51.9 39.6,51.9 L10.3,51.9 L10.3,5.8 L81.7,5.8 L81.7,51.9 Z" id="Shape"></path>
        </g>
    </g>
</svg>