<svg width="16" height="13" xmlns="http://www.w3.org/2000/svg"><path d="M14.9873423 2.16071436H5.30632932c-.5670887 0-1.01265832-.43214287-1.01265832-.98214289 0-.55000002.44556962-.9821429 1.01265832-.9821429h9.68101298c.5670886 0 1.0126582.43214288 1.0126582.9821429s-.4455696.98214289-1.0126582.98214289zm1.0126582 4.12500014c0-.55000002-.4455696-.98214289-1.0126582-.98214289H5.30632932c-.5670887 0-1.01265832.43214287-1.01265832.98214289 0 .55000002.44556962.98214289 1.01265832.98214289h9.68101298c.5670886 0 1.0126582-.43214287 1.0126582-.98214289zm0 5.107143c0-.55-.4455696-.9821429-1.0126582-.9821429H5.30632932c-.5670887 0-1.01265832.4321429-1.01265832.9821429s.44556962.9821429 1.01265832.9821429h9.68101298c.5670886 0 1.0126582-.4321429 1.0126582-.9821429zM2.43037985 1.17857147C2.43037985.5107143 1.90379755 0 1.21518987 0 .56708859 0 0 .5107143 0 1.17857147c0 .62857145.5265823 1.17857147 1.21518987 1.17857147.68860768 0 1.21518998-.51071431 1.21518998-1.17857147zm0 5.10714303c0-.66785717-.5265823-1.17857147-1.21518998-1.17857147C.56708859 5.10714303 0 5.61785733 0 6.2857145c0 .62857145.5265823 1.17857147 1.21518987 1.17857147.68860768 0 1.21518998-.5107143 1.21518998-1.17857147zm0 5.107143c0-.6678571-.5265823-1.1785714-1.21518998-1.1785714C.56708859 10.2142861 0 10.7250004 0 11.3928575c0 .6285715.5265823 1.1785715 1.21518987 1.1785715.68860768 0 1.21518998-.5107143 1.21518998-1.1785715z" fill="#1C2243" fill-rule="nonzero"/></svg>