<svg width="36" height="36" xmlns="http://www.w3.org/2000/svg"><g fill-rule="nonzero" fill="none"><path d="M33.513 1H2.084C1.485 1 1 1.485 1 2.084v32.512c0 .599.485 1.084 1.084 1.084h32.512c.599 0 1.084-.485 1.084-1.084V4.251 2.084c0-.599-.485-1.084-1.084-1.084h-1.083zm0 32.513H3.168V11.838h30.345v21.675zM15.61 23.117v2.047h-5.46v-2.047h5.46zm-8.7-8.871l3.923 4.094-3.924 4.094-1.535-1.585L7.85 18.34l-2.474-2.51 1.535-1.584zM33.512 3.167V9.67H3.168V3.168h30.345z" stroke="#000" stroke-width=".2" fill="#000"/><path fill="#1C2243" d="M20.387 5.375h2.047v2.047h-2.047zM24.481 5.375h2.047v2.047h-2.047zM29.258 5.375h2.047v2.047h-2.047z"/></g></svg>
