<svg xmlns="http://www.w3.org/2000/svg" width="20" height="23"><g fill="none" fill-rule="evenodd"><path d="M0 0h20v23H0z"/><path stroke="#90A9C0" stroke-linecap="round" stroke-linejoin="round" stroke-width="1.7" d="M3.91 8.153c-3.885.276-3.875 5.905 0 6.18h9.2a4.44 4.44 0 0 0 3.019-1.161c2.724-2.38 1.267-7.143-2.324-7.6C12.52-2.18 1.292.763 3.95 8.153"/><path stroke="#90A9C0" stroke-linecap="round" stroke-linejoin="round" stroke-width="1.7" d="M9.272 14.334v2.857" opacity=".4"/><path stroke="#90A9C0" stroke-linecap="round" stroke-linejoin="round" stroke-width="1.7" d="M9.272 21a1.905 1.905 0 1 0 0-3.81 1.905 1.905 0 0 0 0 3.81Z"/><path stroke="#90A9C0" stroke-linecap="round" stroke-linejoin="round" stroke-width="1.7" d="M14.987 19.095h-3.81M7.368 19.095h-3.81" opacity=".4"/></g></svg>