<svg xmlns="http://www.w3.org/2000/svg" width="18.526" height="16"><path fill="#264D6D" fill-rule="nonzero" d="M9.292 0c.996 0 1.796.792 1.796 1.778 0 .773-.527 1.45-1.23 1.68v1.47h4.295c1.25 0 2.284 1.004 2.284 2.26v.793h.683c.781 0 1.425.637 1.406 1.43v2.01c0 .772-.644 1.41-1.425 1.41h-.683v.908A2.275 2.275 0 0 1 14.134 16H4.392c-1.249 0-2.284-1.005-2.284-2.26v-.928h-.683C.645 12.812 0 12.174 0 11.4v-2.01c0-.773.644-1.41 1.425-1.41h.722v-.793a2.275 2.275 0 0 1 2.284-2.26h4.295v-1.47a1.779 1.779 0 0 1-1.23-1.68C7.496.792 8.296 0 9.292 0Zm4.861 6.048H4.412c-.644 0-1.152.522-1.152 1.14v6.551c0 .638.527 1.14 1.152 1.14h9.722c.644 0 1.151-.522 1.151-1.14h.02V7.19c0-.638-.527-1.14-1.152-1.14Zm-3.63 6.223c.311 0 .565.25.565.56 0 .31-.254.56-.566.56H8.023a.564.564 0 0 1-.566-.56c0-.31.254-.56.566-.56ZM2.107 9.12h-.683a.299.299 0 0 0-.293.29v1.99c0 .155.137.29.293.29h.683V9.12Zm14.993 0h-.683v2.57h.683a.299.299 0 0 0 .293-.29v-1.99a.299.299 0 0 0-.293-.29ZM6.87 7.556c1.016 0 1.855.811 1.855 1.835 0 1.005-.84 1.836-1.854 1.836-1.016 0-1.855-.83-1.855-1.836 0-1.005.84-1.835 1.855-1.835Zm4.803-.02c1.034 0 1.854.831 1.854 1.836 0 1.005-.839 1.836-1.854 1.836-1.015 0-1.855-.831-1.855-1.836 0-1.005.82-1.836 1.855-1.836ZM6.872 8.657c-.41 0-.723.31-.723.715 0 .406.332.715.723.715.39 0 .722-.31.722-.715a.717.717 0 0 0-.722-.715Zm4.802 0c-.41 0-.722.31-.722.715 0 .406.331.715.722.715.41 0 .722-.31.722-.715a.717.717 0 0 0-.722-.715ZM9.273 1.121c-.371 0-.664.29-.664.657 0 .367.293.657.664.657.37 0 .663-.29.663-.657a.655.655 0 0 0-.663-.657Z"/></svg>