<svg xmlns="http://www.w3.org/2000/svg" width="12" height="12.07" viewBox="0 0 12 12.07"><g fill="#83A9C7" fill-rule="nonzero"><path d="M10.765.181a.284.284 0 0 0-.53 0l-.253.646a.285.285 0 0 1-.16.161l-.642.255a.287.287 0 0 0 0 .532l.642.255c.073.029.131.087.16.16l.253.646a.284.284 0 0 0 .53 0l.253-.645a.285.285 0 0 1 .16-.161l.642-.255a.287.287 0 0 0 0-.532l-.642-.255a.285.285 0 0 1-.16-.161L10.765.18ZM8.284 3.212a.305.305 0 0 0-.568 0l-.1.253a.306.306 0 0 1-.171.173l-.252.1a.308.308 0 0 0 0 .571l.252.1a.306.306 0 0 1 .172.173l.099.253c.102.26.466.26.568 0l.1-.253a.306.306 0 0 1 .171-.173l.252-.1a.308.308 0 0 0 0-.571l-.252-.1a.306.306 0 0 1-.172-.173l-.099-.253Z"/><path d="M6 12.07c3.314 0 6-2.702 6-6.035 0-.28-.416-.325-.56-.086A3.893 3.893 0 0 1 8.1 7.846c-2.154 0-3.9-1.757-3.9-3.923 0-1.425.756-2.673 1.886-3.36C6.324.419 6.278 0 6 0 2.686 0 0 2.702 0 6.035s2.686 6.035 6 6.035Z"/></g></svg>