<svg width="27" height="19" xmlns="http://www.w3.org/2000/svg" viewBox="0 0 27 19"><g fill="none" fill-rule="evenodd"><path d="M25.49 0C26.323 0 27 .67 27 1.493v3.196c0 .823-.677 1.493-1.51 1.493H17.2v1.024h8.29c.833 0 1.51.67 1.51 1.493v3.196c0 .823-.677 1.493-1.51 1.493H17.2v1.025h1.883c.386 0 .7.31.7.692v.91h6.376c.386 0 .7.309.7.692a.696.696 0 0 1-.7.692h-6.376v.909a.696.696 0 0 1-.7.692h-5.166c-.386 0-.7-.31-.7-.692v-.909H6.842c-.387 0-.7-.31-.7-.692 0-.383.313-.693.7-.693h6.375v-.91c0-.382.314-.691.7-.691H15.8v-1.025H7.51c-.833 0-1.51-.67-1.51-1.493V8.699c0-.823.677-1.493 1.51-1.493h8.29V6.182H7.51c-.833 0-1.51-.67-1.51-1.493V1.493C6 .67 6.677 0 7.51 0Zm-7.107 15.797h-3.766v1.818h3.766v-1.818Zm7.107-7.206H7.51a.11.11 0 0 0-.11.108v3.196c0 .06.05.109.11.109h17.98a.11.11 0 0 0 .11-.11V8.7a.11.11 0 0 0-.11-.108Zm-1.71.9c.451 0 .816.36.816.806a.81.81 0 0 1-.815.806.81.81 0 0 1-.815-.806.81.81 0 0 1 .815-.806Zm1.71-8.106H7.51a.11.11 0 0 0-.11.108v3.196c0 .06.05.108.11.108h17.98a.11.11 0 0 0 .11-.108V1.493a.11.11 0 0 0-.11-.108Zm-1.71.9c.451 0 .816.36.816.806a.81.81 0 0 1-.815.806.81.81 0 0 1-.815-.806.81.81 0 0 1 .815-.806Z" fill="#90A9C0" fill-rule="nonzero"/><circle stroke="#90A9C0" stroke-width="1.3" fill="#FFF" cx="5" cy="7" r="4.35"/><g stroke="#90A9C0" stroke-linecap="round" stroke-linejoin="round" stroke-width="1.2"><path d="M3 7h4M5 9l2-2M5 5l2 2"/></g></g></svg>