<svg xmlns="http://www.w3.org/2000/svg" width="44" height="44" viewBox="0 0 44 44">
    <path fill="#1C2243" d="M42.124 34.012c.28-.29.426-.683.406-1.085l-.067-1.394h-1.4v-1.466h2.098c.39 0 .714.306.733.697l.103 2.09c.039.802-.253 1.586-.807 2.168-.554.582-1.323.911-2.127.911v-1.466c.402 0 .786-.164 1.061-.455zM1.467 33v-1.467h12.465v-1.466H4.4v-19.8c0-1.215.985-2.2 2.2-2.2V28.6h1.466V3.667c0-1.215.985-2.2 2.2-2.2H33.73c1.215 0 2.2.985 2.2 2.2v13.2h1.466v-8.8c1.215 0 2.2.985 2.2 2.2v11h1.466v-11c-.002-2.024-1.642-3.665-3.666-3.667V3.667C37.395 1.643 35.755.002 33.731 0H10.266C8.242.002 6.602 1.643 6.599 3.667V6.6c-2.023.002-3.663 1.643-3.666 3.667v19.8h-2.2c-.405 0-.733.328-.733.733V33c0 1.62 1.313 2.933 2.933 2.933h13.2v-1.466h-13.2c-.81 0-1.466-.657-1.466-1.467zm35.893-4.4c-.461 5.11-4.927 8.913-10.046 8.551-5.118-.36-9.006-4.752-8.745-9.877.262-5.125 4.576-9.098 9.705-8.937 5.128.162 9.184 4.398 9.123 9.53v.733h-.037zm-1.43-.733c0-4.456-3.61-8.067-8.066-8.067-4.454 0-8.066 3.611-8.066 8.067 0 4.455 3.612 8.066 8.066 8.066 4.453-.005 8.061-3.614 8.066-8.066zM9.533 2.933V4.4h1.466V2.933H9.533zm2.933 0V4.4h1.466V2.933h-1.466zm2.933 0V4.4h1.466V2.933H15.4zm19.065 2.934H9.533v1.466h24.93V5.867zm8.71 33.34c1.097 1.097 1.097 2.874 0 3.97-1.096 1.097-2.873 1.097-3.97 0l-4.748-4.75c-5.393 3.375-12.46 2.164-16.423-2.814-3.962-4.978-3.557-12.138.942-16.637 4.499-4.499 11.657-4.904 16.635-.942 4.978 3.963 6.189 11.03 2.814 16.424l4.75 4.75zm-15.31-.34c6.075 0 11-4.925 11-11 0-6.076-4.925-11-11-11-6.074 0-10.999 4.924-10.999 11 .007 6.072 4.928 10.993 11 11zm14.666 2.326c0-.356-.142-.697-.392-.949l-4.57-4.57c-.563.698-1.198 1.334-1.896 1.897l4.57 4.57c.383.383.96.497 1.46.29.5-.208.827-.696.828-1.238zM32.264 27.867v4.4c0 .405-.328.733-.733.733h-7.333c-.405 0-.733-.328-.733-.733v-4.4c0-.405.328-.734.733-.734h5.866V26.4c.001-.997-.668-1.87-1.63-2.128-.963-.258-1.979.164-2.476 1.028l-1.269-.733c.83-1.438 2.522-2.138 4.124-1.709 1.603.43 2.718 1.882 2.718 3.542v.733c.405 0 .733.329.733.734zm-1.466.733H24.93v2.933h5.867V28.6zM11.732 15.4c-1.215 0-2.2-.985-2.2-2.2v-1.467c0-1.215.985-2.2 2.2-2.2 1.215 0 2.2.985 2.2 2.2V13.2c0 1.215-.985 2.2-2.2 2.2zm0-1.467c.405 0 .734-.328.734-.733v-1.467c0-.405-.329-.733-.734-.733-.405 0-.733.328-.733.733V13.2c0 .405.328.733.733.733zm8.8-4.4c1.215 0 2.2.985 2.2 2.2V13.2c0 1.215-.985 2.2-2.2 2.2-1.215 0-2.2-.985-2.2-2.2v-1.467c0-1.215.985-2.2 2.2-2.2zm0 1.467c-.405 0-.734.328-.734.733V13.2c0 .405.329.733.734.733.405 0 .733-.328.733-.733v-1.467c0-.405-.328-.733-.733-.733zm9.434 2.567l1.27.733c.193-.335.295-.714.295-1.1v-1.467c0-1.215-.985-2.2-2.2-2.2-1.215 0-2.2.985-2.2 2.2V13.2c0 .386.101.765.293 1.1l1.271-.733c-.064-.112-.098-.238-.097-.367v-1.467c0-.405.328-.733.733-.733.405 0 .733.328.733.733V13.2c0 .129-.033.255-.098.367zm-13.1 1.1v-4.4h-1.467v4.4h1.466zm8.799 0v-4.4h-1.467v4.4h1.467zm-13.933 6.6v-4.4h-1.466v4.4h1.466zm2.934-4.4h-1.467v4.4h1.467v-4.4zm-5.133 8.066c0-1.215.984-2.2 2.2-2.2 1.214 0 2.2.985 2.2 2.2V26.4c0 1.215-.986 2.2-2.2 2.2-1.216 0-2.2-.985-2.2-2.2v-1.467zm1.466 1.467c0 .405.328.733.733.733.405 0 .734-.328.734-.733v-1.467c0-.405-.329-.733-.734-.733-.405 0-.733.328-.733.733V26.4zm23.465-11.733v-4.4h-1.467v4.4h1.467z"/>
</svg>
