<svg xmlns="http://www.w3.org/2000/svg" width="17" height="17" viewBox="0 0 17 17">
    <path fill="#95ACC2" d="M8.5 0C3.806 0 0 3.806 0 8.5S3.806 17 8.5 17 17 13.194 17 8.5c0-2.254-.896-4.416-2.49-6.01C12.916.896 10.754 0 8.5 0zm.704 12.04c.003.445-.246.71-.683.71-.437 0-.728-.255-.73-.628 0-.517.232-.774.694-.788.376-.011.767.219.72.706zm1.426-3.883c-.235.197-.48.376-.717.57-.348.247-.548.677-.525 1.128.012.33-.184.625-.476.717-.31.13-.662.015-.855-.278-.062-.112-.095-.24-.098-.37-.024-.823.328-1.605.94-2.09.265-.219.515-.459.748-.717.111-.142.179-.318.194-.503.038-.508-.263-.834-.747-.868-.585-.04-1.077.124-1.419.685-.147.27-.433.414-.718.358-.496-.09-.709-.527-.506-1.03.213-.49.579-.884 1.033-1.111.466-.249.977-.385 1.496-.398.294.033.586.085.874.156.88.27 1.404 1.034 1.47 2.048.065.662-.2 1.31-.696 1.703h.002z"/>
</svg>
