<svg width="19" height="19" xmlns="http://www.w3.org/2000/svg"><g fill="#1C4566" fill-rule="nonzero"><path d="M9.6 1a8.6 8.6 0 0 1 8.6 8.6A8.6 8.6 0 1 1 9.6 1Zm0 1.119a7.48 7.48 0 1 0 0 14.962 7.48 7.48 0 0 0 0-14.962Z" stroke="#1C4566" stroke-width=".5"/><path d="M10.201 3.684a.743.743 0 0 1 .61.328.662.662 0 0 1 .09.528.68.68 0 0 1-.236.366l-.094.064-.348.204.145.018c2.43.353 4.25 2.333 4.253 4.677l-.005.214c-.118 2.58-2.397 4.594-5.127 4.537-2.73-.058-4.914-2.166-4.91-4.747 0-.305.259-.55.576-.55.317 0 .576.244.576.549-.001 1.975 1.67 3.592 3.77 3.642 2.098.05 3.854-1.487 3.958-3.46.095-1.78-1.187-3.334-2.979-3.727l-.139-.027.207.127c.24.15.363.418.322.683l-.024.1a.728.728 0 0 1-.699.493.763.763 0 0 1-.305-.064l-.093-.048-2.17-1.347a.682.682 0 0 1-.33-.591.678.678 0 0 1 .263-.523L7.6 5.07l2.213-1.28a.797.797 0 0 1 .39-.107Z"/></g></svg>