<svg className="reports" width="15" height="21" xmlns="http://www.w3.org/2000/svg"><path d="M6.586.193a1.97 1.97 0 0 1 1.702 0c.513.235.925.65 1.157 1.17h1.852a.571.571 0 0 1 .532.597v.574h2.315c.48.024.857.426.856.912v12.077a.53.53 0 0 1-.104.293L10.429 20.8a.53.53 0 0 1-.417.199H.858a.887.887 0 0 1-.625-.293.907.907 0 0 1-.232-.655V3.446a.908.908 0 0 1 .822-.83h2.315v-.574a.571.571 0 0 1 .532-.597h1.759A2.33 2.33 0 0 1 6.586.193ZM3.138 3.996H1.714a.403.403 0 0 0-.28.137.412.412 0 0 0-.102.296v14.687a.42.42 0 0 0 .382.433H9.26v-4.143a.66.66 0 0 1 .173-.47.645.645 0 0 1 .452-.209h3.784V4.43a.412.412 0 0 0-.102-.296.403.403 0 0 0-.28-.137h-1.4v.62a.898.898 0 0 1-.799.902h-7.06a.896.896 0 0 1-.89-.901v-.62Zm9.42 12.1h-2.06v2.341l2.06-2.34Zm-.421-5.47c.27 0 .49.22.49.49v.19c0 .271-.22.49-.49.49H2.864a.49.49 0 0 1-.49-.49v-.19c0-.27.22-.49.49-.49h9.273Zm0-2.328c.27 0 .49.22.49.49v.19c0 .27-.22.49-.49.49H2.864a.49.49 0 0 1-.49-.49v-.19c0-.27.22-.49.49-.49h9.273ZM7.674 1.457a.838.838 0 0 0-.683.152 1.044 1.044 0 0 0-.393.667l-.035.328a.221.221 0 0 1-.22.21h-1.91v1.253h6.134V2.86H8.693a.221.221 0 0 1-.22-.21l-.07-.375a.98.98 0 0 0-.729-.82Z" fill="#264D6D" fill-rule="nonzero"/></svg>