<svg width="8" height="12" xmlns="http://www.w3.org/2000/svg"><path d="M4.42.103c.243.112.444.299.573.534l.044.09h.988c.147.01.265.123.282.27l.002.048v.307h1.234a.484.484 0 0 1 .454.427L8 1.838v6.441a.283.283 0 0 1-.033.12l-.022.036-2.383 2.659a.283.283 0 0 1-.171.101l-.051.005H.458a.473.473 0 0 1-.456-.441L0 10.695V1.838a.485.485 0 0 1 .381-.435l.057-.008h1.235v-.306A.306.306 0 0 1 1.91.778L1.957.77h.938c.114-.293.335-.531.618-.668a1.05 1.05 0 0 1 .907 0ZM1.674 2.131h-.76a.215.215 0 0 0-.202.189l-.002.042v7.833a.224.224 0 0 0 .161.223l.043.008H4.94v-2.21a.352.352 0 0 1 .279-.355l.054-.006H7.29V2.363a.22.22 0 0 0-.161-.224l-.043-.007H6.34v.33a.48.48 0 0 1-.367.471l-.06.01H2.149a.477.477 0 0 1-.471-.42l-.003-.06v-.332Zm5.024 6.454h-1.1v1.248l1.1-1.248Zm-.225-2.918c.144 0 .261.118.261.262v.101a.261.261 0 0 1-.26.261H1.526a.261.261 0 0 1-.26-.261v-.101c0-.144.116-.262.26-.262h4.946Zm0-1.241c.144 0 .261.117.261.261v.101a.262.262 0 0 1-.26.262H1.526a.261.261 0 0 1-.26-.262v-.1c0-.145.116-.262.26-.262h4.946ZM3.73.858a.556.556 0 0 0-.195.287l-.016.069-.018.175a.118.118 0 0 1-.087.108l-.03.004H2.364v.668h3.272v-.644h-1a.117.117 0 0 1-.112-.082l-.005-.03-.037-.2a.523.523 0 0 0-.39-.437.447.447 0 0 0-.363.082Z" fill="#FFF" fill-rule="evenodd"/></svg>