<svg xmlns="http://www.w3.org/2000/svg" width="23.522" height="16"><path fill="#90A9C0" fill-rule="evenodd" d="M11.756 0C8.46 0 5.574 1.969 3.59 3.79a24.193 24.193 0 0 0-3.03 3.38 14.321 14.321 0 0 0-.22.307l-.012.019-.004.006L0 8.016l.324.48.001.002.004.006.013.019a8.23 8.23 0 0 0 .219.307 24.193 24.193 0 0 0 3.03 3.38C5.574 14.03 8.46 16 11.756 16c3.296 0 6.182-1.969 8.164-3.79a24.187 24.187 0 0 0 3.031-3.38 14.472 14.472 0 0 0 .219-.307l.013-.019.003-.006.002-.002.334-.496-.334-.497-.002-.001-.003-.006-.013-.019a21.616 21.616 0 0 0-.869-1.148 24.187 24.187 0 0 0-2.38-2.538C17.937 1.969 15.05 0 11.755 0Zm-9.16 8.552A20.9 20.9 0 0 1 2.163 8a22.423 22.423 0 0 1 2.636-2.902c1.887-1.734 4.347-3.32 6.957-3.32 2.61 0 5.07 1.586 6.957 3.32A22.421 22.421 0 0 1 21.35 8a22.42 22.42 0 0 1-2.636 2.902c-1.887 1.733-4.348 3.32-6.957 3.32-2.61 0-5.07-1.587-6.958-3.32a22.42 22.42 0 0 1-2.202-2.35ZM14.429 8a2.67 2.67 0 0 1-2.673 2.667A2.67 2.67 0 0 1 9.083 8a2.67 2.67 0 0 1 2.673-2.667A2.67 2.67 0 0 1 14.429 8Zm1.782 0a4.45 4.45 0 0 1-4.455 4.444A4.45 4.45 0 0 1 7.3 8a4.45 4.45 0 0 1 4.456-4.444A4.45 4.45 0 0 1 16.21 8Z"/></svg>