<svg width="22" height="19" xmlns="http://www.w3.org/2000/svg"><path d="M17.664 0c.227 0 .425.139.503.345l.026.093.007.085.001 8.833-.034.024A4.502 4.502 0 0 1 16.6 18.1a4.499 4.499 0 0 1-3.924-2.296l-.029.049H.536a.534.534 0 0 1-.503-.346l-.026-.093L0 15.33V.523C0 .3.143.107.354.032L.45.007.536 0h17.128ZM16.6 10.1a3.5 3.5 0 1 0 0 7 3.5 3.5 0 0 0 0-7Zm-.171.714c.302 0 .552.206.599.475l.008.092v3.165l.785-.732a.638.638 0 0 1 .858 0c.211.196.235.502.07.722l-.07.079-1.82 1.7a.646.646 0 0 1-.8.049l-.06-.05-1.821-1.7a.54.54 0 0 1 0-.8.64.64 0 0 1 .774-.066l.084.066.785.732v-3.165c0-.313.272-.567.608-.567Zm.699-9.768H1.071v13.76l11.193.002a4.487 4.487 0 0 1-.152-.875l-.006.007H9.88a.537.537 0 0 1-.507-.368l-.022-.085-.008-.088V7.236a.54.54 0 0 1 .365-.51l.085-.023.087-.007h5.387c.232 0 .433.148.508.367l.022.085.007.088V9.17a4.527 4.527 0 0 1 1.325-.04l-.001-8.084Zm-8.904 5.65c.232 0 .433.148.507.367l.022.085.008.088v6.163a.54.54 0 0 1-.365.51l-.085.023-.087.007H2.837a.537.537 0 0 1-.508-.367l-.022-.085-.007-.088V7.236a.54.54 0 0 1 .365-.51l.084-.023.088-.007h5.387Zm6.506 1.08h-4.313v5.082h1.728l.013.016a4.506 4.506 0 0 1 2.612-3.386l-.04-.027V7.776Zm-7.043 0H3.373v5.082h4.314V7.776ZM15.28 2c.223 0 .417.143.492.354l.025.094.007.087v3.043c0 .227-.139.424-.346.502l-.093.026-.085.007H2.825a.525.525 0 0 1-.493-.354l-.025-.094-.007-.087V2.535c0-.227.14-.424.346-.502l.093-.026L2.825 2H15.28Zm-.525 1.069H3.349v1.974h11.406V3.069Z" fill="#90A9C0" fill-rule="nonzero"/></svg>