<svg width="14.509" height="16" xmlns="http://www.w3.org/2000/svg"><g fill="#264D6D" fill-rule="nonzero"><path d="M2.981 6.956h1.59v1.59h-1.59zM9.938 6.956h1.59v1.59h-1.59zM7.619 6.956h1.59v1.59h-1.59zM2.981 9.441h1.59v1.59h-1.59zM7.619 9.441h1.59v1.59h-1.59zM5.3 9.441h1.59v1.59H5.3zM9.938 11.925h1.59v1.59h-1.59zM7.619 11.925h1.59v1.59h-1.59zM5.3 11.925h1.59v1.59H5.3z"/><path d="M12.982 1.72h-1.293v1.24a.845.845 0 0 1-.85.839H9.152a.845.845 0 0 1-.85-.84V1.72H6.206v1.228c0 .47-.385.85-.859.85h-1.67a.856.856 0 0 1-.858-.85V1.72H1.525A1.52 1.52 0 0 0 0 3.231V14.49A1.52 1.52 0 0 0 1.525 16h11.457a1.52 1.52 0 0 0 1.527-1.511V3.23a1.52 1.52 0 0 0-1.527-1.51Zm.434 12.74c0 .267-.18.447-.447.447H1.54c-.267 0-.447-.18-.447-.447V5.565h12.323v8.895Z"/><path d="M3.677 3.203h1.669a.256.256 0 0 0 .256-.254V.64c0-.353-.29-.64-.646-.64h-.89a.644.644 0 0 0-.645.64V2.95c0 .14.115.254.256.254ZM9.151 3.203h1.689c.135 0 .246-.11.246-.244V.63A.634.634 0 0 0 10.45 0h-.91a.634.634 0 0 0-.635.63V2.96c0 .135.11.244.246.244Z"/></g></svg>