<svg width="34" height="34" xmlns="http://www.w3.org/2000/svg"><g fill="#1C2243" fill-rule="nonzero" stroke="#1C2243" stroke-width=".5"><path d="M32.9413317 13.5957447s0 0 0 0c.1248669-.4255319.0416223-.893617-.1664891-1.319149l-3.9124939-6.93617017c-.4578451-.80851064-1.498402-1.10638298-2.2892252-.63829787l-2.9135593 1.70212766c-.3746005-.25531915-.7908233-.46808511-1.207046-.68085106v-3.0212766C22.4525182 1.76595745 21.7033172 1 20.7876271 1h-7.3671428c-.9156901 0-1.6648911.76595745-1.6648911 1.70212766v2.93617021c-.4994673.21276596-.87406778.46808511-1.20704599.68085107L7.67661016 4.61702128c-.79082325-.46808511-1.78975787-.21276596-2.28922519.59574468L1.35002419 12.106383c-.24973365.3829787-.29135593.8510638-.20811138 1.3191489.12486683.4255319.37460049.8085107.74920097 1.0638298l2.7886925 1.7021277C4.638184 16.4893617 4.638184 16.7446809 4.638184 17v.6808511l-2.83031477 1.6595744c-.3329782.2553192-.62433414.6382979-.74920097 1.0638298-.12486683.4255319-.04162227.893617.1664891 1.319149l3.91249396 6.9361702c.45784503.8085106 1.45677966 1.1063829 2.24760291.6382978l2.99680387-1.7021276c.37460049.2553191.7908232.5106383 1.3319128.7659574v2.9361702c0 .9361703.749201 1.7021277 1.6648911 1.7021277h7.4087651c.9156901 0 1.6648911-.7659574 1.6648911-1.7021277v-3.0212766c.3746005-.1702127.7492009-.3829787 1.0821791-.6382978l2.8303148 1.7021276c.7908233.4680851 1.8313802.212766 2.2892252-.5957446l3.9957385-6.8936171c.2081114-.3829787.2913559-.8510638.1664891-1.2765957-.1248668-.4255319-.3746005-.8085107-.749201-1.0638298l-2.7886925-1.7021277c.0416223-.2978723.0416223-.5531915.0416223-.8085106 0-.212766 0-.4680851-.0416223-.6808511l2.8303148-1.6595744c.4162228-.212766.7075787-.5957447.8324455-1.0638298zm-1.6232687-.4255319l-3.2881598 1.9574468c-.291356.1702127-.4578451.5106383-.4162228.8085106.0416223.3829787.0416223.7234043.0416223 1.0638298 0 .3829787-.0416223.7659574-.0832446 1.1914894-.0416223.3404255.1248669.680851.4162228.8510638l3.2465375 2-3.9957385 6.893617-3.2881598-2c-.2913559-.1702128-.6243341-.1702128-.9156901.0425532-.5410896.3829787-1.1238014.7234043-1.7481356.9787234-.2913559.1276596-.4994673.4255319-.4994673.7659575v3.574468H13.378862v-3.4893617c0-.3404255-.2081114-.680851-.5410896-.8085106-.8324455-.2978723-1.4151574-.7234043-1.91462471-1.0638298-.1664891-.1276596-.33297821-.1702128-.49946731-.1702128-.12486683 0-.29135593.0425532-.41622276.1276596l-3.41302664 1.8723404-3.91249395-6.9361702 3.28815981-1.9574468c.29135593-.1702127.45784504-.5106383.41622276-.8085106-.04162228-.3829787-.04162228-.7234043-.04162228-1.0638298 0-.3404255.04162228-.7234043.08324456-1.1914894.04162227-.3404255-.12486683-.680851-.41622277-.8510638l-3.24653753-2 4.03736078-6.89361701 3.32978209 2c.29135593.17021276.66595641.17021276.91569005-.04255319C11.5891041 7.59574468 12.0885714 7.29787234 12.8377724 7c.3329782-.12765957.5410896-.42553191.5410896-.80851064V2.65957447h7.4087651v3.57446808c0 .34042554.2081114.63829788.4994673.76595745.6659565.29787234 1.2902906.63829787 1.8313802 1.06382979.2497336.21276595.6243341.21276595.8740678.04255319l3.3714043-1.95744681 3.9541163 7.02127663s0 0 0 0l.7908232.2127659-.7908232-.2127659z"/><path d="M17 10.73913043c-3.4373402 0-6.26086957 2.82352937-6.26086957 6.26086957 0 3.4373402 2.82352937 6.2608696 6.26086957 6.2608696 3.4373402 0 6.2608696-2.8235294 6.2608696-6.2608696 0-3.4373402-2.8235294-6.26086957-6.2608696-6.26086957zm0 10.88491047c-2.5370844 0-4.6240409-2.0869565-4.6240409-4.6240409S14.4629156 12.3759591 17 12.3759591 21.6240409 14.4629156 21.6240409 17c0 2.5780051-2.0869565 4.6240409-4.6240409 4.6240409z"/></g></svg>