<svg width="23.111" height="16" xmlns="http://www.w3.org/2000/svg">
  <path 
    d="M11.55 0C8.312 0 5.477 1.969 3.528 3.79A24.03 24.03 0 0 0 .551 7.17a14.314 14.314 0 0 0-.215.307l-.013.019-.004.006L0 8.016l.318.48.001.002.004.006.013.019a8.245 8.245 0 0 0 .215.307 24.03 24.03 0 0 0 2.977 3.38C5.477 14.03 8.312 16 11.55 16c3.239 0 6.074-1.969 8.022-3.79a24.024 24.024 0 0 0 2.978-3.38 14.473 14.473 0 0 0 .215-.307l.013-.019.003-.006.002-.002.328-.496-.328-.497-.002-.001-.003-.006-.013-.019a21.575 21.575 0 0 0-.854-1.148c-.55-.69-1.349-1.613-2.339-2.538C17.624 1.969 14.79 0 11.55 0Zm-9 8.552c-.167-.21-.31-.397-.425-.552a22.272 22.272 0 0 1 2.59-2.902c1.854-1.734 4.271-3.32 6.835-3.32s4.982 1.586 6.836 3.32A22.27 22.27 0 0 1 20.976 8a22.268 22.268 0 0 1-2.59 2.902c-1.854 1.733-4.272 3.32-6.836 3.32s-4.981-1.587-6.835-3.32a22.27 22.27 0 0 1-2.165-2.35ZM14.177 8c0 1.473-1.176 2.667-2.627 2.667-1.45 0-2.626-1.194-2.626-2.667 0-1.473 1.176-2.667 2.626-2.667 1.451 0 2.627 1.194 2.627 2.667Zm1.75 0c0 2.455-1.959 4.444-4.377 4.444-2.417 0-4.377-1.99-4.377-4.444 0-2.455 1.96-4.444 4.377-4.444 2.418 0 4.378 1.99 4.378 4.444Z" 
    fill="currentColor" 
    fill-rule="evenodd" 
    opacity=".349"
  />
</svg>