<svg width="10" height="10" viewBox="0 0 10 10" fill="none" xmlns="http://www.w3.org/2000/svg">
<path d="M2.11018 5.29462C2.0765 5.21882 1.96894 5.21882 1.93526 5.29462C1.90727 5.35758 1.87922 5.42058 1.84929 5.48248C1.48146 6.24343 0.902011 6.8822 0.180628 7.32219L0.0466832 7.40068C-0.0155611 7.43572 -0.0155611 7.52533 0.0466832 7.56032L0.180628 7.63885C0.902011 8.07884 1.48146 8.71757 1.84929 9.47852L1.93526 9.66643C1.96894 9.74218 2.0765 9.74218 2.11018 9.66643L2.19615 9.47852C2.56398 8.71757 3.14343 8.07884 3.86481 7.63885L3.99875 7.56032C4.06101 7.52533 4.06101 7.43572 3.99875 7.40068L3.86481 7.32219C3.14343 6.8822 2.56398 6.24343 2.19615 5.48248L2.11018 5.29462Z" fill="#0082ED"/>
<path d="M6.61333 0.0994684C6.55437 -0.0331561 6.36616 -0.0331561 6.30719 0.0994684L6.23109 0.269357L6.15676 0.428252C6.09259 0.561008 6.02472 0.691635 5.95332 0.820007L5.88682 0.937138C5.34392 1.87401 4.60927 2.68577 3.73141 3.31907L3.54912 3.44661C3.44674 3.51605 3.34255 3.58312 3.2366 3.64773C3.15939 3.69483 3.08124 3.74063 3.00219 3.78511C2.89327 3.84635 2.89327 4.00321 3.00219 4.06445C3.08124 4.10895 3.15939 4.15472 3.2366 4.20184C3.39552 4.29873 3.5505 4.40118 3.7013 4.50889L3.91731 4.66891C4.71325 5.2804 5.3827 6.04244 5.88682 6.91244L5.94351 7.01196L6.05775 7.22378L6.15676 7.42131L6.23109 7.58019L6.30719 7.7501C6.36616 7.88269 6.55437 7.88269 6.61333 7.7501L6.68944 7.58019L6.76377 7.42131C6.82794 7.28857 6.89581 7.1579 6.96721 7.02956L7.0337 6.91244C7.5766 5.97552 8.3112 5.1638 9.18912 4.53049L9.37139 4.40295C9.47376 4.3335 9.57797 4.26644 9.68392 4.20184C9.76114 4.15472 9.83927 4.10895 9.91831 4.06445C10.0272 4.00321 10.0272 3.84635 9.91831 3.78511C9.83927 3.74063 9.76114 3.69483 9.68392 3.64773C9.52499 3.55081 9.37 3.44837 9.2192 3.34068L9.0032 3.18065C8.20724 2.56917 7.53782 1.80709 7.0337 0.937138L6.97702 0.837574L6.86278 0.625773L6.76377 0.428252L6.68944 0.269357L6.61333 0.0994684Z" fill="#0082ED"/>
</svg>