<svg width="16" height="9" xmlns="http://www.w3.org/2000/svg"><path d="M16 1.455c0 .8-.655 1.454-1.455 1.454a1.236 1.236 0 0 1-.37-.05l-2.59 2.581a1.459 1.459 0 0 1-1.404 1.833A1.459 1.459 0 0 1 8.779 5.44L6.924 3.585c-.117.037-.248.051-.379.051-.13 0-.261-.014-.378-.05L2.858 6.901c.037.116.051.24.051.37 0 .8-.654 1.455-1.454 1.455C.655 8.727 0 8.073 0 7.273c0-.8.655-1.455 1.455-1.455.13 0 .254.015.37.051L5.142 2.56A1.459 1.459 0 0 1 6.546.727 1.459 1.459 0 0 1 7.948 2.56l1.855 1.855c.116-.037.247-.051.378-.051.13 0 .262.014.378.05l2.582-2.589a1.236 1.236 0 0 1-.051-.37c0-.8.654-1.455 1.454-1.455.8 0 1.455.655 1.455 1.455Z" fill="#90A9C0" fill-rule="nonzero"/></svg>