<svg xmlns="http://www.w3.org/2000/svg" width="14" height="14"><g fill="#1C2243" fill-rule="evenodd"><path fill-rule="nonzero" d="M10.907 7a3.907 3.907 0 1 1-7.814 0 3.907 3.907 0 0 1 7.814 0Z"/><path d="M7.212 0c.386 0 .7.219.7.488v.652c0 .27-.314.488-.7.488-.387 0-.7-.219-.7-.488V.488c0-.27.313-.488.7-.488ZM2.07 2.07a.555.555 0 0 1 .784 0l.29.29a.555.555 0 0 1-.784.785l-.29-.29a.555.555 0 0 1 0-.785Zm10.028 0a.555.555 0 0 1 0 .784l-.291.29a.555.555 0 0 1-.784-.784l.29-.29a.555.555 0 0 1 .785 0ZM0 7.212c0-.387.219-.7.488-.7h.652c.27 0 .488.313.488.7 0 .386-.219.7-.488.7H.488c-.27 0-.488-.314-.488-.7Zm12.372 0c0-.387.219-.7.488-.7h.652c.27 0 .488.313.488.7 0 .386-.219.7-.488.7h-.652c-.27 0-.488-.314-.488-.7Zm-1.35 3.81a.555.555 0 0 1 .785 0l.29.291a.555.555 0 1 1-.784.785l-.29-.291a.555.555 0 0 1 0-.784Zm-7.877 0a.555.555 0 0 1 0 .785l-.29.29a.555.555 0 1 1-.785-.784l.29-.29a.555.555 0 0 1 .785 0Zm4.067 1.35c.386 0 .7.219.7.488v.652c0 .27-.314.488-.7.488-.387 0-.7-.219-.7-.488v-.652c0-.27.313-.488.7-.488Z"/></g></svg>