<svg class="planner" width="18" height="18" viewBox="0 0 18 18" xmlns="http://www.w3.org/2000/svg"><g fill="#264D6D" fill-rule="nonzero"><path d="M8.92 3.358h10.153c.506 0 .927-.42.927-.924a.934.934 0 0 0-.927-.925H8.92a.934.934 0 0 0-.927.925c0 .504.422.924.927.924ZM4.516.3l-2.08 2.262-.777-.845a.928.928 0 0 0-1.324-.043.917.917 0 0 0-.042 1.311l1.45 1.587c.168.19.42.296.672.296a.904.904 0 0 0 .672-.296l2.774-3.004A.917.917 0 0 0 5.82.257c-.357-.36-.946-.338-1.303.042ZM19.094 8.077H8.92a.934.934 0 0 0-.927.925c0 .504.422.924.927.924h10.154c.506 0 .927-.42.927-.924s-.4-.925-.906-.925ZM4.516 6.867l-2.08 2.264-.777-.846a.928.928 0 0 0-1.324-.043.917.917 0 0 0-.042 1.311l1.45 1.587c.168.19.42.296.672.296a.904.904 0 0 0 .672-.296l2.774-3.004a.917.917 0 0 0-.042-1.311c-.357-.36-.946-.339-1.303.042ZM19.094 14.645H8.92a.934.934 0 0 0-.927.925c0 .504.422.924.927.924h10.154c.506 0 .927-.42.927-.924s-.4-.925-.906-.925ZM4.49 13.417 2.406 15.69l-.78-.849a.93.93 0 0 0-1.327-.042c-.38.36-.4.955-.042 1.316l1.454 1.593a.906.906 0 0 0 .674.297.906.906 0 0 0 .674-.297l2.802-2.994a.921.921 0 0 0-.042-1.317.949.949 0 0 0-1.327.021Z"/></g></svg>