<svg width="204" height="44" viewBox="0 0 204 44" fill="none" xmlns="http://www.w3.org/2000/svg">
<path d="M61.5195 31.5439C60.8514 31.989 60.1147 32.3214 59.3389 32.528C58.5377 32.7457 57.7109 32.8554 56.8806 32.8541C55.0665 32.833 53.6886 32.3472 52.7467 31.3967C51.8049 30.4461 51.334 29.0415 51.334 27.1827V18.0259H48.4396V15.0178H51.334V11.1803L55.8071 10.6901V15.0178H60.0937L59.6409 18.0259H55.7996V27.0839C55.7996 27.9375 55.9562 28.5494 56.2693 28.9197C56.5824 29.29 57.0794 29.4763 57.7603 29.4788C58.5325 29.4519 59.2866 29.2376 59.9577 28.8545L61.5195 31.5439ZM77.5909 24.9853H66.0094C66.1498 26.6676 66.6151 27.8704 67.4053 28.5935C68.1956 29.3167 69.2418 29.677 70.5439 29.6745C71.3267 29.6811 72.105 29.5551 72.8457 29.3018C73.6567 29.0055 74.43 28.6145 75.1493 28.1369L76.9963 30.53C75.0435 32.0515 72.6355 32.8715 70.16 32.8579C67.3457 32.8579 65.1775 32.0502 63.6554 30.4349C62.1333 28.8197 61.3717 26.6092 61.3704 23.8036C61.3431 22.1609 61.6764 20.5322 62.347 19.0324C62.9493 17.6787 63.9306 16.5284 65.1725 15.7204C66.4051 14.9228 67.87 14.5239 69.5673 14.5239C72.1493 14.5239 74.1491 15.2943 75.5668 16.835C76.9845 18.3757 77.694 20.5234 77.6952 23.2781C77.6952 23.4998 77.6598 24.0664 77.5909 24.9853ZM73.265 22.0666C73.265 19.0286 72.0673 17.5097 69.6717 17.5097C68.5795 17.5097 67.7253 17.8868 67.109 18.641C66.4927 19.3952 66.1262 20.6029 66.0094 22.2642H73.265V22.0666ZM94.0834 15.9199C95.0029 16.848 95.462 18.1427 95.4607 19.804V32.364H90.9877V20.46C90.9877 19.4325 90.7957 18.7112 90.4118 18.2962C90.0278 17.8812 89.4644 17.6737 88.7213 17.6737C87.9746 17.6667 87.2458 17.9028 86.6451 18.3465C85.9396 18.8893 85.3319 19.5486 84.8484 20.296V32.364H80.3753V15.0178H84.2483L84.6154 17.2804C86.1263 15.4427 87.9988 14.5245 90.2329 14.5258C91.8804 14.5258 93.1639 14.9905 94.0834 15.9199ZM113.249 29.2645C113.516 29.6185 113.887 29.8794 114.311 30.01L113.37 32.8057C112.325 32.7175 111.471 32.477 110.807 32.0844C110.119 31.6637 109.586 31.0314 109.288 30.2821C108.692 31.1305 107.879 31.8036 106.934 32.2316C105.94 32.6689 104.863 32.8869 103.777 32.8709C101.939 32.8709 100.485 32.3795 99.4157 31.3967C98.3459 30.4138 97.811 29.1241 97.811 27.5275C97.811 25.6475 98.5378 24.2099 99.9916 23.2147C101.445 22.2194 103.521 21.7224 106.218 21.7237H108.52V20.7396C108.52 19.6213 108.247 18.8398 107.7 18.395C107.153 17.9501 106.276 17.7259 105.068 17.7221C103.719 17.7221 102.091 18.0284 100.184 18.641L99.138 15.7708C101.281 14.9702 103.547 14.549 105.835 14.5258C110.556 14.5258 112.917 16.5138 112.917 20.4898V27.7735C112.917 28.4507 113.027 28.9477 113.249 29.2645ZM108.52 27.6747V24.1652H106.673C103.788 24.1652 102.346 25.171 102.347 27.1827C102.347 28.0139 102.568 28.6588 103.009 29.1173C103.45 29.5757 104.101 29.805 104.962 29.805C106.474 29.805 107.66 29.0949 108.52 27.6747ZM131.396 16.9356C132.606 18.5422 133.212 20.7881 133.212 23.6732C133.241 25.3075 132.938 26.9309 132.321 28.4444C131.799 29.7425 130.922 30.8676 129.791 31.6911C128.657 32.4789 127.301 32.8861 125.92 32.8541C124.975 32.8666 124.039 32.6652 123.183 32.2652C122.354 31.8683 121.621 31.296 121.035 30.5878L120.758 32.3584H116.812V8.06592L121.285 7.60743V16.9841C121.872 16.2132 122.631 15.5903 123.501 15.165C124.394 14.7353 125.373 14.5165 126.364 14.5258C128.507 14.5258 130.185 15.3291 131.396 16.9356ZM127.525 28.2487C128.2 27.2759 128.537 25.7507 128.537 23.6732C128.537 21.4888 128.223 19.9425 127.594 19.0342C127.306 18.5989 126.911 18.2451 126.447 18.0068C125.983 17.7685 125.465 17.6538 124.944 17.6737C123.525 17.6737 122.303 18.4608 121.28 20.0351V27.7064C121.648 28.3135 122.16 28.8204 122.771 29.1825C123.356 29.5302 124.026 29.7113 124.707 29.7062C125.262 29.7243 125.812 29.5999 126.304 29.3447C126.797 29.0895 127.216 28.7122 127.521 28.2487H127.525ZM137.261 31.6911C136.458 30.9158 136.056 29.8174 136.056 28.396V8.06592L140.529 7.60743V28.2636C140.529 29.0738 140.877 29.4788 141.574 29.4788C141.93 29.4772 142.283 29.4219 142.622 29.3148L143.554 32.2652C142.615 32.6597 141.606 32.86 140.588 32.8541C139.173 32.8541 138.064 32.4665 137.261 31.6911ZM160.007 24.9853H148.427C148.568 26.6676 149.032 27.8704 149.821 28.5935C150.61 29.3167 151.657 29.677 152.962 29.6745C153.745 29.681 154.523 29.5549 155.264 29.3018C156.074 29.0054 156.847 28.6145 157.565 28.1369L159.414 30.53C157.461 32.0512 155.053 32.8712 152.578 32.8579C149.764 32.8579 147.595 32.0502 146.072 30.4349C144.548 28.8197 143.787 26.6092 143.787 23.8036C143.76 22.161 144.093 20.5325 144.763 19.0324C145.366 17.6791 146.347 16.529 147.589 15.7204C148.822 14.9228 150.288 14.5239 151.985 14.5239C154.567 14.5239 156.567 15.2943 157.985 16.835C159.402 18.3757 160.111 20.5234 160.111 23.2781C160.111 23.4998 160.078 24.0664 160.007 24.9853ZM155.683 22.0666C155.683 19.0286 154.485 17.5097 152.09 17.5097C150.995 17.5097 150.14 17.8868 149.525 18.641C148.91 19.3952 148.544 20.6029 148.427 22.2642H155.683V22.0666ZM166.405 28.314C166.669 28.5506 166.879 28.84 167.023 29.1634C167.167 29.4867 167.242 29.8368 167.242 30.1908C167.242 30.5448 167.167 30.8949 167.023 31.2182C166.879 31.5416 166.669 31.831 166.405 32.0676C165.862 32.5862 165.136 32.869 164.385 32.8541C164.021 32.8608 163.659 32.7946 163.321 32.6596C162.982 32.5245 162.674 32.3232 162.415 32.0676C162.158 31.8279 161.952 31.5381 161.811 31.216C161.67 30.8939 161.597 30.5464 161.595 30.1948C161.593 29.8432 161.663 29.495 161.801 29.1715C161.939 28.8481 162.142 28.5562 162.396 28.314C162.66 28.0598 162.972 27.8606 163.313 27.7282C163.654 27.5957 164.019 27.5325 164.385 27.5424C165.133 27.5273 165.858 27.804 166.405 28.314ZM43.5024 26.8025C43.3813 26.3551 42.9433 24.7113 42.5221 23.1513L39.2176 10.8243C38.8001 9.26247 38.3603 7.62048 38.2391 7.17131C38.1278 6.81125 37.9302 6.48382 37.6635 6.21748C37.3968 5.95114 37.0692 5.75394 36.709 5.64302L33.0597 4.6664L20.729 1.3582L17.0722 0.377851C16.7062 0.294692 16.3254 0.302157 15.9629 0.399598C15.6005 0.497039 15.2672 0.681509 14.9923 0.936984L0.615096 15.316C0.383137 15.5663 0.209649 15.8651 0.107156 16.1906C0.00466222 16.5161 -0.0242809 16.8603 0.0224154 17.1984H0.00750516L0.106285 17.5973L4.33519 33.3834C4.75268 34.9416 5.19439 36.5873 5.31367 37.0346C5.425 37.3944 5.62237 37.7216 5.88867 37.9879C6.15498 38.2542 6.48219 38.4515 6.84197 38.5629L9.97497 39.4034L22.835 42.8477L25.8823 43.6622L26.4917 43.8262C26.858 43.9098 27.2392 43.9026 27.6021 43.8051C27.965 43.7077 28.2985 43.5229 28.5736 43.267L31.2481 40.5925L40.2725 31.5663C41.415 30.4256 42.6171 29.2235 42.9507 28.888C43.205 28.6112 43.388 28.2767 43.4842 27.9134C43.5803 27.55 43.5865 27.1688 43.5024 26.8025ZM1.59917 16.2926L15.9856 1.90242C16.1976 1.7503 16.4592 1.68374 16.7181 1.71604L36.3586 6.98493C36.4817 7.03333 36.5934 7.1069 36.6865 7.20093C36.7795 7.29496 36.8519 7.40739 36.8991 7.53102C37.0202 7.98205 37.4582 9.62404 37.8775 11.1803L41.7728 25.7047C41.9592 26.3906 42.1009 26.9348 42.1698 27.1827C42.1967 27.4425 42.1226 27.7028 41.9629 27.9095L27.5839 42.2979C27.3734 42.4532 27.1106 42.52 26.8515 42.4843L26.3408 42.3482L23.191 41.5095L7.19981 37.2228C7.07658 37.1774 6.96556 37.1041 6.87552 37.0085C6.77905 36.9166 6.70507 36.8037 6.65932 36.6786C6.56426 36.317 6.26233 35.1876 5.93245 33.9593L2.37636 20.6893C2.00361 19.3101 1.61781 17.8601 1.44448 17.2357H1.46684L1.37552 16.9822C1.36738 16.7333 1.44649 16.4894 1.59917 16.2926Z" fill="#00376B"/>
<path d="M190.349 31.449C189.009 30.4972 188.058 29.2282 187.564 27.6419C187.176 26.5492 187 25.1391 187 23.3414C187 21.6141 187.176 20.2041 187.564 19.1113C188.058 17.525 189.009 16.2913 190.349 15.3748C191.688 14.4583 193.31 14 195.143 14C197.011 14 198.633 14.4583 200.043 15.41C201.417 16.3265 202.369 17.525 202.792 18.9351C202.898 19.3228 203.004 19.7106 203.039 20.0983V20.1688C203.039 20.4156 202.898 20.5566 202.651 20.5918L199.408 21.0501H199.338C199.126 21.0501 198.985 20.9443 198.915 20.6976C198.915 20.5918 198.915 20.4861 198.879 20.4156C198.844 20.2393 198.774 20.0631 198.738 19.9221C198.527 19.2523 198.104 18.6883 197.434 18.2653C196.8 17.8423 196.024 17.6308 195.143 17.6308C194.226 17.6308 193.451 17.8776 192.816 18.3358C192.182 18.7941 191.759 19.4286 191.547 20.2393C191.301 21.0148 191.195 22.0724 191.195 23.4471C191.195 24.7514 191.301 25.8442 191.512 26.6549C191.759 27.5009 192.182 28.1707 192.816 28.6642C193.451 29.1577 194.226 29.4045 195.143 29.4045C196.059 29.4045 196.835 29.1577 197.505 28.6994C198.174 28.2412 198.597 27.6067 198.774 26.8312C198.809 26.7959 198.809 26.7254 198.809 26.6549C198.844 26.6197 198.844 26.5844 198.844 26.5492C198.915 26.2672 199.091 26.1262 199.338 26.1967L202.581 26.6902C202.686 26.7254 202.792 26.7607 202.898 26.8664C202.968 26.9369 203.004 27.0779 203.004 27.2189C202.933 27.6067 202.863 27.8887 202.827 28.0297C202.369 29.5455 201.453 30.7792 200.078 31.6605C198.703 32.5417 197.046 33 195.178 33C193.31 32.859 191.688 32.3655 190.349 31.449Z" fill="#00376B"/>
<path d="M173.56 32.1187C172.432 31.6605 171.551 31.0612 170.917 30.2857C170.282 29.5102 170 28.6289 170 27.6772V27.3599C170 27.2542 170.035 27.1484 170.141 27.0427C170.212 26.9722 170.317 26.9017 170.458 26.9017H173.631C173.737 26.9017 173.842 26.9369 173.948 27.0427C174.019 27.1132 174.089 27.2189 174.089 27.3599V27.4304C174.089 28.0297 174.406 28.5584 175.076 28.9814C175.746 29.4397 176.557 29.6512 177.579 29.6512C178.531 29.6512 179.306 29.4397 179.905 29.0519C180.505 28.6642 180.787 28.1707 180.787 27.5714C180.787 27.0074 180.54 26.6197 180.046 26.3377C179.553 26.0557 178.742 25.7737 177.649 25.4564L176.275 25.0334C175.041 24.6809 174.019 24.2931 173.173 23.8701C172.327 23.4471 171.622 22.9184 171.058 22.2134C170.494 21.5083 170.211 20.5918 170.211 19.4991C170.211 17.807 170.881 16.5028 172.186 15.4805C173.49 14.4935 175.252 14 177.403 14C178.848 14 180.152 14.2468 181.245 14.705C182.338 15.1633 183.184 15.833 183.783 16.6438C184.382 17.4545 184.664 18.4063 184.664 19.4638C184.664 19.5696 184.629 19.6753 184.523 19.7811C184.453 19.8516 184.347 19.9221 184.206 19.9221H181.139C181.033 19.9221 180.928 19.8868 180.822 19.7811C180.751 19.7106 180.681 19.6048 180.681 19.4638C180.681 18.8293 180.364 18.3358 179.764 17.9128C179.165 17.4898 178.319 17.2783 177.262 17.2783C176.345 17.2783 175.57 17.4545 174.97 17.807C174.371 18.1596 174.089 18.6531 174.089 19.2523C174.089 19.8163 174.371 20.2746 174.935 20.5566C175.499 20.8386 176.451 21.1911 177.755 21.5436L178.531 21.7551C179.8 22.1429 180.857 22.5306 181.738 22.9184C182.584 23.3061 183.325 23.8701 183.924 24.5751C184.523 25.2801 184.805 26.1967 184.805 27.3247C184.805 29.0167 184.135 30.3562 182.796 31.3432C181.456 32.3302 179.659 32.7885 177.438 32.7885C176.028 32.7885 174.688 32.577 173.56 32.1187Z" fill="#00376B"/>
</svg>
