<svg width="20" height="20" xmlns="http://www.w3.org/2000/svg">
  <g fill="#0082ED" fill-rule="nonzero" stroke="#0082ED" stroke-width=".2">
    <path d="M3.87861 13.623756l-1.491397 1.490793 2.497748 2.498267 1.491397-1.491366c.578546.343648 1.200598.600286 1.857378.767054V19h3.53291v-2.111496c.656016-.166768 1.277877-.423979 1.857377-.767054l1.491207 1.491366 2.497747-2.498267-1.491588-1.490793c.344037-.579679.600872-1.201908.76726-1.85772H19V8.233773h-2.11135c-.16658-.655811-.423415-1.27785-.76726-1.857338l1.491587-1.491175-2.497747-2.497694-1.491207 1.490984c-.579118-.343075-1.20117-.600096-1.857377-.767054V1h-3.53291v2.111115c-.656398.166958-1.27845.423787-1.857378.767053L4.884961 2.386802 2.387213 4.88507l1.490825 1.491175c-.342891.579107-.600108 1.200954-.766688 1.857338H1v3.532263h2.11135c.166771.656766.423797 1.279186.76726 1.85791zM2.009213 9.243155h1.922636l.078997-.408905c.15723-.811894.469019-1.568071.927543-2.24697l.232793-.344984L3.814307 4.88526 4.88477 3.814629l1.357828 1.357799.34499-.23336c.678342-.458515 1.434154-.77087 2.246638-.927906l.408913-.078995V2.009381h1.514104v1.922405l.408531.079376c.811911.157418 1.568296.469391 2.246637.927906l.344991.232978 1.357256-1.357036 1.070844 1.07044-1.357255 1.357418.232792.345175c.459097.67928.771077 1.435268.928116 2.246398l.079379.408905h1.922063v1.51388h-1.922254l-.079378.408905c-.15704.81094-.46902 1.566927-.928117 2.24678l-.232792.344984 1.357256 1.357036-1.070464 1.07044-1.357637-1.357417-.344418.233169c-.679868.458514-1.43549.770679-2.24721.928096l-.40853.078805v1.922595H9.242947v-1.922786l-.408913-.078804c-.812675-.157418-1.568486-.469582-2.246446-.927716l-.344991-.23355-1.357637 1.357608-1.070654-1.070631 1.358019-1.357036-.233556-.345174c-.458334-.678518-.770886-1.434314-.927925-2.24659l-.079188-.408904H2.009403l-.000191-1.513881h0z"/>
    <path d="M10.01065 13.6c1.737258 0 3.150889-1.41304 3.150889-3.149734 0-1.73705-1.41363-3.150266-3.150888-3.150266-1.736548 0-3.149113 1.41304-3.149113 3.150266 0 1.736695 1.412565 3.149734 3.149113 3.149734zm0-5.360814c1.219419 0 2.211782.991737 2.211782 2.21108 0 1.219166-.99254 2.210726-2.211781 2.210726-1.218708 0-2.210006-.991915-2.210006-2.210726 0-1.219166.991298-2.21108 2.210006-2.21108z"/>
  </g>
</svg>
