<svg width="18" height="19" xmlns="http://www.w3.org/2000/svg">
  <path d="M11.804657 18c1.573092 0 2.835705-1.263224 2.897801-2.890428l.331177-10.576826h1.552394c.227684 0 .413971-.192696.413971-.428212 0-.235516-.186287-.428212-.413971-.428212h-4.346702v-.963476C12.239327 1.770781 11.49418 1 10.583441 1H7.437257c-.910737 0-1.655886.77078-1.655886 1.712846v.963476h-4.3674C1.186288 3.676322 1 3.869018 1 4.104534c0 .235516.186287.428212.413972.428212h1.552393l.331177 10.576826C3.359638 16.736776 4.622251 18 6.195342 18h5.609315zM6.609314 2.712846c0-.471032.372575-.856423.827943-.856423h3.146184c.455369 0 .827943.38539.827943.856423v.963476h-4.80207v-.963476zm-2.46313 12.353905L3.815006 4.511335h10.411385l-.351876 10.555416c-.041397 1.15617-.952135 2.076826-2.069858 2.076826H6.216041c-1.117723 0-2.02846-.899245-2.069857-2.076826zm4.981356-.471848c.227684 0 .413971-.192695.413971-.428212V7.764928c0-.235516-.186287-.428211-.413971-.428211-.227685 0-.413972.192695-.413972.428211v6.401763c0 .235517.186287.428212.413972.428212zm-2.23783 0c.227685 0 .413972-.192695.413972-.428212V7.764928c0-.235516-.186287-.428211-.413972-.428211-.227684 0-.413971.192695-.413971.428211v6.401763c0 .235517.186287.428212.413971.428212zm4.475659 0c.227684 0 .413972-.192695.413972-.428212V7.764928c0-.235516-.186288-.428211-.413972-.428211s-.413971.192695-.413971.428211v6.401763c0 .235517.186287.428212.413971.428212z" stroke="#90A9C0" stroke-width=".3" fill="#90A9C0" fill-rule="nonzero"/>
</svg>
