<svg width="68" height="86" xmlns="http://www.w3.org/2000/svg"><path d="M59 82a2 2 0 1 1 0 4 2 2 0 0 1 0-4Zm0-27.998c2.66 0 4.991.843 6.574 2.425C67.157 58.01 68 60.341 68 63.001c0 1.469-.62 2.932-1.59 4.023-.188.21-.385.411-.594.607l-.322.288-.288.243-.284.224-.21.156-.244.174-1.493 1.033-.365.261-.316.235-.27.21-.118.099-.109.093-.189.174-.08.082-.139.146-.127.145a1.096 1.096 0 0 0-.257.552l-.012.139.007.159v3.957l-.004.168a2 2 0 0 1-3.991.011L57 76.015V72l.008-.263c.076-1.315.717-2.63 1.652-3.609l.254-.255.354-.33.326-.283.244-.196.184-.139.335-.24 1.272-.878c.738-.515 1.303-.965 1.662-1.334l.112-.12.183-.207.117-.14.041-.057.035-.052.06-.111.03-.067c.11-.242.131-.417.131-.719 0-1.718-.429-2.937-1.262-3.77-.826-.825-2.01-1.23-3.738-1.23-1.612 0-2.7.509-3.614 1.613-.82.992-1.32 2.437-1.38 4.06l-.006.327a2 2 0 1 1-4 .014c0-2.698.793-5.146 2.302-6.97 1.572-1.9 4.036-3.043 6.698-3.043ZM18.804-.002l.17.006H56l.15.006a2 2 0 0 1 1.844 1.837l.006.157v45.998l-.004.168a2 2 0 0 1-3.991.011L54 48.016V5.004l-.007-.117a1 1 0 0 0-.876-.876L53 4.004H22l-.117.007a1 1 0 0 0-.876.876L21 5.004v14l-.006.148a2 2 0 0 1-1.837 1.845l-.157.006H5l-.117.007a1 1 0 0 0-.876.876L4 22.003v44.998l.007.117a1 1 0 0 0 .876.876l.117.007h39l.169.004a2 2 0 0 1 .011 3.991l-.166.005H2l-.15-.006a2 2 0 0 1-1.844-1.838L0 70.001V19.003l.007-.177c.035-.41.195-.797.458-1.112l.118-.13 17-16.998.127-.118c.264-.226.579-.378.92-.444l.174-.026Zm-.837 6.318L6.007 17.995h11.96V6.315Z" fill="#C6D3DF" fill-rule="nonzero"/></svg>