<svg width="21" height="22" xmlns="http://www.w3.org/2000/svg"><path d="M13.617 1.194c.298.265.353.68.074 1l-.727.83-.127.137-.057.05-.05.035-.047.026-.01.011c1.16.839 1.817 2.449 1.581 3.903.536.406 1.018.9 1.387 1.453l.151.24 1.322-.557V5.608c.006-.898 1.3-.935 1.418-.117l.01.117v3.147a.717.717 0 0 1-.332.605l-.093.05-1.614.666c.267.598.458 1.226.545 1.852l.034.313h2.317c.43.002.702.317.701.717-.001.366-.232.662-.598.71l-.103.006-2.177-.049c-.012.815-.14 1.625-.402 2.351l-.107.272-.011.034 1.938.585c.268.08.46.31.5.582l.008.104v2.832c-.013.903-1.3.936-1.419.116l-.009-.117.036-2.287-1.59-.52c-1.22 2.194-3.326 3.524-5.615 3.524-2.206 0-4.242-1.236-5.428-3.271l-.128-.23-1.612.45v2.334c-.004.431-.316.705-.714.704-.364-.002-.658-.233-.707-.6l-.007-.104v-2.83c0-.282.163-.534.411-.65l.097-.037 1.808-.494.097-.03-.107-.323a7.218 7.218 0 0 1-.334-2.013l.004-.333H1.703c-.9-.014-.933-1.3-.116-1.423l.117-.01 2.268.043c.093-.662.26-1.3.517-1.865l.136-.277-1.64-.732a.716.716 0 0 1-.416-.55l-.007-.105V5.608c.013-.902 1.297-.938 1.418-.117l.01.117-.03 2.668 1.289.622c.445-.668.986-1.246 1.58-1.665-.2-1.398.354-2.886 1.363-3.709l.229-.174-1.009-1.156-.06-.078c-.477-.698.537-1.542 1.134-.867l1.038 1.193.085.107.085.126c.561-.145 1.148-.145 1.664.016l1.256-1.438.084-.084c.278-.24.647-.217.919.025Zm-7.452 8.925c-2.292 3.752.156 9.566 4.387 9.549 4.161.018 6.596-5.608 4.495-9.363l-.11-.19c-1.885-3.649-6.89-3.652-8.772.004Zm3.6-5.973c-.737.297-1.284.996-1.517 1.814a2.898 2.898 0 0 0-.057.32l-.011.107.244-.1a5.969 5.969 0 0 1 4.255 0l.193.08-.006-.082c-.163-1.596-1.703-2.734-3.1-2.139Z" fill="#264D6D" fill-rule="nonzero" stroke="#264D6D" stroke-width=".1"/></svg>