<svg class="kb" width="12.41" height="19" xmlns="http://www.w3.org/2000/svg"><path d="M8.58 12.667V9.896l.479-.36a4.418 4.418 0 0 0-2.651-7.953h-.406A4.418 4.418 0 0 0 1.81 4.605 4.41 4.41 0 0 0 3.353 9.53l.477.357v2.779h4.75Zm1.583 0c0 .874-.709 1.583-1.583 1.583H3.83a1.583 1.583 0 0 1-1.584-1.583v-1.99A5.993 5.993 0 0 1 .308 4.104 6.002 6.002 0 0 1 6.002 0h.406a6.002 6.002 0 0 1 3.755 10.684v1.983ZM3.83 16.625a.792.792 0 1 1 0-1.583h4.75a.792.792 0 1 1 0 1.583H3.83ZM4.62 19a.792.792 0 1 1 0-1.583h3.167a.792.792 0 1 1 0 1.583H4.621Z" fill="#264D6D" fill-rule="evenodd"/></svg>