<svg width="16" height="19" xmlns="http://www.w3.org/2000/svg"><g fill="#264D6D" fill-rule="nonzero"><path d="M12.9140625 6.9765625H5.04550195V3.92505859c0-1.34580859 1.13202149-2.44068359 2.5234375-2.44068359 1.39141602 0 2.52343755 1.094875 2.52343755 2.44068359V5.34375h1.484375V3.92505859C11.576752 1.76076562 9.77883984 0 7.56893945 0c-2.20990039 0-4.0078125 1.76076563-4.0078125 3.92505859V6.9765625H2.2265625C.99883594 6.9765625 0 7.97539844 0 9.203125v7.5703125C0 18.0011641.99883594 19 2.2265625 19h10.6875c1.2277266 0 2.2265625-.9988359 2.2265625-2.2265625V9.203125c0-1.22772656-.9988359-2.2265625-2.2265625-2.2265625zm.7421875 9.796875c0 .4092422-.3329453.7421875-.7421875.7421875h-10.6875c-.40924219 0-.7421875-.3329453-.7421875-.7421875V9.203125c0-.40924219.33294531-.7421875.7421875-.7421875h10.6875c.4092422 0 .7421875.33294531.7421875.7421875v7.5703125z"/><path d="M7.5703125 10.6132813c-.75833008 0-1.37304687.6147167-1.37304687 1.3730468 0 .4842032.25085937.9095508.62948632 1.1540274v1.6291758c0 .409873.33227735.7421875.7421875.7421875.40987305 0 .7421875-.3323145.7421875-.7421875v-1.6274317c.38014844-.2441797.63223243-.6703808.63223243-1.1557715 0-.7583301-.6147168-1.3730468-1.37304688-1.3730468z"/></g></svg>