<?xml version="1.0" encoding="iso-8859-1"?>
<!-- Generator: Adobe Illustrator 17.0.0, SVG Export Plug-In . SVG Version: 6.00 Build 0)  -->
<!DOCTYPE svg PUBLIC "-//W3C//DTD SVG 1.1//EN" "http://www.w3.org/Graphics/SVG/1.1/DTD/svg11.dtd">
<svg version="1.1" id="Layer_3" xmlns="http://www.w3.org/2000/svg" xmlns:xlink="http://www.w3.org/1999/xlink" x="0px" y="0px"
	 width="240.047px" height="330px" viewBox="0 0 240.047 330" style="enable-background:new 0 0 240.047 330;" xml:space="preserve"
	>
<g id="Faraday">
	<g id="Piel">
		<rect x="150.03" y="75" style="fill:#F9EBE2;" width="15" height="15"/>
		<rect x="165.034" y="75" style="fill:#F9EBE2;" width="15" height="15"/>
		<rect x="120.024" y="90" style="fill:#F9EBE2;" width="15" height="15"/>
		<rect x="135.027" y="90" style="fill:#F9EBE2;" width="15" height="15"/>
		<rect x="150.03" y="90" style="fill:#F9EBE2;" width="15" height="15"/>
		<rect x="165.034" y="90" style="fill:#F9EBE2;" width="15" height="15"/>
		<rect x="180.037" y="90" style="fill:#F9EBE2;" width="15" height="15"/>
		<rect x="60.01" y="105" style="fill:#F9EBE2;" width="15" height="15"/>
		<rect x="75.014" y="105" style="fill:#F9EBE2;" width="15" height="15"/>
		<rect x="90.017" y="105" style="fill:#F9EBE2;" width="15" height="15"/>
		<rect x="105.02" y="105" style="fill:#F9EBE2;" width="15" height="15"/>
		<rect x="120.024" y="105" style="fill:#F9EBE2;" width="15" height="15"/>
		<rect x="135.027" y="105" style="fill:#F9EBE2;" width="15" height="15"/>
		<rect x="150.03" y="105" style="fill:#F9EBE2;" width="15" height="15"/>
		<rect x="165.034" y="105" style="fill:#F9EBE2;" width="15" height="15"/>
		<rect x="180.037" y="105" style="fill:#F9EBE2;" width="15" height="15"/>
		<rect x="195.041" y="105" style="fill:#F9EBE2;" width="15" height="15"/>
		<rect x="45.007" y="120" style="fill:#F9EBE2;" width="15" height="15"/>
		<rect x="60.01" y="120" style="fill:#F9EBE2;" width="15" height="15"/>
		<rect x="105.02" y="120" style="fill:#F9EBE2;" width="15" height="15"/>
		<rect x="120.024" y="120" style="fill:#F9EBE2;" width="15" height="15"/>
		<rect x="135.027" y="120" style="fill:#F9EBE2;" width="15" height="15"/>
		<rect x="180.037" y="120" style="fill:#F9EBE2;" width="15" height="15"/>
		<rect x="195.041" y="120" style="fill:#F9EBE2;" width="15" height="15"/>
		<rect x="45.007" y="135" style="fill:#F9EBE2;" width="15" height="15"/>
		<rect x="75.014" y="135" style="fill:#F9EBE2;" width="15" height="15"/>
		<rect x="90.017" y="135" style="fill:#F9EBE2;" width="15" height="15"/>
		<rect x="105.02" y="135" style="fill:#F9EBE2;" width="15" height="15"/>
		<rect x="120.024" y="135" style="fill:#F9EBE2;" width="15" height="15"/>
		<rect x="135.027" y="135" style="fill:#F9EBE2;" width="15" height="15"/>
		<rect x="150.03" y="135" style="fill:#F9EBE2;" width="15" height="15"/>
		<rect x="165.034" y="135" style="fill:#F9EBE2;" width="15" height="15"/>
		<rect x="195.041" y="135" style="fill:#F9EBE2;" width="15" height="15"/>
		<rect x="15" y="150" style="fill:#F9EBE2;" width="15" height="15"/>
		<rect x="45.007" y="150" style="fill:#F9EBE2;" width="15" height="15"/>
		<rect x="60.01" y="150" style="fill:#F9EBE2;" width="15" height="15"/>
		<rect x="75.014" y="150" style="fill:#F9EBE2;" width="15" height="15"/>
		<rect x="105.02" y="150" style="fill:#F9EBE2;" width="15" height="15"/>
		<rect x="120.024" y="150" style="fill:#F9EBE2;" width="15" height="15"/>
		<rect x="135.027" y="150" style="fill:#F9EBE2;" width="15" height="15"/>
		<rect x="165.034" y="150" style="fill:#F9EBE2;" width="15" height="15"/>
		<rect x="180.037" y="150" style="fill:#F9EBE2;" width="15" height="15"/>
		<rect x="195.041" y="150" style="fill:#F9EBE2;" width="15" height="15"/>
		<rect x="225.047" y="150" style="fill:#F9EBE2;" width="15" height="15"/>
		<rect x="15" y="165" style="fill:#F9EBE2;" width="15" height="15"/>
		<rect x="30.003" y="165" style="fill:#F9EBE2;" width="15" height="15"/>
		<rect x="45.007" y="165" style="fill:#F9EBE2;" width="15" height="15"/>
		<rect x="60.01" y="165" style="fill:#F9EBE2;" width="15" height="15"/>
		<rect x="75.014" y="165" style="fill:#F9EBE2;" width="15" height="15"/>
		<rect x="90.017" y="165" style="fill:#F9EBE2;" width="15" height="15"/>
		<rect x="105.02" y="165" style="fill:#F9EBE2;" width="15" height="15"/>
		<rect x="120.024" y="165" style="fill:#F9EBE2;" width="15" height="15"/>
		<rect x="135.027" y="165" style="fill:#F9EBE2;" width="15" height="15"/>
		<rect x="150.03" y="165" style="fill:#F9EBE2;" width="15" height="15"/>
		<rect x="165.034" y="165" style="fill:#F9EBE2;" width="15" height="15"/>
		<rect x="180.037" y="165" style="fill:#F9EBE2;" width="15" height="15"/>
		<rect x="195.041" y="165" style="fill:#F9EBE2;" width="15" height="15"/>
		<rect x="210.044" y="165" style="fill:#F9EBE2;" width="15" height="15"/>
		<rect x="225.047" y="165" style="fill:#F9EBE2;" width="15" height="15"/>
		<rect x="30.003" y="180" style="fill:#F9EBE2;" width="15" height="15"/>
		<rect x="45.007" y="180" style="fill:#F9EBE2;" width="15" height="15"/>
		<rect x="60.01" y="180" style="fill:#F9EBE2;" width="15" height="15"/>
		<rect x="75.014" y="180" style="fill:#F9EBE2;" width="15" height="15"/>
		<rect x="90.017" y="180" style="fill:#F9EBE2;" width="15" height="15"/>
		<rect x="105.02" y="180" style="fill:#F9EBE2;" width="15" height="15"/>
		<rect x="120.024" y="180" style="fill:#F9EBE2;" width="15" height="15"/>
		<rect x="135.027" y="180" style="fill:#F9EBE2;" width="15" height="15"/>
		<rect x="150.03" y="180" style="fill:#F9EBE2;" width="15" height="15"/>
		<rect x="165.034" y="180" style="fill:#F9EBE2;" width="15" height="15"/>
		<rect x="180.037" y="180" style="fill:#F9EBE2;" width="15" height="15"/>
		<rect x="195.041" y="180" style="fill:#F9EBE2;" width="15" height="15"/>
		<rect x="210.044" y="180" style="fill:#F9EBE2;" width="15" height="15"/>
		<rect x="45.007" y="195" style="fill:#F9EBE2;" width="15" height="15"/>
		<rect x="60.01" y="195" style="fill:#F9EBE2;" width="15" height="15"/>
		<rect x="75.014" y="195" style="fill:#F9EBE2;" width="15" height="15"/>
		<rect x="90.017" y="195" style="fill:#F9EBE2;" width="15" height="15"/>
		<rect x="105.02" y="195" style="fill:#F9EBE2;" width="15" height="15"/>
		<rect x="120.024" y="195" style="fill:#F9EBE2;" width="15" height="15"/>
		<rect x="135.027" y="195" style="fill:#F9EBE2;" width="15" height="15"/>
		<rect x="150.03" y="195" style="fill:#F9EBE2;" width="15" height="15"/>
		<rect x="165.034" y="195" style="fill:#F9EBE2;" width="15" height="15"/>
		<rect x="180.037" y="195" style="fill:#F9EBE2;" width="15" height="15"/>
		<rect x="195.041" y="195" style="fill:#F9EBE2;" width="15" height="15"/>
		<rect x="45.007" y="210" style="fill:#F9EBE2;" width="15" height="15"/>
		<rect x="60.01" y="210" style="fill:#F9EBE2;" width="15" height="15"/>
		<rect x="75.014" y="210" style="fill:#F9EBE2;" width="15" height="15"/>
		<rect x="90.017" y="210" style="fill:#F9EBE2;" width="15" height="15"/>
		<rect x="105.02" y="210" style="fill:#F9EBE2;" width="15" height="15"/>
		<rect x="120.024" y="210" style="fill:#F9EBE2;" width="15" height="15"/>
		<rect x="135.027" y="210" style="fill:#F9EBE2;" width="15" height="15"/>
		<rect x="150.03" y="210" style="fill:#F9EBE2;" width="15" height="15"/>
		<rect x="165.034" y="210" style="fill:#F9EBE2;" width="15" height="15"/>
		<rect x="180.037" y="210" style="fill:#F9EBE2;" width="15" height="15"/>
		<rect x="195.041" y="210" style="fill:#F9EBE2;" width="15" height="15"/>
		<rect x="45.007" y="225" style="fill:#F9EBE2;" width="15" height="15"/>
		<rect x="60.01" y="225" style="fill:#F9EBE2;" width="15" height="15"/>
		<rect x="75.014" y="225" style="fill:#F9EBE2;" width="15" height="15"/>
		<rect x="90.017" y="225" style="fill:#F9EBE2;" width="15" height="15"/>
		<rect x="150.03" y="225" style="fill:#F9EBE2;" width="15" height="15"/>
		<rect x="165.034" y="225" style="fill:#F9EBE2;" width="15" height="15"/>
		<rect x="180.037" y="225" style="fill:#F9EBE2;" width="15" height="15"/>
		<rect x="195.041" y="225" style="fill:#F9EBE2;" width="15" height="15"/>
		<rect x="60.01" y="240" style="fill:#F9EBE2;" width="15" height="15"/>
		<rect x="75.014" y="240" style="fill:#F9EBE2;" width="15" height="15"/>
		<rect x="105.02" y="240" style="fill:#F9EBE2;" width="15" height="15"/>
		<rect x="120.024" y="240" style="fill:#F9EBE2;" width="15" height="15"/>
		<rect x="135.027" y="240" style="fill:#F9EBE2;" width="15" height="15"/>
		<rect x="165.034" y="240" style="fill:#F9EBE2;" width="15" height="15"/>
		<rect x="180.037" y="240" style="fill:#F9EBE2;" width="15" height="15"/>
		<rect x="75.014" y="255" style="fill:#F9EBE2;" width="15" height="15"/>
		<rect x="105.02" y="255" style="fill:#F9EBE2;" width="15" height="15"/>
		<rect x="120.024" y="255" style="fill:#F9EBE2;" width="15" height="15"/>
		<rect x="135.027" y="255" style="fill:#F9EBE2;" width="15" height="15"/>
		<rect x="165.034" y="255" style="fill:#F9EBE2;" width="15" height="15"/>
		<rect x="105.02" y="270" style="fill:#F9EBE2;" width="15" height="15"/>
		<rect x="135.027" y="270" style="fill:#F9EBE2;" width="15" height="15"/>
	</g>
	<g id="Ceja_izq">
		<rect x="75.014" y="120" width="15" height="15"/>
		<rect x="90.017" y="120" width="15" height="15"/>
		<rect x="60.01" y="135" width="15" height="15"/>
	</g>
	<g id="Ceja_der">
		<rect x="150.03" y="120" width="15" height="15"/>
		<rect x="165.034" y="120" width="15" height="15"/>
		<rect x="180.037" y="135" width="15" height="15"/>
	</g>
	<rect id="Ojo_izq" x="90.017" y="150" width="15" height="15"/>
	<rect id="Ojo_der" x="150.03" y="150" width="15" height="15"/>
	<g id="Pelo">
		<rect x="75.014" y="0" width="15" height="15"/>
		<rect x="90.017" y="0" width="15" height="15"/>
		<rect x="105.02" y="0" width="15" height="15"/>
		<rect x="120.024" y="0" width="15" height="15"/>
		<rect x="135.027" y="0" width="15" height="15"/>
		<rect x="150.03" y="0" width="15" height="15"/>
		<rect x="165.034" y="0" width="15" height="15"/>
		<rect x="60.01" y="15" width="15" height="15"/>
		<rect x="75.014" y="15" width="15" height="15"/>
		<rect x="90.017" y="15" width="15" height="15"/>
		<rect x="105.02" y="15" width="15" height="15"/>
		<rect x="120.024" y="15" width="15" height="15"/>
		<rect x="135.027" y="15" width="15" height="15"/>
		<rect x="150.03" y="15" width="15" height="15"/>
		<rect x="165.034" y="15" width="15" height="15"/>
		<rect x="180.037" y="15" width="15" height="15"/>
		<rect x="195.041" y="15" width="15" height="15"/>
		<rect x="45.007" y="30" width="15" height="15"/>
		<rect x="60.01" y="30" width="15" height="15"/>
		<rect x="75.014" y="30" width="15" height="15"/>
		<rect x="90.017" y="30" width="15" height="15"/>
		<rect x="105.02" y="30" width="15" height="15"/>
		<rect x="120.024" y="30" width="15" height="15"/>
		<rect x="135.027" y="30" width="15" height="15"/>
		<rect x="150.03" y="30" width="15" height="15"/>
		<rect x="165.034" y="30" width="15" height="15"/>
		<rect x="180.037" y="30" width="15" height="15"/>
		<rect x="195.041" y="30" width="15" height="15"/>
		<rect x="210.044" y="30" width="15" height="15"/>
		<rect x="30.003" y="45" width="15" height="15"/>
		<rect x="45.007" y="45" width="15" height="15"/>
		<rect x="60.01" y="45" width="15" height="15"/>
		<rect x="75.014" y="45" width="15" height="15"/>
		<rect x="90.017" y="45" width="15" height="15"/>
		<rect x="105.02" y="45" width="15" height="15"/>
		<rect x="120.024" y="45" width="15" height="15"/>
		<rect x="135.027" y="45" width="15" height="15"/>
		<rect x="150.03" y="45" width="15" height="15"/>
		<rect x="165.034" y="45" width="15" height="15"/>
		<rect x="195.041" y="45" width="15" height="15"/>
		<rect x="210.044" y="45" width="15" height="15"/>
		<rect x="15" y="60" width="15" height="15"/>
		<rect x="30.003" y="60" width="15" height="15"/>
		<rect x="45.007" y="60" width="15" height="15"/>
		<rect x="60.01" y="60" width="15" height="15"/>
		<rect x="75.014" y="60" width="15" height="15"/>
		<rect x="90.017" y="60" width="15" height="15"/>
		<rect x="105.02" y="60" width="15" height="15"/>
		<rect x="120.024" y="60" width="15" height="15"/>
		<rect x="135.027" y="60" width="15" height="15"/>
		<rect x="150.03" y="60" width="15" height="15"/>
		<rect x="165.034" y="60" width="15" height="15"/>
		<rect x="180.037" y="60" width="15" height="15"/>
		<rect x="195.041" y="60" width="15" height="15"/>
		<rect x="210.044" y="60" width="15" height="15"/>
		<rect x="225.047" y="60" width="15" height="15"/>
		<rect x="15" y="75" width="15" height="15"/>
		<rect x="30.003" y="75" width="15" height="15"/>
		<rect x="45.007" y="75" width="15" height="15"/>
		<rect x="60.01" y="75" width="15" height="15"/>
		<rect x="75.014" y="75" width="15" height="15"/>
		<rect x="90.017" y="75" width="15" height="15"/>
		<rect x="105.02" y="75" width="15" height="15"/>
		<rect x="120.024" y="75" width="15" height="15"/>
		<rect x="135.027" y="75" width="15" height="15"/>
		<rect x="180.037" y="75" width="15" height="15"/>
		<rect x="195.041" y="75" width="15" height="15"/>
		<rect x="180.037" y="45" width="15" height="15"/>
		<rect x="210.044" y="75" width="15" height="15"/>
		<rect x="225.047" y="75" width="15" height="15"/>
		<rect x="15" y="90" width="15" height="15"/>
		<rect x="30.003" y="90" width="15" height="15"/>
		<rect x="45.007" y="90" width="15" height="15"/>
		<rect x="60.01" y="90" width="15" height="15"/>
		<rect x="75.014" y="90" width="15" height="15"/>
		<rect x="90.017" y="90" width="15" height="15"/>
		<rect x="105.02" y="90" width="15" height="15"/>
		<rect x="195.041" y="90" width="15" height="15"/>
		<rect x="210.044" y="90" width="15" height="15"/>
		<rect x="225.047" y="90" width="15" height="15"/>
		<rect x="15" y="105" width="15" height="15"/>
		<rect x="0" y="105" width="15" height="15"/>
		<rect x="30.003" y="105" width="15" height="15"/>
		<rect x="45.007" y="105" width="15" height="15"/>
		<rect x="210.044" y="105" width="15" height="15"/>
		<rect x="225.047" y="105" width="15" height="15"/>
		<rect x="15" y="120" width="15" height="15"/>
		<rect x="30.003" y="120" width="15" height="15"/>
		<rect x="210.044" y="120" width="15" height="15"/>
		<rect x="225.047" y="120" width="15" height="15"/>
		<rect x="15" y="135" width="15" height="15"/>
		<rect x="30.003" y="135" width="15" height="15"/>
		<rect x="210.044" y="135" width="15" height="15"/>
		<rect x="225.047" y="135" width="15" height="15"/>
		<rect x="30.003" y="150" width="15" height="15"/>
		<rect x="210.044" y="150" width="15" height="15"/>
	</g>
	<g id="Barba">
		<rect x="15" y="180" width="15" height="15"/>
		<rect x="225.047" y="180" width="15" height="15"/>
		<rect x="15" y="195" width="15" height="15"/>
		<rect x="30.003" y="195" width="15" height="15"/>
		<rect x="210.044" y="195" width="15" height="15"/>
		<rect x="225.047" y="195" width="15" height="15"/>
		<rect x="30.003" y="210" width="15" height="15"/>
		<rect x="210.044" y="210" width="15" height="15"/>
		<rect x="30.003" y="225" width="15" height="15"/>
		<rect x="105.02" y="225" width="15" height="15"/>
		<rect x="120.024" y="225" width="15" height="15"/>
		<rect x="135.027" y="225" width="15" height="15"/>
		<rect x="210.044" y="225" width="15" height="15"/>
		<rect x="30.003" y="240" width="15" height="15"/>
		<rect x="45.007" y="240" width="15" height="15"/>
		<rect x="90.017" y="240" width="15" height="15"/>
		<rect x="150.03" y="240" width="15" height="15"/>
		<rect x="195.041" y="240" width="15" height="15"/>
		<rect x="210.044" y="240" width="15" height="15"/>
		<rect x="15" y="255" width="15" height="15"/>
		<rect x="45.007" y="255" width="15" height="15"/>
		<rect x="60.01" y="255" width="15" height="15"/>
		<rect x="90.017" y="255" width="15" height="15"/>
		<rect x="150.03" y="255" width="15" height="15"/>
		<rect x="180.037" y="255" width="15" height="15"/>
		<rect x="195.041" y="255" width="15" height="15"/>
		<rect x="225.047" y="255" width="15" height="15"/>
		<rect x="45.007" y="270" width="15" height="15"/>
		<rect x="60.01" y="270" width="15" height="15"/>
		<rect x="75.014" y="270" width="15" height="15"/>
		<rect x="90.017" y="270" width="15" height="15"/>
		<rect x="120.024" y="270" width="15" height="15"/>
		<rect x="150.03" y="270" width="15" height="15"/>
		<rect x="165.034" y="270" width="15" height="15"/>
		<rect x="180.037" y="270" width="15" height="15"/>
		<rect x="195.041" y="270" width="15" height="15"/>
		<rect x="30.003" y="285" width="15" height="15"/>
		<rect x="45.007" y="285" width="15" height="15"/>
		<rect x="75.014" y="285" width="15" height="15"/>
		<rect x="90.017" y="285" width="15" height="15"/>
		<rect x="105.02" y="285" width="15" height="15"/>
		<rect x="120.024" y="285" width="15" height="15"/>
		<rect x="135.027" y="285" width="15" height="15"/>
		<rect x="150.03" y="285" width="15" height="15"/>
		<rect x="165.034" y="285" width="15" height="15"/>
		<rect x="195.041" y="285" width="15" height="15"/>
		<rect x="210.044" y="285" width="15" height="15"/>
		<rect x="90.017" y="300" width="15" height="15"/>
		<rect x="105.02" y="300" width="15" height="15"/>
		<rect x="120.024" y="300" width="15" height="15"/>
		<rect x="135.027" y="300" width="15" height="15"/>
		<rect x="150.03" y="300" width="15" height="15"/>
		<rect x="105.02" y="315" width="15" height="15"/>
		<rect x="120.024" y="315" width="15" height="15"/>
		<rect x="135.027" y="315" width="15" height="15"/>
	</g>
</g>
</svg>
