<?xml version="1.0" encoding="iso-8859-1"?>
<!-- Generator: Adobe Illustrator 17.0.0, SVG Export Plug-In . SVG Version: 6.00 Build 0)  -->
<!DOCTYPE svg PUBLIC "-//W3C//DTD SVG 1.1//EN" "http://www.w3.org/Graphics/SVG/1.1/DTD/svg11.dtd">
<svg version="1.1" id="Layer_1" xmlns="http://www.w3.org/2000/svg" xmlns:xlink="http://www.w3.org/1999/xlink" x="0px" y="0px"
	 width="32px" height="32px" viewBox="0 0 32 32" style="enable-background:new 0 0 32 32;" xml:space="preserve">
<g id="xdEhD1.tif_9_">
	<g id="xIXYAg_6_">
		<g>
			<path style="fill:#FFFFFF;" d="M31.989,29.6c-1.376-0.59-2.654-1.138-3.932-1.686c-0.536-0.23-1.062-0.611-1.61-0.645
				c-0.538-0.033-1.094,0.302-1.65,0.448c-4.203,1.098-8.183,0.686-11.798-1.864c-1.645-1.161-2.821-2.709-3.243-4.721
				c-0.545-2.6,0.325-4.781,2.147-6.611c1.731-1.739,3.882-2.698,6.27-3.121c3.21-0.568,6.298-0.185,9.183,1.393
				c1.84,1.006,3.321,2.39,4.113,4.377c1.026,2.574,0.526,4.929-1.177,7.052c-0.248,0.309-0.256,0.534-0.118,0.868
				C30.777,26.553,31.358,28.026,31.989,29.6z"/>
			<path style="fill:#FFFFFF;" d="M26.982,10.704c-1.219-0.322-2.303-0.705-3.42-0.886c-4.469-0.724-8.604,0.071-12.15,3.02
				c-2.238,1.861-3.504,4.258-3.397,7.24c0.027,0.765,0.223,1.524,0.348,2.328c-0.347-0.125-0.74-0.244-1.112-0.411
				c-0.253-0.113-0.457-0.114-0.715-0.001c-2.021,0.881-4.05,1.744-6.077,2.612c-0.123,0.053-0.25,0.097-0.442,0.171
				c0.147-0.379,0.267-0.694,0.392-1.008c0.629-1.577,1.254-3.156,1.896-4.727c0.096-0.235,0.063-0.377-0.098-0.567
				c-1.64-1.94-2.467-4.149-2.134-6.713c0.296-2.283,1.436-4.119,3.114-5.639c2.184-1.978,4.798-3.055,7.676-3.5
				c3.027-0.468,6.001-0.209,8.868,0.909c2.619,1.022,4.829,2.586,6.276,5.06C26.391,9.248,26.651,9.977,26.982,10.704z"/>
		</g>
	</g>
</g>
</svg>
