<?xml version="1.0" encoding="iso-8859-1"?>
<!-- Generator: Adobe Illustrator 17.0.0, SVG Export Plug-In . SVG Version: 6.00 Build 0)  -->
<!DOCTYPE svg PUBLIC "-//W3C//DTD SVG 1.1//EN" "http://www.w3.org/Graphics/SVG/1.1/DTD/svg11.dtd">
<svg version="1.1" id="Layer_1" xmlns="http://www.w3.org/2000/svg" xmlns:xlink="http://www.w3.org/1999/xlink" x="0px" y="0px"
	 width="48px" height="48px" viewBox="0 0 48 48" style="enable-background:new 0 0 48 48;" xml:space="preserve">
<g id="xdEhD1.tif">
	<g>
		<g>
			<path style="fill:#B3B4B5;" d="M23.974,48c-6.421-0.011-12.45-2.514-16.975-7.049C2.474,36.416-0.012,30.388,0,23.975
				C0.026,10.755,10.781,0,23.976,0C37.269,0.026,48.024,10.804,48,24.026C47.976,37.245,37.218,48,24.016,48H23.974z M23.963,4.394
				c-10.753,0-19.531,8.783-19.568,19.58c-0.018,5.193,2.019,10.104,5.736,13.83c3.716,3.724,8.632,5.785,13.843,5.803
				c10.816,0.001,19.594-8.782,19.63-19.58c0.018-5.192-2.019-10.103-5.736-13.828c-3.716-3.726-8.632-5.786-13.843-5.804H23.963z"
				/>
		</g>
		<path style="fill:#B3B4B5;" d="M39.988,14.97c-1.008,0.758-2.02,1.519-3.033,2.28c-3.02,2.268-6.038,4.539-9.064,6.799
			c-0.307,0.229-0.507,0.478-0.615,0.862c-0.429,1.53-1.8,2.554-3.31,2.517c-1.584-0.039-2.912-1.071-3.281-2.627
			c-0.291-1.226,0.012-2.34,0.917-3.23c0.903-0.888,2.012-1.175,3.238-0.866c0.354,0.089,0.637,0.064,0.962-0.075
			c4.543-1.95,9.091-3.889,13.637-5.833C39.658,14.703,39.887,14.546,39.988,14.97z"/>
		<path style="fill:#B3B4B5;" d="M25.541,8.843c-0.031,0.406-0.025,0.828-0.101,1.235c-0.123,0.652-0.781,1.168-1.413,1.164
			c-0.722-0.004-1.387-0.5-1.453-1.212c-0.074-0.793-0.088-1.601-0.022-2.394c0.063-0.756,0.743-1.293,1.447-1.278
			c0.752,0.015,1.325,0.503,1.449,1.278C25.51,8.029,25.511,8.432,25.541,8.843z"/>
		<path style="fill:#B3B4B5;" d="M8.814,22.464c0.398,0.026,0.802,0.02,1.195,0.085c0.712,0.119,1.253,0.78,1.232,1.45
			c-0.023,0.736-0.506,1.361-1.235,1.433c-0.761,0.075-1.538,0.091-2.3,0.032c-0.792-0.061-1.348-0.718-1.349-1.44
			c-0.001-0.762,0.5-1.348,1.305-1.477C8.039,22.488,8.426,22.49,8.814,22.464z"/>
		<path style="fill:#B3B4B5;" d="M39.186,25.536c-0.397-0.026-0.802-0.02-1.195-0.085c-0.712-0.119-1.253-0.78-1.232-1.45
			c0.024-0.736,0.506-1.36,1.235-1.433c0.761-0.075,1.538-0.091,2.3-0.032c0.792,0.061,1.348,0.718,1.349,1.44
			c0.001,0.762-0.501,1.348-1.305,1.476C39.962,25.513,39.574,25.51,39.186,25.536z"/>
		<path style="fill:#B3B4B5;" d="M33.551,10.101c-0.009,0.043-0.01,0.232-0.09,0.38c-0.387,0.718-0.75,1.454-1.208,2.125
			c-0.384,0.562-1.244,0.684-1.822,0.368c-0.641-0.349-0.99-1.133-0.682-1.805c0.338-0.739,0.755-1.45,1.213-2.123
			c0.345-0.507,1.052-0.629,1.655-0.41C33.159,8.833,33.531,9.365,33.551,10.101z"/>
		<path style="fill:#B3B4B5;" d="M11.557,18.362c-0.023-0.004-0.11-0.001-0.176-0.038c-0.799-0.435-1.631-0.822-2.379-1.332
			c-0.532-0.363-0.603-1.257-0.285-1.8c0.361-0.615,1.081-0.945,1.729-0.655c0.756,0.338,1.484,0.756,2.172,1.218
			c0.509,0.341,0.636,1.056,0.423,1.649C12.84,17.966,12.267,18.35,11.557,18.362z"/>
		<path style="fill:#B3B4B5;" d="M37.892,33.551c-0.045-0.01-0.234-0.012-0.381-0.092c-0.717-0.388-1.453-0.752-2.123-1.211
			c-0.558-0.383-0.676-1.252-0.358-1.825c0.355-0.64,1.132-0.98,1.809-0.672c0.725,0.33,1.422,0.739,2.084,1.184
			c0.532,0.357,0.668,1.066,0.438,1.689C39.161,33.164,38.627,33.533,37.892,33.551z"/>
		<path style="fill:#B3B4B5;" d="M16.841,13.121c-0.613,0.008-1.023-0.326-1.324-0.814c-0.302-0.491-0.594-0.989-0.864-1.498
			c-0.4-0.754-0.197-1.621,0.454-2.044c0.654-0.424,1.546-0.274,2.037,0.427c0.421,0.6,0.808,1.241,1.098,1.911
			C18.674,12.098,17.909,13.149,16.841,13.121z"/>
		<path style="fill:#B3B4B5;" d="M10.26,33.546c-0.874,0.004-1.385-0.34-1.613-0.925c-0.225-0.577-0.119-1.262,0.373-1.61
			c0.663-0.469,1.364-0.9,2.093-1.256c0.646-0.315,1.45-0.002,1.807,0.588c0.377,0.624,0.278,1.458-0.324,1.904
			C11.819,32.822,11.012,33.375,10.26,33.546z"/>
	</g>
</g>
</svg>
