<?xml version="1.0" encoding="utf-8"?>
<!-- Generator: Adobe Illustrator 17.0.0, SVG Export Plug-In . SVG Version: 6.00 Build 0)  -->
<!DOCTYPE svg PUBLIC "-//W3C//DTD SVG 1.1//EN" "http://www.w3.org/Graphics/SVG/1.1/DTD/svg11.dtd">
<svg version="1.1" id="Layer_1" xmlns="http://www.w3.org/2000/svg" xmlns:xlink="http://www.w3.org/1999/xlink" x="0px" y="0px"
	 width="48px" height="48px" viewBox="0 0 48 48" enable-background="new 0 0 48 48" xml:space="preserve">
<g>
	<g id="isbxUX_1_">
		<g>
			<g>
				<path fill="#B3B4B5" d="M16.891,24.711c-0.137-0.09-0.239-0.159-0.343-0.225c-1.565-0.983-3.13-1.965-4.694-2.948
					c-0.372-0.234-0.532-0.539-0.462-0.877c0.114-0.551,0.71-0.801,1.209-0.494c0.726,0.446,1.445,0.904,2.167,1.357
					c1.314,0.826,2.63,1.651,3.942,2.48c0.649,0.41,0.636,1.07-0.026,1.463c-2.018,1.195-4.036,2.39-6.056,3.582
					c-0.516,0.304-1.061,0.108-1.217-0.427c-0.106-0.362,0.051-0.694,0.44-0.923c1.314-0.778,2.629-1.554,3.943-2.332
					C16.146,25.157,16.498,24.945,16.891,24.711z"/>
			</g>
		</g>
		<path fill="#B3B4B5" d="M27.81,28.286c0,0.498-0.408,0.906-0.906,0.906h-6.435c-0.498,0-0.906-0.408-0.906-0.906v-0.069
			c0-0.498,0.408-0.906,0.906-0.906h6.435c0.498,0,0.906,0.408,0.906,0.906V28.286z"/>
	</g>
	<path fill="#B3B4B5" d="M45.78,8.193H2.22c-0.624,0-1.132,0.508-1.132,1.132v30.483h45.824V9.325
		C46.912,8.7,46.404,8.193,45.78,8.193z M3.086,10.191h41.828v0.067v1.373H3.086v-1.373V10.191z M3.086,36.344V13.628h41.828v22.716
		H3.086z"/>
</g>
</svg>
