<?xml version="1.0" encoding="iso-8859-1"?>
<!-- Generator: Adobe Illustrator 17.0.0, SVG Export Plug-In . SVG Version: 6.00 Build 0)  -->
<!DOCTYPE svg PUBLIC "-//W3C//DTD SVG 1.1//EN" "http://www.w3.org/Graphics/SVG/1.1/DTD/svg11.dtd">
<svg version="1.1" id="Layer_1" xmlns="http://www.w3.org/2000/svg" xmlns:xlink="http://www.w3.org/1999/xlink" x="0px" y="0px"
	 width="48px" height="48px" viewBox="0 0 48 48" style="enable-background:new 0 0 48 48;" xml:space="preserve">
<g id="xdEhD1.tif_9_">
	<g id="xIXYAg_6_">
		<g>
			<path style="fill:#B3B4B5;" d="M47.983,44.4c-2.063-0.885-3.98-1.707-5.898-2.529c-0.804-0.344-1.594-0.916-2.416-0.967
				c-0.807-0.05-1.641,0.454-2.475,0.671c-6.305,1.647-12.275,1.03-17.698-2.796c-2.468-1.741-4.231-4.064-4.864-7.081
				c-0.818-3.9,0.488-7.171,3.221-9.917c2.597-2.608,5.823-4.047,9.405-4.681c4.815-0.852,9.447-0.278,13.775,2.089
				c2.76,1.509,4.981,3.586,6.17,6.565c1.54,3.861,0.79,7.393-1.765,10.578c-0.372,0.464-0.384,0.801-0.177,1.302
				C46.166,39.83,47.037,42.039,47.983,44.4z"/>
			<path style="fill:#B3B4B5;" d="M40.473,16.056c-1.828-0.483-3.455-1.058-5.131-1.33c-6.703-1.086-12.906,0.106-18.225,4.529
				c-3.357,2.792-5.256,6.387-5.095,10.86c0.041,1.147,0.334,2.286,0.521,3.492c-0.52-0.188-1.11-0.366-1.668-0.616
				c-0.379-0.17-0.686-0.171-1.072-0.002c-3.032,1.321-6.075,2.617-9.116,3.919c-0.184,0.079-0.374,0.145-0.664,0.256
				c0.221-0.569,0.401-1.042,0.588-1.511c0.944-2.365,1.881-4.733,2.845-7.091c0.144-0.353,0.095-0.565-0.147-0.851
				c-2.459-2.91-3.7-6.224-3.201-10.07c0.445-3.425,2.154-6.179,4.671-8.459c3.276-2.967,7.197-4.583,11.515-5.25
				c4.541-0.702,9.002-0.314,13.302,1.364c3.929,1.533,7.243,3.878,9.415,7.589C39.587,13.871,39.977,14.966,40.473,16.056z"/>
		</g>
	</g>
</g>
</svg>
