<?xml version="1.0" encoding="iso-8859-1"?>
<!-- Generator: Adobe Illustrator 17.0.0, SVG Export Plug-In . SVG Version: 6.00 Build 0)  -->
<!DOCTYPE svg PUBLIC "-//W3C//DTD SVG 1.1//EN" "http://www.w3.org/Graphics/SVG/1.1/DTD/svg11.dtd">
<svg version="1.1" id="Layer_1" xmlns="http://www.w3.org/2000/svg" xmlns:xlink="http://www.w3.org/1999/xlink" x="0px" y="0px"
	 width="32px" height="32px" viewBox="0 0 32 32" style="enable-background:new 0 0 32 32;" xml:space="preserve">
<g id="_x38_lzLR4.tif_1_">
	<g>
		<path style="fill:#FFFFFF;" d="M23.983,19.968c-2.237,0-4.43,0-6.68,0c0,0.35-0.011,0.693,0.004,1.036
			c0.01,0.223-0.067,0.295-0.289,0.291c-0.206-0.003-0.315-0.043-0.304-0.279c0.015-0.335,0.004-0.672,0.004-1.034
			c-2.019,0-4.017,0-6.062,0c0,0.557-0.017,1.112,0.007,1.666c0.012,0.282-0.067,0.387-0.355,0.418
			c-0.296,0.031-0.583,0.146-0.934,0.239c0-0.173,0-0.315,0-0.457c0.001-0.96-0.005-1.921,0.009-2.881
			c0.004-0.255-0.061-0.343-0.332-0.343c-2.901,0.008-5.803-0.001-8.705,0.009c-0.293,0.001-0.344-0.095-0.344-0.362
			C0.009,12.532,0.01,6.792,0,1.052C-0.001,0.746,0.098,0.69,0.377,0.69C7.489,0.697,14.6,0.694,21.711,0.694
			c0.19,0,0.382,0.021,0.569-0.001c0.291-0.033,0.351,0.094,0.35,0.361c-0.01,2.216-0.009,4.431-0.008,6.647
			c0,0.453,0.023,0.907,0.015,1.36c-0.005,0.255,0.099,0.314,0.339,0.313c2.881-0.007,5.761,0.001,8.641-0.011
			c0.311-0.001,0.38,0.091,0.38,0.389C31.99,15.472,31.989,21.192,32,26.91c0.001,0.328-0.087,0.399-0.405,0.398
			c-2.838-0.012-5.677-0.009-8.515,0.001c-0.272,0.001-0.385-0.061-0.363-0.349c0.015-0.186-0.024-0.377-0.052-0.565
			c-0.041-0.273,0.057-0.395,0.342-0.373c0.263,0.02,0.527,0.016,0.791,0.022c0.181,0.004,0.263-0.072,0.262-0.265
			c-0.006-1.203,0.002-2.405-0.007-3.608c-0.004-0.61-0.033-1.219-0.051-1.829C23.999,20.228,23.991,20.115,23.983,19.968z
			 M7.953,7.326c2.249,0,4.477,0,6.722,0c0-0.919,0-1.818,0-2.734c-2.248,0-4.475,0-6.722,0C7.953,5.502,7.953,6.394,7.953,7.326z
			 M17.323,15.999c2.227,0,4.433,0,6.659,0c0-0.919,0-1.817,0-2.735c-2.227,0-4.433,0-6.659,0
			C17.323,14.175,17.323,15.067,17.323,15.999z M23.983,16.694c-2.233,0-4.447,0-6.66,0c0,0.9,0,1.771,0,2.651
			c2.233,0,4.447,0,6.66,0C23.983,18.444,23.983,17.574,23.983,16.694z M1.31,4.591c0,0.933,0,1.825,0,2.73c2.02,0,4.016,0,6.016,0
			c0-0.924,0-1.823,0-2.73C5.312,4.591,3.323,4.591,1.31,4.591z M21.323,7.326c0-0.934,0-1.826,0-2.729c-2.017,0-4.013,0-6.017,0
			c0,0.925,0,1.825,0,2.729C17.323,7.326,19.312,7.326,21.323,7.326z M10.675,15.994c2.015,0,4.011,0,6.017,0
			c0-0.923,0-1.822,0-2.72c-2.025,0-4.021,0-6.017,0C10.675,14.196,10.675,15.088,10.675,15.994z M30.694,13.265
			c-2.031,0-4.019,0-6.025,0c0,0.919,0,1.819,0,2.728c2.017,0,4.014,0,6.025,0C30.694,15.076,30.694,14.185,30.694,13.265z
			 M24.667,23.33c0,0.911,0,1.783,0,2.667c2.016,0,4.011,0,6.017,0c0-0.903,0-1.78,0-2.667C28.666,23.33,26.678,23.33,24.667,23.33z
			 M24.667,19.976c0,0.911,0,1.781,0,2.661c2.023,0,4.025,0,6.027,0c0-0.901,0-1.771,0-2.661
			C28.679,19.976,26.683,19.976,24.667,19.976z M24.672,16.683c0,0.912,0,1.782,0,2.667c2.02,0,4.016,0,6.016,0
			c0-0.903,0-1.781,0-2.667C28.674,16.683,26.685,16.683,24.672,16.683z M10.676,19.354c2.031,0,4.019,0,6.025,0
			c0-0.898,0-1.777,0-2.664c-2.017,0-4.013,0-6.025,0C10.676,17.586,10.676,18.456,10.676,19.354z M1.307,17.328
			c2.031,0,4.019,0,6.023,0c0-0.899,0-1.777,0-2.663c-2.018,0-4.014,0-6.023,0C1.307,15.562,1.307,16.432,1.307,17.328z
			 M7.331,11.303c-2.031,0-4.019,0-6.024,0c0,0.899,0,1.777,0,2.663c2.018,0,4.013,0,6.024,0C7.331,13.07,7.331,12.2,7.331,11.303z
			 M7.333,8.02c-2.022,0-4.025,0-6.027,0c0,0.901,0,1.771,0,2.651c2.023,0,4.025,0,6.027,0C7.333,9.77,7.333,8.9,7.333,8.02z
			 M7.954,10.675c0.491,0,0.939,0,1.423,0c0-0.339,0.015-0.654-0.005-0.967C9.357,9.452,9.431,9.36,9.703,9.365
			c1.001,0.015,2.003,0.006,3.005,0.006c0.65,0,1.3,0,1.965,0c0-0.477,0-0.912,0-1.353c-2.251,0-4.478,0-6.719,0
			C7.954,8.914,7.954,9.784,7.954,10.675z M15.298,8.01c0,0.469,0,0.897,0,1.331c2.023,0,4.025,0,6.025,0c0-0.458,0-0.886,0-1.331
			C19.308,8.01,17.313,8.01,15.298,8.01z M9.359,14.658c-0.49,0-0.939,0-1.405,0c0,0.897,0,1.774,0,2.67c0.475,0,0.931,0,1.405,0
			C9.359,16.432,9.359,15.555,9.359,14.658z M9.348,13.974c0-0.904,0-1.789,0-2.671c-0.479,0-0.927,0-1.384,0
			c0,0.904,0,1.789,0,2.671C8.442,13.974,8.891,13.974,9.348,13.974z"/>
		<path style="fill:#FFFFFF;" d="M2.021,24.64c-0.555,0-1.067-0.001-1.579,0c-0.43,0.001-0.43,0.003-0.431-0.436
			c-0.001-0.837-0.001-0.837,0.848-0.837c0.781,0,1.561,0.006,2.341-0.005c0.127-0.002,0.264-0.057,0.379-0.119
			c1.738-0.942,3.867-0.602,5.212,0.839c0.106,0.113,0.191,0.223,0.358,0.067c1.135-1.07,3.335-1.013,4.441,0.058
			c0.014,0.013,0.037,0.017,0.094,0.042c0.077-0.073,0.167-0.155,0.253-0.241c1.355-1.362,3.319-1.675,5.037-0.817
			c0.207,0.103,0.456,0.163,0.687,0.168c0.865,0.019,1.73,0.021,2.595,0.001c0.305-0.007,0.393,0.103,0.368,0.384
			c-0.017,0.189-0.018,0.381-0.003,0.569c0.02,0.247-0.069,0.337-0.322,0.33c-0.535-0.016-1.072-0.005-1.672-0.005
			c0.061,0.137,0.095,0.228,0.141,0.313c1.363,2.515-0.033,5.582-2.851,6.256c-1.87,0.447-4.002-0.598-4.801-2.381
			c-0.532-1.189-0.545-2.387-0.022-3.581c0.091-0.209,0.059-0.343-0.081-0.507c-0.908-1.062-2.535-1.048-3.401,0.029
			c-0.12,0.149-0.143,0.274-0.061,0.456c1.202,2.668-0.487,5.669-3.401,6.054c-2.435,0.321-4.728-1.661-4.774-4.115
			c-0.015-0.787,0.13-1.528,0.516-2.218C1.936,24.865,1.964,24.776,2.021,24.64z M13.947,26.977
			c0.017,1.697,1.292,3.057,3.065,3.085c1.648,0.026,3.067-1.387,3.044-3.043c-0.025-1.747-1.327-3.033-3.05-3.067
			C15.355,23.918,13.949,25.33,13.947,26.977z M8.685,27.029c0.067-1.582-1.239-3.061-3.047-3.081
			c-1.638-0.017-3.011,1.377-3.03,3.016c-0.019,1.668,1.291,3.1,3.045,3.09C7.521,30.043,8.712,28.556,8.685,27.029z"/>
	</g>
</g>
</svg>
