<svg width="31" height="40" viewBox="0 0 31 40" fill="none" xmlns="http://www.w3.org/2000/svg">
<path d="M13.6563 14.9111H3.61088L2.19824 24.7996H12.0867L13.6563 14.9111Z" fill="#0082ED"/>
<path d="M15.0684 5.02344H5.17995L3.61035 14.9119H13.6558L15.0684 5.02344Z" fill="#0082ED"/>
<path d="M11.3011 29.8223H1.41264L0 39.7108H9.88849L11.3011 29.8223Z" fill="#0082ED"/>
<path d="M12.8712 19.9336H2.98269L1.41309 29.8221H11.3016L12.8712 19.9336Z" fill="#0082ED"/>
<path d="M14.2836 10.0459H4.39506L2.98242 19.9344H12.8709L14.2836 10.0459Z" fill="#0082ED"/>
<path d="M20.7191 0H10.8306L9.41797 10.0455H19.3065L20.7191 0Z" fill="#0082ED"/>
<path d="M30.7638 0H20.7183L19.3057 10.0455H29.1942L30.7638 0Z" fill="#0082ED"/>
<path d="M15.0684 5.02273H20.0911L20.7189 0H15.8532L15.0684 5.02273Z" fill="#0082ED"/>
<path d="M24.957 5.02273H29.9798L30.7646 0H25.7418L24.957 5.02273Z" fill="#0082ED"/>
<path d="M20.7191 0H10.8306L9.41797 10.0455H19.3065L20.7191 0Z" fill="#0082ED"/>
<path d="M20.0909 5.02344H10.0455L8.63281 14.9119H18.5213L20.0909 5.02344Z" fill="#0082ED"/>
<path d="M30.7652 0H25.7425L24.1729 10.0455H29.1956L30.7652 0Z" fill="#0082ED"/>
<path d="M24.957 5.02273H29.9798L30.7646 0H25.7418L24.957 5.02273Z" fill="#0082ED"/>
<path d="M24.9576 5.02273L25.7424 0H20.7196L20.0918 5.02273H24.9576Z" fill="#0082ED"/>
<path d="M17.1085 24.7998H7.21999L5.65039 34.8453H15.5389L17.1085 24.7998Z" fill="#0082ED"/>
<path d="M11.3003 29.8225L12.0851 24.7998H7.21937L6.43457 29.8225H11.3003Z" fill="#0082ED"/>
<path d="M5.65039 34.845H10.6731L11.301 29.8223H6.43519L5.65039 34.845Z" fill="#0082ED"/>
<path d="M0 39.7105H4.86577L5.65057 34.8447H0.784801L0 39.7105Z" fill="#0082ED"/>
<path d="M1.413 29.8223L0.785156 34.845H5.65092L6.43572 29.8223H1.413Z" fill="#0082ED"/>
<path d="M18.5218 14.9111H8.63335L7.2207 24.7996H17.1092L18.5218 14.9111Z" fill="#0082ED"/>
<path d="M24.9574 14.9111H18.522L17.1094 24.7996H23.5447L24.9574 14.9111Z" fill="#0082ED"/>
<path d="M17.1094 24.7994H23.3878L24.1726 19.9336H17.7372L17.1094 24.7994Z" fill="#0082ED"/>
<path d="M21.9751 24.7994L22.7599 19.9336H17.7372L17.1094 24.7994H21.9751Z" fill="#0082ED"/>
<path d="M12.8707 19.9336L12.0859 24.7994H17.1087L17.7365 19.9336H12.8707Z" fill="#0082ED"/>
<path d="M13.6559 14.9111L12.8711 19.9339H22.7596L23.5444 14.9111H13.6559Z" fill="#0082ED"/>
<path d="M22.7591 19.9339L23.5439 14.9111H18.5211L17.7363 19.9339H22.7591Z" fill="#0082ED"/>
<path d="M13.6559 14.9111L12.8711 19.9339H17.7369L18.5217 14.9111H13.6559Z" fill="#0082ED"/>
<path d="M11.3008 29.8225H16.3235L17.1083 24.7998H12.0856L11.3008 29.8225Z" fill="#0082ED"/>
<path d="M20.0909 5.02344H10.0455L8.63281 14.9119H18.5213L20.0909 5.02344Z" fill="#0082ED"/>
<path d="M9.41797 10.0462H19.3065L20.0913 5.02344H10.0458L9.41797 10.0462Z" fill="#0082ED"/>
<path d="M6.43581 29.8225L7.22061 24.7998H2.19789L1.41309 29.8225H6.43581Z" fill="#0082ED"/>
</svg>
