<svg width="356" height="73" viewBox="0 0 356 73" fill="none" xmlns="http://www.w3.org/2000/svg">
<path d="M24.1398 26.6948H6.49744L4.01648 44.0616H21.3832L24.1398 26.6948Z" fill="#0082ED"/>
<path d="M26.6207 9.32861H9.254L6.49738 26.6953H24.1398L26.6207 9.32861Z" fill="#0082ED"/>
<path d="M20.0048 52.8826H2.63807L0.157104 70.2493H17.5238L20.0048 52.8826Z" fill="#0082ED"/>
<path d="M22.7615 35.5166H5.39475L2.63812 52.8833H20.0049L22.7615 35.5166Z" fill="#0082ED"/>
<path d="M25.2424 18.1497H7.87568L5.39471 35.5164H22.7614L25.2424 18.1497Z" fill="#0082ED"/>
<path d="M36.5445 0.506836H19.1778L16.6968 18.1492H34.0636L36.5445 0.506836Z" fill="#0082ED"/>
<path d="M54.187 0.506836H36.5446L34.0636 18.1492H51.4303L54.187 0.506836Z" fill="#0082ED"/>
<path d="M26.6207 9.32803H35.4419L36.5445 0.506836H27.999L26.6207 9.32803Z" fill="#0082ED"/>
<path d="M43.9875 9.32803H52.8087L54.187 0.506836H45.3658L43.9875 9.32803Z" fill="#0082ED"/>
<path d="M36.5445 0.506836H19.1778L16.6968 18.1492H34.0636L36.5445 0.506836Z" fill="#0082ED"/>
<path d="M35.4419 9.32861H17.7995L15.3185 26.6953H32.6853L35.4419 9.32861Z" fill="#0082ED"/>
<path d="M54.187 0.506836H45.3658L42.6092 18.1492H51.4304L54.187 0.506836Z" fill="#0082ED"/>
<path d="M43.9875 9.32803H52.8087L54.187 0.506836H45.3658L43.9875 9.32803Z" fill="#0082ED"/>
<path d="M43.9875 9.32803L45.3658 0.506836H36.5446L35.442 9.32803H43.9875Z" fill="#0082ED"/>
<path d="M30.2043 44.0615H12.8376L10.0809 61.7039H27.4477L30.2043 44.0615Z" fill="#0082ED"/>
<path d="M20.0048 52.8827L21.3831 44.0615H12.8376L11.4593 52.8827H20.0048Z" fill="#0082ED"/>
<path d="M10.0809 61.7038H18.9021L20.0048 52.8826H11.4592L10.0809 61.7038Z" fill="#0082ED"/>
<path d="M0.157104 70.2501H8.70264L10.0809 61.7046H1.53542L0.157104 70.2501Z" fill="#0082ED"/>
<path d="M2.63811 52.8826L1.53546 61.7038H10.081L11.4593 52.8826H2.63811Z" fill="#0082ED"/>
<path d="M32.6853 26.6948H15.3186L12.8376 44.0616H30.2044L32.6853 26.6948Z" fill="#0082ED"/>
<path d="M43.9875 26.6948H32.6854L30.2044 44.0616H41.5066L43.9875 26.6948Z" fill="#0082ED"/>
<path d="M30.2044 44.0621H41.2309L42.6092 35.5166H31.3071L30.2044 44.0621Z" fill="#0082ED"/>
<path d="M38.7499 44.0621L40.1283 35.5166H31.3071L30.2044 44.0621H38.7499Z" fill="#0082ED"/>
<path d="M22.7614 35.5166L21.3831 44.0621H30.2043L31.307 35.5166H22.7614Z" fill="#0082ED"/>
<path d="M24.1398 26.6948L22.7615 35.516H40.1282L41.5065 26.6948H24.1398Z" fill="#0082ED"/>
<path d="M40.1282 35.516L41.5065 26.6948H32.6853L31.307 35.516H40.1282Z" fill="#0082ED"/>
<path d="M24.1398 26.6948L22.7615 35.516H31.307L32.6853 26.6948H24.1398Z" fill="#0082ED"/>
<path d="M20.0048 52.8827H28.826L30.2043 44.0615H21.3831L20.0048 52.8827Z" fill="#0082ED"/>
<path d="M35.4419 9.32861H17.7995L15.3185 26.6953H32.6853L35.4419 9.32861Z" fill="#0082ED"/>
<path d="M16.6968 18.1498H34.0636L35.4419 9.32861H17.7995L16.6968 18.1498Z" fill="#0082ED"/>
<path d="M11.4593 52.8827L12.8376 44.0615H4.01643L2.63812 52.8827H11.4593Z" fill="#0082ED"/>
<path d="M82.3046 13.7388H114.281V20.6303H90.8501V34.4134H112.076V41.305H90.8501V60.6014H82.0289V13.7388H82.3046Z" fill="#0B2633"/>
<path fill-rule="evenodd" clip-rule="evenodd" d="M143.502 24.7658C141.021 23.6631 138.264 23.1118 134.956 23.1118C131.648 23.1118 128.891 23.9388 126.135 25.0415C123.378 26.6954 121.449 28.9007 119.795 31.933C118.141 34.9653 117.314 38.2732 117.314 41.8569C117.314 45.7161 118.141 48.7484 119.795 51.7807C121.173 54.813 123.378 57.0183 126.135 58.6723C128.616 60.3262 131.648 61.1532 134.956 61.1532C141.848 61.1532 146.534 59.2236 148.739 54.813L149.015 60.6019H156.733V23.6631H149.015L148.739 29.4521C147.636 27.5224 145.983 25.8684 143.502 24.7658ZM145.431 50.9535C143.226 53.1588 140.469 54.2615 137.161 54.2615C133.853 54.2615 131.097 53.1588 128.891 50.9535C126.686 48.7482 125.584 45.7159 125.584 42.408C125.584 39.1 126.686 36.0677 128.891 33.8624C131.097 31.6571 133.853 30.5545 137.161 30.5545C140.469 30.5545 143.226 31.6571 145.431 33.8624C147.636 36.0677 148.739 39.1 148.739 42.408C148.739 45.7159 147.636 48.7482 145.431 50.9535Z" fill="#0B2633"/>
<path d="M163.349 23.6626H171.068L171.343 28.6245C172.997 26.4192 174.927 25.0409 176.857 24.4896C178.786 23.6626 181.543 23.387 185.127 23.387V30.2785C180.716 30.2785 177.408 31.3812 175.203 33.5865C172.722 35.7918 171.619 38.5484 171.619 42.132V60.6014H163.349V23.6626Z" fill="#0B2633"/>
<path fill-rule="evenodd" clip-rule="evenodd" d="M212.417 24.7658C209.936 23.6631 207.18 23.1118 203.872 23.1118C200.564 23.1118 197.531 23.9388 195.05 25.0415C192.294 26.6954 190.364 28.9007 188.71 31.933C187.056 34.9653 186.229 38.2732 186.229 41.8569C186.229 45.7161 187.056 48.7484 188.71 51.7807C190.088 54.813 192.294 57.0183 195.05 58.6723C197.531 60.3262 200.564 61.1532 203.872 61.1532C210.763 61.1532 215.449 59.2236 217.655 54.813L217.93 60.6019H225.649V23.6631H217.93L217.655 29.4521C216.552 27.5224 214.898 25.8684 212.417 24.7658ZM214.347 50.9535C212.141 53.1588 209.385 54.2615 206.077 54.2615C202.769 54.2615 200.012 53.1588 197.807 50.9535C195.602 48.7482 194.499 45.7159 194.499 42.408C194.499 39.1 195.602 36.0677 197.807 33.8624C200.012 31.6571 202.769 30.5545 206.077 30.5545C209.385 30.5545 212.141 31.6571 214.347 33.8624C216.552 36.0677 217.655 39.1 217.655 42.408C217.655 45.7159 216.552 48.7482 214.347 50.9535Z" fill="#0B2633"/>
<path fill-rule="evenodd" clip-rule="evenodd" d="M256.799 24.7651C254.318 23.6625 251.561 23.1112 248.253 23.1112C244.945 23.1112 241.913 23.9381 239.708 25.0408C236.951 26.6948 235.022 28.9001 233.368 31.9324C231.714 34.9646 230.887 38.2726 230.887 41.8562C230.887 45.7155 231.714 48.7478 233.368 51.78C234.746 54.8123 236.951 57.0176 239.708 58.6716C242.189 60.3256 245.221 61.1526 248.529 61.1526C255.421 61.1526 260.107 59.2229 262.312 54.8123L262.588 60.6012H270.306V10.155H262.036V29.4514C260.934 27.5218 259.28 25.8678 256.799 24.7651ZM250.459 54.2607C247.151 54.2607 244.394 53.1581 242.189 50.9528C239.983 48.4718 238.881 45.7152 238.881 42.4072C238.881 39.0993 239.983 36.067 242.189 33.8617C244.394 31.6564 247.151 30.5538 250.459 30.5538C253.767 30.5538 256.523 31.6564 258.728 33.8617C260.934 36.067 262.036 39.0993 262.036 42.4072C262.036 45.7152 260.934 48.7475 258.728 50.9528C256.523 53.1581 253.767 54.2607 250.459 54.2607Z" fill="#0B2633"/>
<path fill-rule="evenodd" clip-rule="evenodd" d="M301.18 24.7658C298.7 23.6631 295.943 23.1118 292.635 23.1118C289.327 23.1118 286.295 23.9388 283.814 25.0415C281.057 26.6954 279.127 28.9007 277.474 31.933C275.82 34.9653 274.993 38.2732 274.993 41.8569C274.993 45.7161 275.82 48.7484 277.474 51.7807C278.852 54.813 281.057 57.0183 283.814 58.6723C286.295 60.3262 289.327 61.1532 292.635 61.1532C299.527 61.1532 304.213 59.2236 306.418 54.813L306.694 60.6019H314.412V23.6631H306.694L306.418 29.4521C305.315 27.5224 303.661 25.8684 301.18 24.7658ZM303.11 50.9535C300.905 53.1588 298.148 54.2615 294.84 54.2615C291.532 54.2615 288.776 53.1588 286.57 50.9535C284.365 48.7482 283.262 45.7159 283.262 42.408C283.262 39.1 284.365 36.0677 286.57 33.8624C288.776 31.6571 291.532 30.5545 294.84 30.5545C298.148 30.5545 300.905 31.6571 303.11 33.8624C305.315 36.0677 306.418 39.1 306.418 42.408C306.418 45.7159 305.315 48.7482 303.11 50.9535Z" fill="#0B2633"/>
<path d="M346.665 23.6628H355.486L341.151 60.0503C339.222 64.7365 336.741 67.7688 333.709 69.9741C330.676 71.9038 326.541 72.7307 321.304 72.4551L320.752 66.3905C327.093 66.3905 330.676 64.7365 331.503 61.1529L317.169 23.6628H326.266L336.465 53.71L346.665 23.6628Z" fill="#0B2633"/>
</svg>
