<?xml version="1.0" encoding="utf-8"?>
<!-- Generator: Adobe Illustrator 19.0.0, SVG Export Plug-In . SVG Version: 6.00 Build 0)  -->
<svg version="1.1" id="Layer_1" xmlns="http://www.w3.org/2000/svg" xmlns:xlink="http://www.w3.org/1999/xlink" x="0px" y="0px"
	 viewBox="0 0 170 170" style="enable-background:new 0 0 170 170;" xml:space="preserve">
<style type="text/css">
	.st0{fill:#FFFFFF;stroke:#5B5C62;stroke-width:8;stroke-linejoin:bevel;stroke-miterlimit:10;}
	.st1{fill:none;stroke:#5B5C62;stroke-width:8;stroke-linejoin:bevel;stroke-miterlimit:10;}
	.st2{fill:#FFFFFF;stroke:#5B5C62;stroke-width:6;stroke-linejoin:bevel;stroke-miterlimit:10;}
</style>
<g>
	<path class="st0" d="M57.9,101.3c-27.3,5.2-48,29.2-48,58.1v0.4h151v-0.4c0-29.9-22.2-54.6-51-58.6"/>
	<path class="st0" d="M69.1,100.3"/>
	<path class="st1" d="M85.4,110.2L85.4,110.2c-22.1,0-40.1-17.9-40.1-40.1V48.3c0-22.1,17.9-40.1,40.1-40.1l0,0
		c22.1,0,40.1,17.9,40.1,40.1v21.9C125.5,92.3,107.6,110.2,85.4,110.2z"/>
	<path class="st2" d="M85.4,8.3L85.4,8.3c-22.1,0-40.1,17.9-40.1,40.1v2.8C51.2,54.3,57.9,56,65,56c15.7,0,29.3-8.6,36.6-21.3
		c5.2,9.1,13.7,16.1,23.9,19.3v-5.7C125.5,26.2,107.6,8.3,85.4,8.3z"/>
	<path class="st1" d="M85.4,110.2L85.4,110.2c-22.1,0-40.1-17.9-40.1-40.1V48.3c0-22.1,17.9-40.1,40.1-40.1l0,0
		c22.1,0,40.1,17.9,40.1,40.1v21.9C125.5,92.3,107.6,110.2,85.4,110.2z"/>
</g>
</svg>
