<?xml version="1.0" encoding="utf-8"?>
<!-- Generator: Adobe Illustrator 22.1.0, SVG Export Plug-In . SVG Version: 6.00 Build 0)  -->
<svg version="1.1" id="Layer_1" xmlns="http://www.w3.org/2000/svg" xmlns:xlink="http://www.w3.org/1999/xlink" x="0px" y="0px"
	 viewBox="0 0 33 33" style="enable-background:new 0 0 33 33;" xml:space="preserve">
<g transform="translate(0,-952.36218)">
	<g>
		<path d="M16.7,956.6c-2.4,0-4.7,0.9-6.5,2.7c-1.4,1.4-2.2,3.1-2.5,5c-3.5,0.6-6.3,3.6-6.3,7.3c0,4.1,3.3,7.4,7.4,7.4h3.7
			c0.4,0,0.7-0.3,0.7-0.7s-0.3-0.7-0.7-0.7l0,0H8.9c-3.3,0-6.1-2.8-6.1-6.1c0-3.1,2.4-5.8,5.5-6.1c0.3,0,0.6-0.3,0.6-0.6
			c0.2-1.7,1-3.3,2.2-4.6c1.5-1.5,3.5-2.3,5.5-2.3s4,0.8,5.5,2.3c1.7,1.7,2.5,4.2,2.2,6.5c0,0.4,0.2,0.7,0.6,0.8H25h0.4
			c2.9,0,5,2.3,5,5c0,2.9-2.3,5-5,5h-4.8c-0.4,0-0.7,0.3-0.7,0.7s0.3,0.7,0.7,0.7l0,0h4.8c3.5,0,6.5-2.9,6.5-6.5
			c0-3.4-2.8-6.3-6.2-6.4c0.1-2.5-0.8-5-2.7-6.9C21.4,957.5,19.1,956.6,16.7,956.6z M16.7,966.9c-0.2,0-0.4,0.1-0.5,0.2l-3.7,3.4
			c-0.3,0.3-0.3,0.7-0.1,1c0.3,0.3,0.7,0.3,1,0l2.6-2.4v10.7c0,0.4,0.3,0.7,0.7,0.7s0.7-0.3,0.7-0.7v-10.7l2.6,2.4
			c0.3,0.3,0.7,0.2,1,0c0.3-0.3,0.2-0.8-0.1-1l-3.7-3.4C17,966.9,16.9,966.9,16.7,966.9z"/>
		<path d="M16.6,980.9c-0.6,0-1.1-0.5-1.1-1.1v-9.6l-1.8,1.6c-0.5,0.5-1.1,0.5-1.6,0c-0.4-0.6-0.3-1.2,0.1-1.6l3.7-3.4
			c0.2-0.2,0.5-0.3,0.8-0.3c0.5,0,0.7,0.2,0.7,0.4l3.6,3.3c0.2,0.1,0.4,0.4,0.4,0.8c0,0.3-0.1,0.6-0.3,0.9c-0.6,0.4-1.2,0.4-1.6,0
			l-1.8-1.6v9.6C17.8,980.4,17.3,980.9,16.6,980.9z M16.4,968v11.8c0,0.2,0.4,0.2,0.4,0V968l3.4,3.1c0.1,0.1,0.3,0,0.4,0
			c0,0,0,0,0-0.1c0-0.1,0-0.1-0.1-0.1l-3.8-3.5c0,0,0,0-0.1,0l-3.7,3.4c-0.1,0.1-0.1,0.3,0,0.3c0,0,0.1,0,0.2-0.1L16.4,968z
			 M25.4,979.5h-4.8c-0.6,0-1.1-0.5-1.1-1.1s0.5-1.1,1.1-1.1h4.8c2.6,0,4.6-2,4.6-4.6c0-2.6-2-4.6-4.6-4.6l-0.6,0
			c-0.6-0.1-0.9-0.6-0.9-1.2c0.3-2.3-0.5-4.6-2.1-6.1c-1.4-1.4-3.2-2.1-5.2-2.1c-2,0-3.8,0.8-5.2,2.1c-1.1,1.1-1.9,2.7-2.1,4.3
			c0,0.5-0.5,1-1,1c-2.8,0.3-5,2.7-5,5.6c0,3,2.6,5.6,5.6,5.6h3.7c0.6,0,1.1,0.5,1.1,1.1s-0.5,1.1-1.1,1.1H8.9
			c-4.4,0-7.9-3.5-7.9-7.9c0-3.7,2.7-7,6.3-7.7c0.4-1.9,1.2-3.6,2.6-4.9c1.8-1.8,4.2-2.8,6.8-2.8c2.7,0,5,1,6.6,2.8
			c1.8,1.8,2.8,4.2,2.8,6.7c3.5,0.3,6.2,3.3,6.2,6.8C32.3,976.4,29.2,979.5,25.4,979.5z M20.6,978.1c-0.1,0-0.2,0.1-0.2,0.2
			s0.1,0.2,0.2,0.2h4.8c3.3,0,6-2.7,6-6c0-3.2-2.6-5.8-5.7-5.9l-0.5,0l0-0.5c0.1-2.5-0.8-4.8-2.5-6.5c-1.5-1.6-3.6-2.5-5.9-2.5
			c-2.4,0-4.5,0.9-6.1,2.5c-1.3,1.3-2.1,2.8-2.3,4.7l-0.1,0.3l-0.3,0.1c-3.4,0.5-5.9,3.5-5.9,6.9c0,3.8,3.1,7,7,7h3.7
			c0.1,0,0.2-0.1,0.2-0.2s-0.1-0.2-0.2-0.2H8.9c-3.6,0-6.6-2.9-6.6-6.6c0-3.4,2.6-6.3,6-6.6c0.1,0,0.1-0.1,0.1-0.1
			c0.2-1.9,1-3.6,2.3-4.9c1.6-1.6,3.6-2.4,5.9-2.4c2.2,0,4.3,0.9,5.9,2.4c1.8,1.8,2.6,4.3,2.3,6.9c0,0.1,0.1,0.2,0.2,0.2h0.4
			c3.1,0,5.5,2.4,5.5,5.5c0,3.1-2.4,5.5-5.5,5.5H20.6z"/>
	</g>
</g>
</svg>
