<?xml version="1.0" encoding="utf-8"?>
<!-- Generator: Adobe Illustrator 22.1.0, SVG Export Plug-In . SVG Version: 6.00 Build 0)  -->
<svg version="1.1" id="Layer_1" xmlns="http://www.w3.org/2000/svg" xmlns:xlink="http://www.w3.org/1999/xlink" x="0px" y="0px"
	 viewBox="0 0 100 100" style="enable-background:new 0 0 100 100;" xml:space="preserve">
<style type="text/css">
	.st0{fill:#4F4F4F;}
</style>
<g>
	<path class="st0" d="M50.5,4C25.4,4,5,24.4,5,49.5S25.4,95,50.5,95S96,74.6,96,49.5S75.6,4,50.5,4z M50.5,91.1
		c-23,0-41.6-18.7-41.6-41.6c0-23,18.7-41.6,41.6-41.6c23,0,41.6,18.7,41.6,41.6C92.1,72.5,73.5,91.1,50.5,91.1z"/>
	<path class="st0" d="M74.7,27.1c-0.7-0.8-2-0.8-2.7-0.1L50.7,47.2L29.4,27c-0.8-0.7-2-0.7-2.7,0.1c-0.7,0.8-0.7,2,0.1,2.7l21.1,20
		l-21.1,20c-0.8,0.7-0.8,2-0.1,2.7c0.4,0.4,0.9,0.6,1.4,0.6c0.5,0,1-0.2,1.3-0.5l21.3-20.2L72,72.7c0.4,0.4,0.9,0.5,1.3,0.5
		c0.5,0,1-0.2,1.4-0.6c0.7-0.8,0.7-2-0.1-2.7l-21.1-20l21.1-20C75.4,29.1,75.5,27.8,74.7,27.1z"/>
</g>
</svg>
