<?xml version="1.0" encoding="utf-8"?>
<!-- Generator: Adobe Illustrator 19.0.0, SVG Export Plug-In . SVG Version: 6.00 Build 0)  -->
<svg version="1.1" id="Layer_1" xmlns="http://www.w3.org/2000/svg" xmlns:xlink="http://www.w3.org/1999/xlink" x="0px" y="0px"
	 viewBox="0 0 33 33" style="enable-background:new 0 0 33 33;" xml:space="preserve">
<style type="text/css">
	.st0{fill:#878787;}
</style>
<path id="XMLID_4_" class="st0" d="M13.5,26.2c-7,0-12.7-5.7-12.7-12.7c0-7,5.7-12.7,12.7-12.7s12.7,5.7,12.7,12.7
	C26.2,20.5,20.5,26.2,13.5,26.2z M13.5,3.9c-5.3,0-9.7,4.3-9.7,9.7c0,5.3,4.3,9.7,9.7,9.7s9.7-4.3,9.7-9.7
	C23.2,8.2,18.8,3.9,13.5,3.9z"/>
<path id="XMLID_2_" class="st0" d="M31.8,29.9l-1.7,1.7c-0.5,0.5-1.4,0.5-1.9,0L20,23.2c-0.5-0.5-0.5-1.4,0-1.9l1.7-1.7
	c0.5-0.5,1.4-0.5,1.9,0l8.4,8.4C32.4,28.6,32.4,29.4,31.8,29.9z"/>
</svg>
