<?xml version="1.0" encoding="utf-8"?>
<!-- Generator: Adobe Illustrator 24.1.1, SVG Export Plug-In . SVG Version: 6.00 Build 0)  -->
<svg version="1.1" id="Capa_1" xmlns="http://www.w3.org/2000/svg" xmlns:xlink="http://www.w3.org/1999/xlink" x="0px" y="0px"
	 viewBox="0 0 50 50" style="enable-background:new 0 0 50 50;" xml:space="preserve">
<style type="text/css">
	.st0{fill:#DEF1FE;}
	.st1{fill:none;stroke:#1C87C3;stroke-width:1.6;stroke-linecap:round;stroke-miterlimit:10;}
	.st2{fill:#1C87C3;}
</style>
<rect x="7" y="21" class="st0" width="36" height="28"/>
<path class="st1" d="M9,49c-1.1,0-2-0.9-2-2V23c0-1.1,0.9-2,2-2h32c1.1,0,2,0.9,2,2v24c0,1.1-0.9,2-2,2H9z M34.6,13.1
	c0,0-1.1-3.6-1.3-4.3c-1.8-5.8-8-9.1-13.8-7.3s-9.1,8-7.3,13.8C12.6,16.4,14,21,14,21"/>
<path class="st2" d="M28,33c0-1.7-1.3-3-3-3s-3,1.3-3,3c0,0.9,0.4,1.7,1,2.2V38c0,1.1,0.9,2,2,2s2-0.9,2-2v-2.8
	C27.6,34.7,28,33.9,28,33z"/>
</svg>
