<?xml version="1.0" encoding="utf-8"?>
<!-- Generator: Adobe Illustrator 24.1.1, SVG Export Plug-In . SVG Version: 6.00 Build 0)  -->
<svg version="1.1" id="Capa_1" xmlns="http://www.w3.org/2000/svg" xmlns:xlink="http://www.w3.org/1999/xlink" x="0px" y="0px"
	 viewBox="0 0 39 46.9" style="enable-background:new 0 0 39 46.9;" xml:space="preserve">
<style type="text/css">
	.st0{fill:#DEF1FE;}
	.st1{fill:none;stroke:#1C87C3;stroke-width:1.6;stroke-linecap:round;stroke-miterlimit:10;}
	.st2{fill:#1C87C3;}
</style>
<rect x="1.7" y="17.9" class="st0" width="36" height="28"/>
<path class="st1" d="M3.7,45.9c-1.1,0-2-0.9-2-2v-24c0-1.1,0.9-2,2-2h32c1.1,0,2,0.9,2,2v24c0,1.1-0.9,2-2,2H3.7z"/>
<path class="st1" d="M30.7,17.6c0,0,0-3.8,0-4.5c0-6.2-4.8-10.7-11-10.7c-6.1,0-10.9,4.4-10.9,10.7c0.1,0.7,0,3.3,0,4.8"/>
<path class="st2" d="M22.7,29.9c0-1.7-1.3-3-3-3s-3,1.3-3,3c0,0.9,0.4,1.7,1,2.2v2.8c0,1.1,0.9,2,2,2s2-0.9,2-2v-2.8
	C22.3,31.6,22.7,30.8,22.7,29.9z"/>
</svg>
